<svg width="56" height="56" viewBox="0 0 56 56" fill="none" xmlns="http://www.w3.org/2000/svg">
<path fill-rule="evenodd" clip-rule="evenodd" d="M28 7.198C27.328 7.19696 26.6692 7.38402 26.098 7.738L8.368 19.348C7.108 20.179 6.724 21.61 7.21 22.831C7.678 24.007 8.86 24.802 10.27 24.802H45.73C47.14 24.802 48.322 24.007 48.79 22.831C49.276 21.61 48.892 20.179 47.635 19.351L47.632 19.348L29.902 7.738C29.3308 7.38402 28.672 7.19696 28 7.198ZM7 42.631C7 40.831 8.716 39.964 10 39.964H10.165L10.156 39.802V30.169C10.156 29.7712 10.314 29.3896 10.5953 29.1083C10.8766 28.827 11.2582 28.669 11.656 28.669H16.648C17.0458 28.669 17.4274 28.827 17.7087 29.1083C17.99 29.3896 18.148 29.7712 18.148 30.169V39.802L18.139 39.964H24.013L24.004 39.802V30.169C24.004 29.7712 24.162 29.3896 24.4433 29.1083C24.7246 28.827 25.1062 28.669 25.504 28.669H30.496C30.693 28.669 30.888 28.7078 31.07 28.7832C31.252 28.8586 31.4174 28.9691 31.5567 29.1083C31.6959 29.2476 31.8064 29.413 31.8818 29.595C31.9572 29.777 31.996 29.972 31.996 30.169V39.802L31.987 39.964H37.861L37.852 39.802V30.169C37.852 29.7712 38.01 29.3896 38.2913 29.1083C38.5726 28.827 38.9542 28.669 39.352 28.669H44.344C44.7418 28.669 45.1234 28.827 45.4047 29.1083C45.686 29.3896 45.844 29.7712 45.844 30.169V39.802L45.835 39.964H46C47.284 39.964 49 40.831 49 42.634V46.135C49 47.935 47.284 48.802 46 48.802H10C8.716 48.802 7 47.935 7 46.132V42.631Z" fill="url(#paint0_linear_280_134)"/>
<defs>
<linearGradient id="paint0_linear_280_134" x1="28" y1="7.198" x2="28" y2="48.802" gradientUnits="userSpaceOnUse">
<stop stop-color="#7037DA"/>
<stop offset="1" stop-color="#221891"/>
</linearGradient>
</defs>
</svg>
