<svg width="38" height="52" viewBox="0 0 38 52" fill="none" xmlns="http://www.w3.org/2000/svg">
<path fill-rule="evenodd" clip-rule="evenodd" d="M30.3335 0.666626C32.19 0.666626 33.9704 1.40412 35.2832 2.71688C36.596 4.02963 37.3335 5.81011 37.3335 7.66663V45C37.3332 45.4394 37.2088 45.8699 36.9746 46.2418C36.7405 46.6137 36.406 46.9119 36.0098 47.1021C35.6136 47.2922 35.1718 47.3666 34.7351 47.3167C34.2985 47.2668 33.8849 47.0946 33.5418 46.82L29.1668 43.32L24.7918 46.82C24.3436 47.179 23.7787 47.3602 23.2052 47.3288C22.6318 47.2973 22.0901 47.0555 21.6838 46.6496L18.6668 43.6326L15.6498 46.6496C15.2438 47.0559 14.7022 47.2981 14.1288 47.33C13.5553 47.3618 12.9903 47.1811 12.5418 46.8223L8.16679 43.32L3.79179 46.82C3.44872 47.0946 3.03506 47.2668 2.59843 47.3167C2.1618 47.3666 1.71995 47.2922 1.32375 47.1021C0.927552 46.9119 0.593117 46.6137 0.358948 46.2418C0.124778 45.8699 0.000396564 45.4394 0.00012207 45V7.66663C0.00012207 5.81011 0.73762 4.02963 2.05037 2.71688C3.36313 1.40412 5.14361 0.666626 7.00012 0.666626H30.3335ZM18.6668 24H11.6668C11.0479 24 10.4545 24.2458 10.0169 24.6834C9.57929 25.121 9.33346 25.7145 9.33346 26.3333C9.33346 26.9521 9.57929 27.5456 10.0169 27.9832C10.4545 28.4208 11.0479 28.6666 11.6668 28.6666H18.6668C19.2856 28.6666 19.8791 28.4208 20.3167 27.9832C20.7543 27.5456 21.0001 26.9521 21.0001 26.3333C21.0001 25.7145 20.7543 25.121 20.3167 24.6834C19.8791 24.2458 19.2856 24 18.6668 24ZM25.6668 14.6666H11.6668C11.0721 14.6673 10.5 14.895 10.0676 15.3033C9.63514 15.7115 9.37491 16.2695 9.34005 16.8632C9.3052 17.4569 9.49836 18.0415 9.88007 18.4976C10.2618 18.9536 10.8032 19.2467 11.3938 19.317L11.6668 19.3333H25.6668C26.2615 19.3326 26.8335 19.1049 27.266 18.6966C27.6984 18.2884 27.9587 17.7304 27.9935 17.1367C28.0284 16.543 27.8352 15.9584 27.4535 15.5024C27.0718 15.0463 26.5303 14.7532 25.9398 14.683L25.6668 14.6666Z" fill="url(#paint0_linear_280_276)"/>
<defs>
<linearGradient id="paint0_linear_280_276" x1="18.6668" y1="0.666626" x2="18.6668" y2="47.3336" gradientUnits="userSpaceOnUse">
<stop stop-color="#7037DA"/>
<stop offset="1" stop-color="#221891"/>
</linearGradient>
</defs>
</svg>
