<svg width="157" height="28" viewBox="0 0 157 28" fill="none" xmlns="http://www.w3.org/2000/svg">
<mask id="mask0_239_1168" style="mask-type:luminance" maskUnits="userSpaceOnUse" x="0" y="0" width="156" height="27">
<path d="M155.715 0.974976H0.64843V26.8193H155.715V0.974976Z" fill="white"/>
</mask>
<g mask="url(#mask0_239_1168)">
<path d="M61.5492 3.6067C61.5492 2.99528 61.7963 2.4089 62.2363 1.97655C62.6762 1.54422 63.273 1.30133 63.8952 1.30133C64.5174 1.30133 65.1141 1.54422 65.5539 1.97655C65.994 2.4089 66.2411 2.99528 66.2411 3.6067C66.2184 4.20323 65.9614 4.7679 65.5239 5.18207C65.0864 5.59622 64.5026 5.82762 63.8952 5.82762C63.2878 5.82762 62.7039 5.59622 62.2665 5.18207C61.829 4.7679 61.5719 4.20323 61.5492 3.6067Z" fill="#D6D7DA"/>
<path d="M98.5641 18.9812C98.5641 17.7017 99.6128 16.6678 100.905 16.6678C101.529 16.6678 102.127 16.9114 102.569 17.3449C103.01 17.7785 103.258 18.3664 103.258 18.9797C103.258 19.5928 103.01 20.1807 102.569 20.6143C102.127 21.0478 101.529 21.2914 100.905 21.2914C99.6145 21.2914 98.5641 20.2559 98.5641 18.9797" fill="#D6D7DA"/>
<path d="M23.0478 17.9811C21.0287 17.9811 19.6237 16.4045 19.6237 14.1506C19.6237 11.8982 21.0287 10.3233 23.0495 10.3233C25.0801 10.3233 26.4997 11.8982 26.4997 14.1506C26.4997 16.4399 25.1111 17.9811 23.0478 17.9811ZM23.0478 6.95672C18.7742 6.95672 15.6719 9.98291 15.6719 14.1506C15.6719 18.3198 18.7758 21.3444 23.0478 21.3444C27.3395 21.3444 30.4532 18.3198 30.4532 14.1521C30.4532 9.98291 27.3395 6.95672 23.0495 6.95672H23.0478ZM57.0052 14.5117C56.8564 14.229 56.6684 13.9681 56.4464 13.7363L56.3157 13.6032L56.453 13.4747C56.6491 13.2708 56.85 13.03 57.0427 12.7506L60.8165 7.24088H56.2358L53.4013 11.5514C53.2412 11.7825 52.9178 11.8982 52.4326 11.8982H51.7872V3.74911C51.7872 2.11962 50.7531 1.89807 49.6373 1.89807H47.7259L47.7308 21.1325H51.7888V15.3626H52.1695C52.6319 15.3626 52.9455 15.4157 53.0909 15.6629L55.329 19.8144C55.9546 20.9414 56.5771 21.1325 57.75 21.1325H60.859L58.5424 17.3695L57.0068 14.5117H57.0052ZM76.7039 6.92461C74.6389 6.92461 73.3222 7.82685 72.5837 8.58942L72.3388 8.83344L72.2506 8.50112C72.0349 7.68397 71.3031 7.23606 70.2036 7.23606H68.3852L68.3967 21.1276H72.4269V14.7253C72.4269 14.0992 72.5086 13.5566 72.6784 13.0604C73.1261 11.5594 74.3775 10.6267 75.9409 10.6267C77.1988 10.6267 77.6906 11.2801 77.6906 12.9657V19.0165C77.6906 20.455 78.3685 21.1276 79.8339 21.1276H81.7518L81.7454 12.2915C81.7454 8.78207 80.0023 6.92621 76.7039 6.92621V6.92461ZM63.9433 7.24088H62.0336L62.0466 17.9827V21.1325H64.0837L64.1557 21.1356L65.1065 21.1325H66.0508V21.1276H66.0573L66.0654 9.35199C66.0654 7.9312 65.3744 7.24248 63.945 7.24248L63.9433 7.24088ZM38.8764 17.9811C36.8571 17.9811 35.4506 16.4045 35.4506 14.1506C35.4506 11.8982 36.8572 10.3233 38.8781 10.3233C40.9038 10.3233 42.3284 11.8982 42.3284 14.1506C42.3284 16.4399 40.9397 17.9811 38.8781 17.9811H38.8764ZM38.8764 6.95672C34.5994 6.95672 31.4954 9.98291 31.4954 14.1506C31.4954 18.3198 34.5995 21.3444 38.8781 21.3444C43.1632 21.3444 46.2834 18.3198 46.2834 14.1521C46.2834 9.98291 43.1632 6.95672 38.8781 6.95672" fill="#D6D7DA"/>
<path d="M125.254 17.9812C123.236 17.9812 121.827 16.4047 121.827 14.1507C121.827 11.8984 123.236 10.3235 125.254 10.3235C127.283 10.3235 128.706 11.8984 128.706 14.1507C128.706 16.4401 127.318 17.9812 125.254 17.9812ZM125.254 6.95691C120.978 6.95691 117.875 9.9831 117.875 14.1507C117.875 18.32 120.978 21.3445 125.254 21.3445C129.541 21.3445 132.659 18.32 132.659 14.1524C132.659 9.9831 129.539 6.95691 125.254 6.95691Z" fill="#D6D7DA"/>
<path d="M90.2415 17.3695C88.0376 17.3695 87.2536 15.4815 87.2536 13.7107C87.2536 12.9305 87.4545 10.3891 90.0307 10.3891C91.3099 10.3891 93.0138 10.7487 93.0138 13.8408C93.0138 16.7578 91.5059 17.3695 90.2415 17.3695ZM95.1064 7.204C94.3419 7.204 93.7538 7.50422 93.4581 8.05166L93.3471 8.26358L93.1609 8.10304C92.5107 7.55077 91.3442 6.89417 89.4508 6.89417C85.682 6.89417 83.1449 9.67634 83.1449 13.8135C83.1449 17.949 85.7701 20.8387 89.526 20.8387C90.8084 20.8387 91.8228 20.5434 92.6266 19.9462L92.937 19.7166V20.1019C92.937 21.9578 91.7167 22.982 89.5031 22.982C88.4264 22.982 87.4479 22.725 86.7912 22.4907C85.9384 22.237 85.4352 22.4473 85.0906 23.2902L84.7704 24.0672L84.3178 25.2039L84.5972 25.35C86.0152 26.0885 87.8597 26.5299 89.526 26.5299C92.9567 26.5299 96.9656 24.8041 96.9656 19.9462L96.9803 7.204H95.1064Z" fill="#D6D7DA"/>
<path d="M8.291 17.822L5.01061 17.8188V13.9659C5.01061 13.1407 5.33571 12.7136 6.05288 12.6141H8.291C9.88709 12.6141 10.9195 13.6031 10.9212 15.2037C10.9195 16.8475 9.91323 17.8205 8.291 17.8205V17.822ZM5.01061 7.42542V6.4108C5.01061 5.52301 5.39291 5.10078 6.23097 5.0462H7.9104C9.34966 5.0462 10.2122 5.89225 10.2122 7.30983C10.2122 8.38866 9.62082 9.64891 7.96265 9.64891H5.01061V7.42542ZM12.4798 11.272L11.8867 10.9445L12.4045 10.5094C13.0074 10.0005 14.0154 8.85584 14.0154 6.88119C14.0154 3.85659 11.6302 1.90442 7.93653 1.90442H3.24134C2.71303 1.92334 2.21242 2.1413 1.84319 2.5131C1.47396 2.88491 1.26445 3.38207 1.25809 3.90155V21.0634H8.01978C12.1252 21.0634 14.775 18.8671 14.775 15.4654C14.775 13.6335 13.919 12.0683 12.4798 11.272Z" fill="#D6D7DA"/>
<path d="M150.914 6.97125C150.082 6.97427 149.261 7.16092 148.512 7.51743C147.764 7.87393 147.106 8.39119 146.588 9.03099L146.298 9.39381L146.069 8.98765C145.32 7.65034 144.036 6.97125 142.251 6.97125C140.377 6.97125 139.12 7.99871 138.537 8.60877L138.156 9.01494L138.008 8.48034C137.795 7.70974 137.098 7.28752 136.043 7.28752H134.349L134.332 21.1262H138.18V15.0176C138.18 14.4814 138.248 13.9532 138.383 13.3993C138.751 11.9224 139.761 10.3346 141.458 10.4935C142.503 10.5931 143.017 11.3877 143.017 12.9225V21.1262H146.892V15.0176C146.892 14.3481 146.956 13.8473 147.109 13.3463C147.419 11.9368 148.475 10.4919 150.112 10.4919C151.298 10.4919 151.736 11.1501 151.736 12.9225V19.1033C151.736 20.5001 152.37 21.1262 153.793 21.1262H155.602L155.606 12.2916C155.606 8.76128 154.025 6.97125 150.914 6.97125ZM115.898 16.3211C115.886 16.3356 114.232 18.0501 112.051 18.0501C110.064 18.0501 108.058 16.8525 108.058 14.1796C108.058 11.8709 109.613 10.2575 111.842 10.2575C112.563 10.2575 113.387 10.5112 113.516 10.9398L113.534 11.0121C113.616 11.3072 113.795 11.5673 114.044 11.7522C114.292 11.9372 114.596 12.0364 114.907 12.0347L117.013 12.0379V10.227C117.013 7.83817 113.922 6.97125 111.842 6.97125C107.392 6.97125 104.163 10.0151 104.163 14.2085C104.163 18.3985 107.356 21.4392 111.76 21.4392C115.579 21.4392 117.657 18.9717 117.677 18.9476L117.788 18.8127L116.119 16.0916L115.898 16.3211Z" fill="#D6D7DA"/>
</g>
</svg>
