<svg width="57" height="56" viewBox="0 0 57 56" fill="none" xmlns="http://www.w3.org/2000/svg">
<path d="M52 23.3334V39.6667C52 41.5232 51.2625 43.3037 49.9497 44.6165C48.637 45.9292 46.8565 46.6667 45 46.6667H12.3333C10.4768 46.6667 8.69632 45.9292 7.38357 44.6165C6.07081 43.3037 5.33331 41.5232 5.33331 39.6667V23.3334H52ZM42.6666 32.6667H35.6666C35.0478 32.6667 34.4543 32.9125 34.0167 33.3501C33.5791 33.7877 33.3333 34.3812 33.3333 35C33.3333 35.6189 33.5791 36.2124 34.0167 36.65C34.4543 37.0875 35.0478 37.3334 35.6666 37.3334H42.6666C43.2855 37.3334 43.879 37.0875 44.3166 36.65C44.7541 36.2124 45 35.6189 45 35C45 34.3812 44.7541 33.7877 44.3166 33.3501C43.879 32.9125 43.2855 32.6667 42.6666 32.6667ZM45 9.33337C46.8565 9.33337 48.637 10.0709 49.9497 11.3836C51.2625 12.6964 52 14.4769 52 16.3334V18.6667H5.33331V16.3334C5.33331 14.4769 6.07081 12.6964 7.38357 11.3836C8.69632 10.0709 10.4768 9.33337 12.3333 9.33337H45Z" fill="url(#paint0_linear_280_213)"/>
<defs>
<linearGradient id="paint0_linear_280_213" x1="28.6666" y1="9.33337" x2="28.6666" y2="46.6667" gradientUnits="userSpaceOnUse">
<stop stop-color="#7037DA"/>
<stop offset="1" stop-color="#221891"/>
</linearGradient>
</defs>
</svg>
