<svg width="650" height="306" viewBox="0 0 650 306" fill="none" xmlns="http://www.w3.org/2000/svg">
<g opacity="0.4">
<path d="M331.918 20.5332L366.359 1.61646L401.023 20.5332M331.918 20.5332L297.478 39.45M331.918 20.5332L366.582 39.45M401.023 20.5332L366.582 39.45M401.023 20.5332L435.687 39.45M297.478 39.45L263.037 58.3665M297.478 39.45L332.142 58.3665M366.582 39.45L332.142 58.3665M366.582 39.45L401.247 58.3665M263.037 58.3665L228.596 77.2832M263.037 58.3665L297.701 77.2832M332.142 58.3665L297.701 77.2832M332.142 58.3665L366.806 77.2832M228.596 77.2832L194.156 96.2M228.596 77.2832L263.26 96.2M297.701 77.2832L263.26 96.2M297.701 77.2832L332.365 96.2M194.156 96.2L159.715 115.117L194.379 134.034M194.156 96.2L228.82 115.117M263.26 96.2L228.82 115.117M263.26 96.2L297.924 115.117M194.379 134.034L159.938 152.95M194.379 134.034L228.82 115.117M194.379 134.034L229.043 152.95M228.82 115.117L263.484 134.034M159.938 152.95L125.498 171.879L160.162 190.796M159.938 152.95L194.602 171.867M160.162 190.796L194.602 171.867M160.162 190.796L194.839 209.713M160.162 190.796L125.734 209.713M194.602 171.867L229.043 152.95M194.602 171.867L229.28 190.796M229.043 152.95L263.484 134.034M229.043 152.95L263.72 171.879M263.484 134.034L297.924 115.117M263.484 134.034L298.161 152.963M297.924 115.117L332.365 96.2M297.924 115.117L332.602 134.034M332.365 96.2L366.806 77.2832M332.365 96.2L367.042 115.117M366.806 77.2832L401.247 58.3665M366.806 77.2832L401.483 96.2M401.247 58.3665L435.687 39.45M401.247 58.3665L435.924 77.2832M435.687 39.45L470.351 58.3665M229.28 190.796L194.839 209.713M229.28 190.796L263.72 171.879M229.28 190.796L263.944 209.713M194.839 209.713L229.503 228.63M194.839 209.713L160.398 228.63M125.734 209.713L91.2803 228.63L125.957 247.546M125.734 209.713L160.398 228.63M263.72 171.879L298.161 152.963M263.72 171.879L298.384 190.796M298.161 152.963L332.602 134.034M298.161 152.963L332.825 171.879M332.602 134.034L367.042 115.117M332.602 134.034L367.266 152.95M367.042 115.117L401.483 96.2M367.042 115.117L401.706 134.034M401.483 96.2L435.924 77.2832M401.483 96.2L436.147 115.117M435.924 77.2832L470.351 58.3665M435.924 77.2832L470.588 96.2M470.351 58.3665L505.015 77.2832M263.944 209.713L229.503 228.63M263.944 209.713L298.384 190.796M263.944 209.713L298.608 228.63M229.503 228.63L264.167 247.546M229.503 228.63L195.062 247.546M160.398 228.63L125.957 247.546M160.398 228.63L195.062 247.546M298.384 190.796L332.825 171.879M298.384 190.796L333.048 209.713M332.825 171.879L367.266 152.95M332.825 171.879L367.489 190.796M367.266 152.95L401.706 134.034M367.266 152.95L401.93 171.867M401.706 134.034L436.147 115.117M401.706 134.034L436.371 152.95M436.147 115.117L470.588 96.2M436.147 115.117L470.811 134.034M470.588 96.2L505.015 77.2832M470.588 96.2L505.239 115.117M505.015 77.2832L539.679 96.2L505.239 115.117M298.608 228.63L264.167 247.546M298.608 228.63L333.048 209.713M298.608 228.63L333.272 247.546M264.167 247.546L298.831 266.463M264.167 247.546L229.726 266.463M195.062 247.546L160.622 266.463M195.062 247.546L229.726 266.463M333.048 209.713L367.489 190.796M333.048 209.713L367.713 228.63M367.489 190.796L401.93 171.867M367.489 190.796L402.153 209.713M401.93 171.867L436.371 152.95M401.93 171.867L436.594 190.784M436.371 152.95L470.811 134.034M436.371 152.95L471.035 171.867M470.811 134.034L505.239 115.117M470.811 134.034L505.475 152.95M505.239 115.117L539.903 134.034L505.475 152.95M298.831 266.463L333.272 247.546M298.831 266.463L333.482 285.38H333.495M298.831 266.463L264.39 285.38M229.726 266.463L195.286 285.38M229.726 266.463L264.39 285.38M333.272 247.546L367.713 228.63M333.272 247.546L367.923 266.463M367.713 228.63L402.153 209.713M402.153 209.713L436.594 190.784M402.153 209.713L436.804 228.63M436.594 190.784L471.035 171.867M436.594 190.784L471.245 209.701M471.035 171.867L505.475 152.95M471.035 171.867L505.686 190.784M505.475 152.95L540.126 171.867M367.923 266.463L299.054 304.297L264.39 285.38M367.923 266.463H367.936M264.39 285.38L229.95 304.309L195.286 285.38M471.245 209.701L505.686 190.784M471.245 209.701H471.258M505.686 190.784H505.699L540.126 171.867M505.686 190.784L471.258 209.713M540.126 171.867H540.139M471.258 209.713L436.817 228.63M471.258 209.713H471.245M125.957 247.546L160.622 266.463M160.622 266.463L195.286 285.38M87.5485 173.333L53.1078 192.249L87.7719 211.166L122.212 192.249L87.5485 173.333ZM134.407 262.054L99.9661 280.971L134.63 299.887L169.071 280.971L134.407 262.054ZM389.263 228.63L354.822 247.546L389.486 266.463L423.927 247.546L389.263 228.63ZM562.241 135.698L527.801 154.615L562.465 173.531L596.905 154.615L562.241 135.698Z" stroke="#E5E5E5" stroke-width="0.674982" stroke-linecap="round" stroke-linejoin="round"/>
<path d="M331.918 20.5332L366.359 1.61646L401.023 20.5332M331.918 20.5332L297.478 39.45M331.918 20.5332L366.582 39.45M401.023 20.5332L366.582 39.45M401.023 20.5332L435.687 39.45M297.478 39.45L263.037 58.3665M297.478 39.45L332.142 58.3665M366.582 39.45L332.142 58.3665M366.582 39.45L401.247 58.3665M263.037 58.3665L228.596 77.2832M263.037 58.3665L297.701 77.2832M332.142 58.3665L297.701 77.2832M332.142 58.3665L366.806 77.2832M228.596 77.2832L194.156 96.2M228.596 77.2832L263.26 96.2M297.701 77.2832L263.26 96.2M297.701 77.2832L332.365 96.2M194.156 96.2L159.715 115.117L194.379 134.034M194.156 96.2L228.82 115.117M263.26 96.2L228.82 115.117M263.26 96.2L297.924 115.117M194.379 134.034L159.938 152.95M194.379 134.034L228.82 115.117M194.379 134.034L229.043 152.95M228.82 115.117L263.484 134.034M159.938 152.95L125.498 171.879L160.162 190.796M159.938 152.95L194.602 171.867M160.162 190.796L194.602 171.867M160.162 190.796L194.839 209.713M160.162 190.796L125.734 209.713M194.602 171.867L229.043 152.95M194.602 171.867L229.28 190.796M229.043 152.95L263.484 134.034M229.043 152.95L263.72 171.879M263.484 134.034L297.924 115.117M263.484 134.034L298.161 152.963M297.924 115.117L332.365 96.2M297.924 115.117L332.602 134.034M332.365 96.2L366.806 77.2832M332.365 96.2L367.042 115.117M366.806 77.2832L401.247 58.3665M366.806 77.2832L401.483 96.2M401.247 58.3665L435.687 39.45M401.247 58.3665L435.924 77.2832M435.687 39.45L470.351 58.3665M229.28 190.796L194.839 209.713M229.28 190.796L263.72 171.879M229.28 190.796L263.944 209.713M194.839 209.713L229.503 228.63M194.839 209.713L160.398 228.63M125.734 209.713L91.2803 228.63L125.957 247.546M125.734 209.713L160.398 228.63M263.72 171.879L298.161 152.963M263.72 171.879L298.384 190.796M298.161 152.963L332.602 134.034M298.161 152.963L332.825 171.879M332.602 134.034L367.042 115.117M332.602 134.034L367.266 152.95M367.042 115.117L401.483 96.2M367.042 115.117L401.706 134.034M401.483 96.2L435.924 77.2832M401.483 96.2L436.147 115.117M435.924 77.2832L470.351 58.3665M435.924 77.2832L470.588 96.2M470.351 58.3665L505.015 77.2832M263.944 209.713L229.503 228.63M263.944 209.713L298.384 190.796M263.944 209.713L298.608 228.63M229.503 228.63L264.167 247.546M229.503 228.63L195.062 247.546M160.398 228.63L125.957 247.546M160.398 228.63L195.062 247.546M298.384 190.796L332.825 171.879M298.384 190.796L333.048 209.713M332.825 171.879L367.266 152.95M332.825 171.879L367.489 190.796M367.266 152.95L401.706 134.034M367.266 152.95L401.93 171.867M401.706 134.034L436.147 115.117M401.706 134.034L436.371 152.95M436.147 115.117L470.588 96.2M436.147 115.117L470.811 134.034M470.588 96.2L505.015 77.2832M470.588 96.2L505.239 115.117M505.015 77.2832L539.679 96.2L505.239 115.117M298.608 228.63L264.167 247.546M298.608 228.63L333.048 209.713M298.608 228.63L333.272 247.546M264.167 247.546L298.831 266.463M264.167 247.546L229.726 266.463M195.062 247.546L160.622 266.463M195.062 247.546L229.726 266.463M333.048 209.713L367.489 190.796M333.048 209.713L367.712 228.63M367.489 190.796L401.93 171.867M367.489 190.796L402.153 209.713M401.93 171.867L436.371 152.95M401.93 171.867L436.594 190.784M436.371 152.95L470.811 134.034M436.371 152.95L471.035 171.867M470.811 134.034L505.239 115.117M470.811 134.034L505.475 152.95M505.239 115.117L539.903 134.034L505.475 152.95M298.831 266.463L333.272 247.546M298.831 266.463L333.482 285.38H333.495M298.831 266.463L264.39 285.38M229.726 266.463L195.286 285.38M229.726 266.463L264.39 285.38M333.272 247.546L367.712 228.63M333.272 247.546L367.923 266.463M367.712 228.63L402.153 209.713M402.153 209.713L436.594 190.784M402.153 209.713L436.804 228.63M436.594 190.784L471.035 171.867M436.594 190.784L471.245 209.701M471.035 171.867L505.475 152.95M471.035 171.867L505.686 190.784M505.475 152.95L540.126 171.867M367.923 266.463L299.054 304.297L264.39 285.38M367.923 266.463H367.936M264.39 285.38L229.95 304.309L195.286 285.38M471.245 209.701L505.686 190.784M471.245 209.701H471.258M505.686 190.784H505.699L540.126 171.867M505.686 190.784L471.258 209.713M540.126 171.867H540.139M471.258 209.713L436.817 228.63M471.258 209.713H471.245M125.957 247.546L160.622 266.463M160.622 266.463L195.286 285.38M87.5485 173.333L53.1078 192.249L87.7719 211.166L122.212 192.249L87.5485 173.333ZM134.407 262.054L99.9661 280.971L134.63 299.887L169.071 280.971L134.407 262.054ZM389.263 228.63L354.822 247.546L389.486 266.463L423.927 247.546L389.263 228.63ZM562.241 135.698L527.801 154.615L562.465 173.531L596.905 154.615L562.241 135.698Z" stroke="url(#paint0_linear_52_502)" stroke-width="0.674982" stroke-linecap="round" stroke-linejoin="round"/>
<path d="M301.236 303.092C302.458 303.75 302.458 304.831 301.249 305.489C300.04 306.148 298.082 306.16 296.86 305.489C295.638 304.818 295.638 303.75 296.847 303.08C298.056 302.409 300.014 302.421 301.236 303.08M232.026 303.092C230.804 302.434 228.846 302.421 227.637 303.092C226.428 303.763 226.441 304.831 227.65 305.502C228.859 306.172 230.83 306.16 232.039 305.502C233.248 304.843 233.235 303.763 232.026 303.104M266.348 284.188C265.126 283.529 263.168 283.517 261.959 284.188C260.751 284.858 260.764 285.927 261.973 286.597C263.182 287.268 265.153 287.256 266.361 286.597C267.57 285.939 267.557 284.858 266.348 284.2M300.684 265.271C299.462 264.613 297.504 264.6 296.295 265.271C295.086 265.942 295.099 267.01 296.308 267.681C297.517 268.351 299.488 268.339 300.697 267.681C301.906 267.022 301.893 265.942 300.684 265.283M335.453 246.354C334.231 245.696 332.273 245.683 331.064 246.354C329.855 247.025 329.868 248.093 331.077 248.764C332.286 249.434 334.257 249.422 335.466 248.764C336.675 248.105 336.662 247.025 335.453 246.367M369.894 227.437C368.672 226.779 366.714 226.767 365.505 227.437C364.296 228.108 364.309 229.176 365.518 229.847C366.727 230.518 368.698 230.505 369.907 229.847C371.116 229.189 371.103 228.108 369.894 227.45M404.334 208.508C403.112 207.85 401.155 207.837 399.946 208.508C398.737 209.179 398.75 210.247 399.959 210.918C401.168 211.589 403.139 211.576 404.348 210.918C405.557 210.26 405.543 209.179 404.334 208.521M438.775 189.616C437.553 188.958 435.595 188.946 434.386 189.616C433.177 190.287 433.191 191.355 434.399 192.026C435.608 192.697 437.579 192.684 438.788 192.026C439.997 191.368 439.984 190.287 438.775 189.629M473.216 170.7C471.994 170.041 470.036 170.029 468.827 170.7C467.618 171.37 467.631 172.438 468.84 173.109C470.049 173.78 472.02 173.767 473.229 173.109C474.438 172.451 474.425 171.37 473.216 170.712M507.657 151.783C506.435 151.124 504.477 151.112 503.268 151.783C502.059 152.453 502.072 153.522 503.281 154.192C504.49 154.863 506.461 154.851 507.67 154.192C508.879 153.534 508.865 152.453 507.657 151.795M438.985 227.413C437.763 226.754 435.805 226.742 434.597 227.413C433.388 228.083 433.401 229.151 434.61 229.822C435.819 230.493 437.79 230.48 438.999 229.822C440.207 229.164 440.194 228.083 438.985 227.425M473.426 208.521C472.204 207.862 470.246 207.85 469.037 208.521C467.828 209.191 467.841 210.26 469.05 210.93C470.259 211.601 472.23 211.589 473.439 210.93C474.648 210.272 474.635 209.191 473.426 208.533M507.867 189.604C506.645 188.946 504.687 188.933 503.478 189.604C502.269 190.275 502.282 191.343 503.491 192.013C504.7 192.684 506.671 192.672 507.88 192.013C509.089 191.355 509.076 190.275 507.867 189.616M542.308 170.687C541.085 170.029 539.128 170.016 537.919 170.687C536.71 171.358 536.723 172.426 537.932 173.097C539.141 173.767 541.112 173.755 542.321 173.097C543.53 172.438 543.516 171.358 542.308 170.7M542.084 132.841C540.862 132.183 538.904 132.17 537.695 132.841C536.486 133.512 536.5 134.58 537.708 135.251C538.917 135.922 540.888 135.909 542.097 135.251C543.306 134.592 543.293 133.512 542.084 132.854M197.598 284.188C196.376 283.529 194.418 283.517 193.209 284.188C192.001 284.858 192.014 285.927 193.223 286.597C194.432 287.268 196.403 287.256 197.611 286.597C198.82 285.939 198.807 284.858 197.598 284.2M231.921 265.271C230.699 264.613 228.741 264.6 227.532 265.271C226.323 265.942 226.336 267.01 227.545 267.681C228.754 268.351 230.725 268.339 231.934 267.681C233.143 267.022 233.13 265.942 231.921 265.283M266.256 246.354C265.034 245.696 263.076 245.683 261.867 246.354C260.659 247.025 260.672 248.093 261.881 248.764C263.09 249.434 265.061 249.422 266.269 248.764C267.478 248.105 267.465 247.025 266.256 246.367M301.026 227.437C299.803 226.779 297.846 226.767 296.637 227.437C295.428 228.108 295.441 229.176 296.65 229.847C297.859 230.518 299.83 230.505 301.039 229.847C302.248 229.189 302.234 228.108 301.026 227.45M335.466 208.521C334.244 207.862 332.286 207.85 331.077 208.521C329.868 209.191 329.882 210.26 331.091 210.93C332.299 211.601 334.27 211.589 335.479 210.93C336.688 210.272 336.675 209.191 335.466 208.533M369.907 189.591C368.685 188.933 366.727 188.921 365.518 189.591C364.309 190.262 364.322 191.33 365.531 192.001C366.74 192.672 368.711 192.659 369.92 192.001C371.129 191.343 371.116 190.262 369.907 189.604M404.348 170.7C403.126 170.041 401.168 170.029 399.959 170.7C398.75 171.37 398.763 172.438 399.972 173.109C401.181 173.78 403.152 173.767 404.361 173.109C405.57 172.451 405.557 171.37 404.348 170.712M438.788 151.783C437.566 151.124 435.608 151.112 434.399 151.783C433.191 152.453 433.204 153.522 434.413 154.192C435.622 154.863 437.593 154.851 438.801 154.192C440.01 153.534 439.997 152.453 438.788 151.795M473.229 132.866C472.007 132.208 470.049 132.195 468.84 132.866C467.631 133.537 467.644 134.605 468.853 135.276C470.062 135.946 472.033 135.934 473.242 135.276C474.451 134.617 474.438 133.537 473.229 132.878M507.657 113.924C506.435 113.266 504.477 113.254 503.268 113.924C502.059 114.595 502.072 115.663 503.281 116.334C504.49 117.005 506.461 116.992 507.67 116.334C508.879 115.676 508.865 114.595 507.657 113.937M541.861 95.0077C540.639 94.3494 538.681 94.3369 537.472 95.0077C536.263 95.6784 536.276 96.7466 537.485 97.4173C538.694 98.088 540.665 98.0756 541.874 97.4173C543.083 96.759 543.07 95.6784 541.861 95.0201M162.777 265.246C161.555 264.588 159.597 264.575 158.388 265.246C157.179 265.917 157.192 266.985 158.401 267.656C159.61 268.326 161.581 268.314 162.79 267.656C163.999 266.997 163.985 265.917 162.777 265.258M197.099 246.329C195.877 245.671 193.919 245.659 192.71 246.329C191.501 247 191.514 248.068 192.723 248.739C193.932 249.41 195.903 249.397 197.112 248.739C198.321 248.081 198.308 247 197.099 246.342M231.435 227.413C230.213 226.754 228.255 226.742 227.046 227.413C225.837 228.083 225.85 229.151 227.059 229.822C228.268 230.493 230.239 230.48 231.448 229.822C232.657 229.164 232.643 228.083 231.435 227.425M266.204 208.496C264.982 207.837 263.024 207.825 261.815 208.496C260.606 209.167 260.619 210.235 261.828 210.905C263.037 211.576 265.008 211.564 266.217 210.905C267.426 210.247 267.413 209.167 266.204 208.508M300.644 189.579C299.422 188.921 297.464 188.908 296.256 189.579C295.047 190.25 295.06 191.318 296.269 191.989C297.478 192.659 299.449 192.647 300.658 191.989C301.866 191.33 301.853 190.25 300.644 189.591M335.085 170.65C333.863 169.992 331.905 169.979 330.696 170.65C329.487 171.321 329.501 172.389 330.709 173.059C331.918 173.73 333.889 173.718 335.098 173.059C336.307 172.401 336.294 171.321 335.085 170.662M369.526 151.758C368.304 151.1 366.346 151.087 365.137 151.758C363.928 152.429 363.941 153.497 365.15 154.168C366.359 154.838 368.33 154.826 369.539 154.168C370.748 153.509 370.735 152.429 369.526 151.77M403.967 132.841C402.745 132.183 400.787 132.17 399.578 132.841C398.369 133.512 398.382 134.58 399.591 135.251C400.8 135.922 402.771 135.909 403.98 135.251C405.189 134.592 405.175 133.512 403.967 132.854M438.407 113.924C437.185 113.266 435.227 113.254 434.018 113.924C432.809 114.595 432.823 115.663 434.032 116.334C435.24 117.005 437.211 116.992 438.42 116.334C439.629 115.676 439.616 114.595 438.407 113.937M472.835 94.9828C471.613 94.3245 469.655 94.3121 468.446 94.9828C467.237 95.6535 467.25 96.7217 468.459 97.3924C469.668 98.0631 471.639 98.0507 472.848 97.3924C474.057 96.7341 474.044 95.6535 472.835 94.9952M507.039 76.0661C505.817 75.4078 503.859 75.3953 502.65 76.0661C501.441 76.7368 501.454 77.805 502.663 78.4757C503.872 79.1464 505.843 79.134 507.052 78.4757C508.261 77.8174 508.248 76.7368 507.039 76.0785M128.218 246.391C126.996 245.733 125.038 245.721 123.829 246.391C122.62 247.062 122.633 248.13 123.842 248.801C125.051 249.472 127.022 249.459 128.231 248.801C129.44 248.143 129.426 247.062 128.218 246.404M162.54 227.487C161.318 226.829 159.36 226.816 158.151 227.487C156.942 228.158 156.955 229.226 158.164 229.897C159.373 230.567 161.344 230.555 162.553 229.897C163.762 229.238 163.749 228.158 162.54 227.5M196.876 208.57C195.654 207.912 193.696 207.9 192.487 208.57C191.278 209.241 191.291 210.309 192.5 210.98C193.709 211.651 195.68 211.638 196.889 210.98C198.098 210.322 198.085 209.241 196.876 208.583M231.645 189.654C230.423 188.995 228.465 188.983 227.256 189.654C226.047 190.324 226.06 191.392 227.269 192.063C228.478 192.734 230.449 192.721 231.658 192.063C232.867 191.405 232.854 190.324 231.645 189.666M266.085 170.737C264.863 170.078 262.906 170.066 261.697 170.737C260.488 171.408 260.501 172.476 261.71 173.146C262.919 173.817 264.89 173.805 266.099 173.146C267.308 172.488 267.294 171.408 266.085 170.749M300.526 151.808C299.304 151.149 297.346 151.137 296.137 151.808C294.928 152.478 294.942 153.547 296.15 154.217C297.359 154.888 299.33 154.876 300.539 154.217C301.748 153.559 301.735 152.478 300.526 151.82M334.967 132.916C333.745 132.257 331.787 132.245 330.578 132.916C329.369 133.586 329.382 134.655 330.591 135.325C331.8 135.996 333.771 135.984 334.98 135.325C336.189 134.667 336.176 133.586 334.967 132.928M369.408 113.999C368.186 113.341 366.228 113.328 365.019 113.999C363.81 114.67 363.823 115.738 365.032 116.409C366.241 117.079 368.212 117.067 369.421 116.409C370.63 115.75 370.616 114.67 369.408 114.011M403.848 95.0822C402.626 94.4239 400.668 94.4115 399.459 95.0822C398.251 95.7529 398.264 96.8211 399.473 97.4918C400.681 98.1625 402.653 98.1501 403.861 97.4918C405.07 96.8335 405.057 95.7529 403.848 95.0946M438.276 76.1406C437.054 75.4823 435.096 75.4699 433.887 76.1406C432.678 76.8113 432.691 77.8795 433.9 78.5502C435.109 79.2209 437.08 79.2085 438.289 78.5502C439.498 77.8919 439.485 76.8113 438.276 76.153M472.48 57.2114C471.258 56.5531 469.3 56.5407 468.091 57.2114C466.882 57.8821 466.895 58.9503 468.104 59.621C469.313 60.2917 471.284 60.2793 472.493 59.621C473.702 58.9627 473.689 57.8821 472.48 57.2238M93.4484 227.413C92.2263 226.754 90.2684 226.742 89.0595 227.413C87.8506 228.083 87.8638 229.151 89.0727 229.822C90.2816 230.493 92.2526 230.48 93.4615 229.822C94.6704 229.164 94.6573 228.083 93.4484 227.425M127.784 208.496C126.562 207.837 124.604 207.825 123.395 208.496C122.186 209.167 122.199 210.235 123.408 210.905C124.617 211.576 126.588 211.564 127.797 210.905C129.006 210.247 128.993 209.167 127.784 208.508M162.106 189.579C160.884 188.921 158.926 188.908 157.718 189.579C156.509 190.25 156.522 191.318 157.731 191.989C158.94 192.659 160.911 192.647 162.12 191.989C163.328 191.33 163.315 190.25 162.106 189.591M196.889 170.662C195.667 170.004 193.709 169.992 192.5 170.662C191.291 171.333 191.304 172.401 192.513 173.072C193.722 173.743 195.693 173.73 196.902 173.072C198.111 172.414 198.098 171.333 196.889 170.675M231.329 151.745C230.107 151.087 228.149 151.075 226.941 151.745C225.732 152.416 225.745 153.484 226.954 154.155C228.163 154.826 230.134 154.813 231.343 154.155C232.551 153.497 232.538 152.416 231.329 151.758M265.77 132.816C264.548 132.158 262.59 132.146 261.381 132.816C260.172 133.487 260.186 134.555 261.394 135.226C262.603 135.897 264.574 135.884 265.783 135.226C266.992 134.568 266.979 133.487 265.77 132.829M300.211 113.924C298.989 113.266 297.031 113.254 295.822 113.924C294.613 114.595 294.626 115.663 295.835 116.334C297.044 117.005 299.015 116.992 300.224 116.334C301.433 115.676 301.42 114.595 300.211 113.937M334.652 95.0077C333.429 94.3494 331.472 94.3369 330.263 95.0077C329.054 95.6784 329.067 96.7466 330.276 97.4173C331.485 98.088 333.456 98.0756 334.665 97.4173C335.874 96.759 335.86 95.6784 334.652 95.0201M369.092 76.1033C367.87 75.445 365.912 75.4326 364.703 76.1033C363.494 76.774 363.508 77.8422 364.716 78.5129C365.925 79.1836 367.896 79.1712 369.105 78.5129C370.314 77.8546 370.301 76.774 369.092 76.1157M403.52 57.1493C402.298 56.491 400.34 56.4786 399.131 57.1493C397.922 57.82 397.935 58.8882 399.144 59.5589C400.353 60.2296 402.324 60.2172 403.533 59.5589C404.742 58.9006 404.729 57.82 403.52 57.1617M437.724 38.2325C436.502 37.5742 434.544 37.5618 433.335 38.2325C432.126 38.9033 432.139 39.9714 433.348 40.6422C434.557 41.3129 436.528 41.3005 437.737 40.6422C438.946 39.9839 438.933 38.9033 437.724 38.245M127.377 170.7C126.155 170.041 124.197 170.029 122.988 170.7C121.779 171.37 121.792 172.438 123.001 173.109C124.21 173.78 126.181 173.767 127.39 173.109C128.599 172.451 128.586 171.37 127.377 170.712M162.146 151.783C160.924 151.124 158.966 151.112 157.757 151.783C156.548 152.453 156.561 153.522 157.77 154.192C158.979 154.863 160.95 154.851 162.159 154.192C163.368 153.534 163.355 152.453 162.146 151.795M196.587 132.866C195.364 132.208 193.407 132.195 192.198 132.866C190.989 133.537 191.002 134.605 192.211 135.276C193.42 135.946 195.391 135.934 196.6 135.276C197.809 134.617 197.795 133.537 196.587 132.878M231.027 113.937C229.805 113.279 227.847 113.266 226.638 113.937C225.429 114.608 225.443 115.676 226.652 116.346C227.86 117.017 229.831 117.005 231.04 116.346C232.249 115.688 232.236 114.608 231.027 113.949M265.468 95.0449C264.246 94.3866 262.288 94.3742 261.079 95.0449C259.87 95.7156 259.883 96.7838 261.092 97.4545C262.301 98.1253 264.272 98.1128 265.481 97.4545C266.69 96.7962 266.677 95.7156 265.468 95.0573M299.909 76.1282C298.687 75.4699 296.729 75.4574 295.52 76.1282C294.311 76.7989 294.324 77.8671 295.533 78.5378C296.742 79.2085 298.713 79.1961 299.922 78.5378C301.131 77.8795 301.118 76.7989 299.909 76.1406M334.349 57.2114C333.127 56.5531 331.169 56.5407 329.96 57.2114C328.752 57.8821 328.765 58.9503 329.974 59.621C331.182 60.2917 333.154 60.2793 334.362 59.621C335.571 58.9627 335.558 57.8821 334.349 57.2238M368.777 38.2698C367.555 37.6115 365.597 37.5991 364.388 38.2698C363.179 38.9405 363.192 40.0087 364.401 40.6794C365.61 41.3501 367.581 41.3377 368.79 40.6794C369.999 40.0211 369.986 38.9405 368.777 38.2822M402.981 19.353C401.759 18.6947 399.801 18.6823 398.592 19.353C397.383 20.0238 397.396 21.0919 398.605 21.7627C399.814 22.4334 401.785 22.421 402.994 21.7627C404.203 21.1044 404.19 20.0238 402.981 19.3655M162.133 114.024C160.911 113.365 158.953 113.353 157.744 114.024C156.535 114.694 156.548 115.763 157.757 116.433C158.966 117.104 160.937 117.092 162.146 116.433C163.355 115.775 163.342 114.694 162.133 114.036M196.573 95.0946C195.351 94.4363 193.393 94.4239 192.185 95.0946C190.976 95.7653 190.989 96.8335 192.198 97.5042C193.407 98.1749 195.378 98.1625 196.587 97.5042C197.795 96.8459 197.782 95.7653 196.573 95.107M231.014 76.2027C229.792 75.5444 227.834 75.532 226.625 76.2027C225.416 76.8734 225.429 77.9416 226.638 78.6123C227.847 79.283 229.818 79.2706 231.027 78.6123C232.236 77.954 232.223 76.8734 231.014 76.2151M265.455 57.2859C264.233 56.6276 262.275 56.6152 261.066 57.2859C259.857 57.9566 259.87 59.0248 261.079 59.6955C262.288 60.3663 264.259 60.3538 265.468 59.6955C266.677 59.0373 266.664 57.9566 265.455 57.2983M299.895 38.3692C298.673 37.7109 296.716 37.6984 295.507 38.3692C294.298 39.0399 294.311 40.1081 295.52 40.7788C296.729 41.4495 298.7 41.4371 299.909 40.7788C301.118 40.1205 301.104 39.0399 299.895 38.3816M334.323 19.4276C333.101 18.7693 331.143 18.7568 329.934 19.4276C328.725 20.0983 328.738 21.1665 329.947 21.8372C331.156 22.5079 333.127 22.4955 334.336 21.8372C335.545 21.1789 335.532 20.0983 334.323 19.44M368.527 0.498392C367.305 -0.159906 365.347 -0.172327 364.138 0.498392C362.929 1.16911 362.943 2.23729 364.151 2.90801C365.36 3.57873 367.331 3.56631 368.54 2.90801C369.749 2.24971 369.736 1.16911 368.527 0.510813M335.453 284.188C334.231 283.529 332.273 283.517 331.064 284.188C329.855 284.858 329.868 285.927 331.077 286.597C332.286 287.268 334.257 287.256 335.466 286.597C336.675 285.939 336.662 284.858 335.453 284.2M369.67 265.271C368.448 264.613 366.49 264.6 365.282 265.271C364.073 265.942 364.086 267.01 365.295 267.681C366.504 268.351 368.475 268.339 369.684 267.681C370.892 267.022 370.879 265.942 369.67 265.283M89.8479 209.961C88.6259 209.303 86.668 209.291 85.4591 209.961C84.2502 210.632 84.2633 211.7 85.4722 212.371C86.6811 213.042 88.6522 213.029 89.8611 212.371C91.07 211.713 91.0569 210.632 89.8479 209.974M124.394 191.045C123.172 190.386 121.214 190.374 120.005 191.045C118.796 191.715 118.809 192.784 120.018 193.454C121.227 194.125 123.198 194.113 124.407 193.454C125.616 192.796 125.603 191.715 124.394 191.057M89.8479 172.128C88.6259 171.47 86.668 171.457 85.4591 172.128C84.2502 172.799 84.2633 173.867 85.4722 174.538C86.6811 175.208 88.6522 175.196 89.8611 174.538C91.07 173.879 91.0569 172.799 89.8479 172.14M55.289 191.045C54.0669 190.386 52.109 190.374 50.9001 191.045C49.6912 191.715 49.7044 192.784 50.9133 193.454C52.1222 194.125 54.0932 194.113 55.3021 193.454C56.511 192.796 56.4979 191.715 55.289 191.057M136.706 298.695C135.484 298.037 133.526 298.024 132.317 298.695C131.108 299.366 131.122 300.434 132.331 301.105C133.539 301.775 135.51 301.763 136.719 301.105C137.928 300.446 137.915 299.366 136.706 298.707M171.252 279.778C170.03 279.12 168.072 279.108 166.863 279.778C165.654 280.449 165.667 281.517 166.876 282.188C168.085 282.859 170.056 282.846 171.265 282.188C172.474 281.53 172.461 280.449 171.252 279.791M136.706 260.862C135.484 260.203 133.526 260.191 132.317 260.862C131.108 261.532 131.122 262.6 132.331 263.271C133.539 263.942 135.51 263.929 136.719 263.271C137.928 262.613 137.915 261.532 136.706 260.874M102.147 279.778C100.925 279.12 98.9673 279.108 97.7584 279.778C96.5495 280.449 96.5626 281.517 97.7715 282.188C98.9805 282.859 100.951 282.846 102.16 282.188C103.369 281.53 103.356 280.449 102.147 279.791M391.562 265.271C390.34 264.613 388.382 264.6 387.173 265.271C385.964 265.942 385.978 267.01 387.186 267.681C388.395 268.351 390.366 268.339 391.575 267.681C392.784 267.022 392.771 265.942 391.562 265.283M426.108 246.354C424.886 245.696 422.928 245.683 421.719 246.354C420.51 247.025 420.523 248.093 421.732 248.764C422.941 249.434 424.912 249.422 426.121 248.764C427.33 248.105 427.317 247.025 426.108 246.367M391.562 227.437C390.34 226.779 388.382 226.767 387.173 227.437C385.964 228.108 385.978 229.176 387.186 229.847C388.395 230.518 390.366 230.505 391.575 229.847C392.784 229.189 392.771 228.108 391.562 227.45M357.003 246.354C355.781 245.696 353.823 245.683 352.614 246.354C351.405 247.025 351.419 248.093 352.627 248.764C353.836 249.434 355.807 249.422 357.016 248.764C358.225 248.105 358.212 247.025 357.003 246.367M564.541 172.339C563.319 171.681 561.361 171.668 560.152 172.339C558.943 173.01 558.956 174.078 560.165 174.749C561.374 175.419 563.345 175.407 564.554 174.749C565.763 174.09 565.75 173.01 564.541 172.351M599.087 153.422C597.865 152.764 595.907 152.752 594.698 153.422C593.489 154.093 593.502 155.161 594.711 155.832C595.92 156.503 597.891 156.49 599.1 155.832C600.309 155.174 600.296 154.093 599.087 153.435M564.541 134.506C563.319 133.847 561.361 133.835 560.152 134.506C558.943 135.176 558.956 136.244 560.165 136.915C561.374 137.586 563.345 137.573 564.554 136.915C565.763 136.257 565.75 135.176 564.541 134.518M529.982 153.422C528.76 152.764 526.802 152.752 525.593 153.422C524.384 154.093 524.397 155.161 525.606 155.832C526.815 156.503 528.786 156.49 529.995 155.832C531.204 155.174 531.191 154.093 529.982 153.435" fill="#E5E5E5"/>
<path d="M301.236 303.092C302.458 303.75 302.458 304.831 301.249 305.489C300.04 306.148 298.082 306.16 296.86 305.489C295.638 304.818 295.638 303.75 296.847 303.08C298.056 302.409 300.014 302.421 301.236 303.08M232.026 303.092C230.804 302.434 228.846 302.421 227.637 303.092C226.428 303.763 226.441 304.831 227.65 305.502C228.859 306.172 230.83 306.16 232.039 305.502C233.248 304.843 233.235 303.763 232.026 303.104M266.348 284.188C265.126 283.529 263.168 283.517 261.959 284.188C260.751 284.858 260.764 285.927 261.973 286.597C263.182 287.268 265.153 287.256 266.361 286.597C267.57 285.939 267.557 284.858 266.348 284.2M300.684 265.271C299.462 264.613 297.504 264.6 296.295 265.271C295.086 265.942 295.099 267.01 296.308 267.681C297.517 268.351 299.488 268.339 300.697 267.681C301.906 267.022 301.893 265.942 300.684 265.283M335.453 246.354C334.231 245.696 332.273 245.683 331.064 246.354C329.855 247.025 329.868 248.093 331.077 248.764C332.286 249.434 334.257 249.422 335.466 248.764C336.675 248.105 336.662 247.025 335.453 246.367M369.894 227.437C368.672 226.779 366.714 226.767 365.505 227.437C364.296 228.108 364.309 229.176 365.518 229.847C366.727 230.518 368.698 230.505 369.907 229.847C371.116 229.189 371.103 228.108 369.894 227.45M404.334 208.508C403.112 207.85 401.155 207.837 399.946 208.508C398.737 209.179 398.75 210.247 399.959 210.918C401.168 211.589 403.139 211.576 404.348 210.918C405.557 210.26 405.543 209.179 404.334 208.521M438.775 189.616C437.553 188.958 435.595 188.946 434.386 189.616C433.177 190.287 433.191 191.355 434.399 192.026C435.608 192.697 437.579 192.684 438.788 192.026C439.997 191.368 439.984 190.287 438.775 189.629M473.216 170.7C471.994 170.041 470.036 170.029 468.827 170.7C467.618 171.37 467.631 172.438 468.84 173.109C470.049 173.78 472.02 173.767 473.229 173.109C474.438 172.451 474.425 171.37 473.216 170.712M507.657 151.783C506.435 151.124 504.477 151.112 503.268 151.783C502.059 152.453 502.072 153.522 503.281 154.192C504.49 154.863 506.461 154.851 507.67 154.192C508.879 153.534 508.865 152.453 507.657 151.795M438.985 227.413C437.763 226.754 435.805 226.742 434.597 227.413C433.388 228.083 433.401 229.151 434.61 229.822C435.819 230.493 437.79 230.48 438.999 229.822C440.207 229.164 440.194 228.083 438.985 227.425M473.426 208.521C472.204 207.862 470.246 207.85 469.037 208.521C467.828 209.191 467.841 210.26 469.05 210.93C470.259 211.601 472.23 211.589 473.439 210.93C474.648 210.272 474.635 209.191 473.426 208.533M507.867 189.604C506.645 188.946 504.687 188.933 503.478 189.604C502.269 190.275 502.282 191.343 503.491 192.013C504.7 192.684 506.671 192.672 507.88 192.013C509.089 191.355 509.076 190.275 507.867 189.616M542.308 170.687C541.085 170.029 539.128 170.016 537.919 170.687C536.71 171.358 536.723 172.426 537.932 173.097C539.141 173.767 541.112 173.755 542.321 173.097C543.53 172.438 543.516 171.358 542.308 170.7M542.084 132.841C540.862 132.183 538.904 132.17 537.695 132.841C536.486 133.512 536.5 134.58 537.708 135.251C538.917 135.922 540.888 135.909 542.097 135.251C543.306 134.592 543.293 133.512 542.084 132.854M197.598 284.188C196.376 283.529 194.418 283.517 193.209 284.188C192.001 284.858 192.014 285.927 193.223 286.597C194.432 287.268 196.403 287.256 197.611 286.597C198.82 285.939 198.807 284.858 197.598 284.2M231.921 265.271C230.699 264.613 228.741 264.6 227.532 265.271C226.323 265.942 226.336 267.01 227.545 267.681C228.754 268.351 230.725 268.339 231.934 267.681C233.143 267.022 233.13 265.942 231.921 265.283M266.256 246.354C265.034 245.696 263.076 245.683 261.867 246.354C260.659 247.025 260.672 248.093 261.881 248.764C263.09 249.434 265.061 249.422 266.269 248.764C267.478 248.105 267.465 247.025 266.256 246.367M301.026 227.437C299.803 226.779 297.846 226.767 296.637 227.437C295.428 228.108 295.441 229.176 296.65 229.847C297.859 230.518 299.83 230.505 301.039 229.847C302.248 229.189 302.234 228.108 301.026 227.45M335.466 208.521C334.244 207.862 332.286 207.85 331.077 208.521C329.868 209.191 329.882 210.26 331.091 210.93C332.299 211.601 334.27 211.589 335.479 210.93C336.688 210.272 336.675 209.191 335.466 208.533M369.907 189.591C368.685 188.933 366.727 188.921 365.518 189.591C364.309 190.262 364.322 191.33 365.531 192.001C366.74 192.672 368.711 192.659 369.92 192.001C371.129 191.343 371.116 190.262 369.907 189.604M404.348 170.7C403.126 170.041 401.168 170.029 399.959 170.7C398.75 171.37 398.763 172.438 399.972 173.109C401.181 173.78 403.152 173.767 404.361 173.109C405.57 172.451 405.557 171.37 404.348 170.712M438.788 151.783C437.566 151.124 435.608 151.112 434.399 151.783C433.191 152.453 433.204 153.522 434.413 154.192C435.622 154.863 437.593 154.851 438.801 154.192C440.01 153.534 439.997 152.453 438.788 151.795M473.229 132.866C472.007 132.208 470.049 132.195 468.84 132.866C467.631 133.537 467.644 134.605 468.853 135.276C470.062 135.946 472.033 135.934 473.242 135.276C474.451 134.617 474.438 133.537 473.229 132.878M507.657 113.924C506.435 113.266 504.477 113.254 503.268 113.924C502.059 114.595 502.072 115.663 503.281 116.334C504.49 117.005 506.461 116.992 507.67 116.334C508.879 115.676 508.865 114.595 507.657 113.937M541.861 95.0077C540.639 94.3494 538.681 94.3369 537.472 95.0077C536.263 95.6784 536.276 96.7466 537.485 97.4173C538.694 98.088 540.665 98.0756 541.874 97.4173C543.083 96.759 543.07 95.6784 541.861 95.0201M162.777 265.246C161.555 264.588 159.597 264.575 158.388 265.246C157.179 265.917 157.192 266.985 158.401 267.656C159.61 268.326 161.581 268.314 162.79 267.656C163.999 266.997 163.985 265.917 162.777 265.258M197.099 246.329C195.877 245.671 193.919 245.659 192.71 246.329C191.501 247 191.514 248.068 192.723 248.739C193.932 249.41 195.903 249.397 197.112 248.739C198.321 248.081 198.308 247 197.099 246.342M231.435 227.413C230.213 226.754 228.255 226.742 227.046 227.413C225.837 228.083 225.85 229.151 227.059 229.822C228.268 230.493 230.239 230.48 231.448 229.822C232.657 229.164 232.643 228.083 231.435 227.425M266.204 208.496C264.982 207.837 263.024 207.825 261.815 208.496C260.606 209.167 260.619 210.235 261.828 210.905C263.037 211.576 265.008 211.564 266.217 210.905C267.426 210.247 267.413 209.167 266.204 208.508M300.644 189.579C299.422 188.921 297.464 188.908 296.256 189.579C295.047 190.25 295.06 191.318 296.269 191.989C297.478 192.659 299.449 192.647 300.658 191.989C301.866 191.33 301.853 190.25 300.644 189.591M335.085 170.65C333.863 169.992 331.905 169.979 330.696 170.65C329.487 171.321 329.501 172.389 330.709 173.059C331.918 173.73 333.889 173.718 335.098 173.059C336.307 172.401 336.294 171.321 335.085 170.662M369.526 151.758C368.304 151.1 366.346 151.087 365.137 151.758C363.928 152.429 363.941 153.497 365.15 154.168C366.359 154.838 368.33 154.826 369.539 154.168C370.748 153.509 370.735 152.429 369.526 151.77M403.967 132.841C402.745 132.183 400.787 132.17 399.578 132.841C398.369 133.512 398.382 134.58 399.591 135.251C400.8 135.922 402.771 135.909 403.98 135.251C405.189 134.592 405.175 133.512 403.967 132.854M438.407 113.924C437.185 113.266 435.227 113.254 434.018 113.924C432.809 114.595 432.823 115.663 434.032 116.334C435.24 117.005 437.211 116.992 438.42 116.334C439.629 115.676 439.616 114.595 438.407 113.937M472.835 94.9828C471.613 94.3245 469.655 94.3121 468.446 94.9828C467.237 95.6535 467.25 96.7217 468.459 97.3924C469.668 98.0631 471.639 98.0507 472.848 97.3924C474.057 96.7341 474.044 95.6535 472.835 94.9952M507.039 76.0661C505.817 75.4078 503.859 75.3953 502.65 76.0661C501.441 76.7368 501.454 77.805 502.663 78.4757C503.872 79.1464 505.843 79.134 507.052 78.4757C508.261 77.8174 508.248 76.7368 507.039 76.0785M128.218 246.391C126.996 245.733 125.038 245.721 123.829 246.391C122.62 247.062 122.633 248.13 123.842 248.801C125.051 249.472 127.022 249.459 128.231 248.801C129.44 248.143 129.426 247.062 128.218 246.404M162.54 227.487C161.318 226.829 159.36 226.816 158.151 227.487C156.942 228.158 156.955 229.226 158.164 229.897C159.373 230.567 161.344 230.555 162.553 229.897C163.762 229.238 163.749 228.158 162.54 227.5M196.876 208.57C195.654 207.912 193.696 207.9 192.487 208.57C191.278 209.241 191.291 210.309 192.5 210.98C193.709 211.651 195.68 211.638 196.889 210.98C198.098 210.322 198.085 209.241 196.876 208.583M231.645 189.654C230.423 188.995 228.465 188.983 227.256 189.654C226.047 190.324 226.06 191.392 227.269 192.063C228.478 192.734 230.449 192.721 231.658 192.063C232.867 191.405 232.854 190.324 231.645 189.666M266.085 170.737C264.863 170.078 262.906 170.066 261.697 170.737C260.488 171.408 260.501 172.476 261.71 173.146C262.919 173.817 264.89 173.805 266.099 173.146C267.308 172.488 267.294 171.408 266.085 170.749M300.526 151.808C299.304 151.149 297.346 151.137 296.137 151.808C294.928 152.478 294.942 153.547 296.15 154.217C297.359 154.888 299.33 154.876 300.539 154.217C301.748 153.559 301.735 152.478 300.526 151.82M334.967 132.916C333.745 132.257 331.787 132.245 330.578 132.916C329.369 133.586 329.382 134.655 330.591 135.325C331.8 135.996 333.771 135.984 334.98 135.325C336.189 134.667 336.176 133.586 334.967 132.928M369.408 113.999C368.186 113.341 366.228 113.328 365.019 113.999C363.81 114.67 363.823 115.738 365.032 116.409C366.241 117.079 368.212 117.067 369.421 116.409C370.63 115.75 370.616 114.67 369.408 114.011M403.848 95.0822C402.626 94.4239 400.668 94.4115 399.459 95.0822C398.251 95.7529 398.264 96.8211 399.473 97.4918C400.681 98.1625 402.653 98.1501 403.861 97.4918C405.07 96.8335 405.057 95.7529 403.848 95.0946M438.276 76.1406C437.054 75.4823 435.096 75.4699 433.887 76.1406C432.678 76.8113 432.691 77.8795 433.9 78.5502C435.109 79.2209 437.08 79.2085 438.289 78.5502C439.498 77.8919 439.485 76.8113 438.276 76.153M472.48 57.2114C471.258 56.5531 469.3 56.5407 468.091 57.2114C466.882 57.8821 466.895 58.9503 468.104 59.621C469.313 60.2917 471.284 60.2793 472.493 59.621C473.702 58.9627 473.689 57.8821 472.48 57.2238M93.4484 227.413C92.2263 226.754 90.2684 226.742 89.0595 227.413C87.8506 228.083 87.8638 229.151 89.0727 229.822C90.2816 230.493 92.2526 230.48 93.4615 229.822C94.6704 229.164 94.6573 228.083 93.4484 227.425M127.784 208.496C126.562 207.837 124.604 207.825 123.395 208.496C122.186 209.167 122.199 210.235 123.408 210.905C124.617 211.576 126.588 211.564 127.797 210.905C129.006 210.247 128.993 209.167 127.784 208.508M162.106 189.579C160.884 188.921 158.926 188.908 157.718 189.579C156.509 190.25 156.522 191.318 157.731 191.989C158.94 192.659 160.911 192.647 162.12 191.989C163.328 191.33 163.315 190.25 162.106 189.591M196.889 170.662C195.667 170.004 193.709 169.992 192.5 170.662C191.291 171.333 191.304 172.401 192.513 173.072C193.722 173.743 195.693 173.73 196.902 173.072C198.111 172.414 198.098 171.333 196.889 170.675M231.329 151.745C230.107 151.087 228.149 151.075 226.941 151.745C225.732 152.416 225.745 153.484 226.954 154.155C228.163 154.826 230.134 154.813 231.343 154.155C232.551 153.497 232.538 152.416 231.329 151.758M265.77 132.816C264.548 132.158 262.59 132.146 261.381 132.816C260.172 133.487 260.186 134.555 261.394 135.226C262.603 135.897 264.574 135.884 265.783 135.226C266.992 134.568 266.979 133.487 265.77 132.829M300.211 113.924C298.989 113.266 297.031 113.254 295.822 113.924C294.613 114.595 294.626 115.663 295.835 116.334C297.044 117.005 299.015 116.992 300.224 116.334C301.433 115.676 301.42 114.595 300.211 113.937M334.652 95.0077C333.429 94.3494 331.472 94.3369 330.263 95.0077C329.054 95.6784 329.067 96.7466 330.276 97.4173C331.485 98.088 333.456 98.0756 334.665 97.4173C335.874 96.759 335.86 95.6784 334.652 95.0201M369.092 76.1033C367.87 75.445 365.912 75.4326 364.703 76.1033C363.494 76.774 363.508 77.8422 364.716 78.5129C365.925 79.1836 367.896 79.1712 369.105 78.5129C370.314 77.8546 370.301 76.774 369.092 76.1157M403.52 57.1493C402.298 56.491 400.34 56.4786 399.131 57.1493C397.922 57.82 397.935 58.8882 399.144 59.5589C400.353 60.2296 402.324 60.2172 403.533 59.5589C404.742 58.9006 404.729 57.82 403.52 57.1617M437.724 38.2325C436.502 37.5742 434.544 37.5618 433.335 38.2325C432.126 38.9033 432.139 39.9714 433.348 40.6422C434.557 41.3129 436.528 41.3005 437.737 40.6422C438.946 39.9839 438.933 38.9033 437.724 38.245M127.377 170.7C126.155 170.041 124.197 170.029 122.988 170.7C121.779 171.37 121.792 172.438 123.001 173.109C124.21 173.78 126.181 173.767 127.39 173.109C128.599 172.451 128.586 171.37 127.377 170.712M162.146 151.783C160.924 151.124 158.966 151.112 157.757 151.783C156.548 152.453 156.561 153.522 157.77 154.192C158.979 154.863 160.95 154.851 162.159 154.192C163.368 153.534 163.355 152.453 162.146 151.795M196.587 132.866C195.364 132.208 193.407 132.195 192.198 132.866C190.989 133.537 191.002 134.605 192.211 135.276C193.42 135.946 195.391 135.934 196.6 135.276C197.809 134.617 197.795 133.537 196.587 132.878M231.027 113.937C229.805 113.279 227.847 113.266 226.638 113.937C225.429 114.608 225.443 115.676 226.652 116.346C227.86 117.017 229.831 117.005 231.04 116.346C232.249 115.688 232.236 114.608 231.027 113.949M265.468 95.0449C264.246 94.3866 262.288 94.3742 261.079 95.0449C259.87 95.7156 259.883 96.7838 261.092 97.4545C262.301 98.1253 264.272 98.1128 265.481 97.4545C266.69 96.7962 266.677 95.7156 265.468 95.0573M299.909 76.1282C298.687 75.4699 296.729 75.4574 295.52 76.1282C294.311 76.7989 294.324 77.8671 295.533 78.5378C296.742 79.2085 298.713 79.1961 299.922 78.5378C301.131 77.8795 301.118 76.7989 299.909 76.1406M334.349 57.2114C333.127 56.5531 331.169 56.5407 329.96 57.2114C328.752 57.8821 328.765 58.9503 329.974 59.621C331.182 60.2917 333.154 60.2793 334.362 59.621C335.571 58.9627 335.558 57.8821 334.349 57.2238M368.777 38.2698C367.555 37.6115 365.597 37.5991 364.388 38.2698C363.179 38.9405 363.192 40.0087 364.401 40.6794C365.61 41.3501 367.581 41.3377 368.79 40.6794C369.999 40.0211 369.986 38.9405 368.777 38.2822M402.981 19.353C401.759 18.6947 399.801 18.6823 398.592 19.353C397.383 20.0238 397.396 21.0919 398.605 21.7627C399.814 22.4334 401.785 22.421 402.994 21.7627C404.203 21.1044 404.19 20.0238 402.981 19.3655M162.133 114.024C160.911 113.365 158.953 113.353 157.744 114.024C156.535 114.694 156.548 115.763 157.757 116.433C158.966 117.104 160.937 117.092 162.146 116.433C163.355 115.775 163.342 114.694 162.133 114.036M196.573 95.0946C195.351 94.4363 193.393 94.4239 192.185 95.0946C190.976 95.7653 190.989 96.8335 192.198 97.5042C193.407 98.1749 195.378 98.1625 196.587 97.5042C197.795 96.8459 197.782 95.7653 196.573 95.107M231.014 76.2027C229.792 75.5444 227.834 75.532 226.625 76.2027C225.416 76.8734 225.429 77.9416 226.638 78.6123C227.847 79.283 229.818 79.2706 231.027 78.6123C232.236 77.954 232.223 76.8734 231.014 76.2151M265.455 57.2859C264.233 56.6276 262.275 56.6152 261.066 57.2859C259.857 57.9566 259.87 59.0248 261.079 59.6955C262.288 60.3663 264.259 60.3538 265.468 59.6955C266.677 59.0373 266.664 57.9566 265.455 57.2983M299.895 38.3692C298.673 37.7109 296.716 37.6984 295.507 38.3692C294.298 39.0399 294.311 40.1081 295.52 40.7788C296.729 41.4495 298.7 41.4371 299.909 40.7788C301.118 40.1205 301.104 39.0399 299.895 38.3816M334.323 19.4276C333.101 18.7693 331.143 18.7568 329.934 19.4276C328.725 20.0983 328.738 21.1665 329.947 21.8372C331.156 22.5079 333.127 22.4955 334.336 21.8372C335.545 21.1789 335.532 20.0983 334.323 19.44M368.527 0.498392C367.305 -0.159906 365.347 -0.172327 364.138 0.498392C362.929 1.16911 362.943 2.23729 364.151 2.90801C365.36 3.57873 367.331 3.56631 368.54 2.90801C369.749 2.24971 369.736 1.16911 368.527 0.510813M335.453 284.188C334.231 283.529 332.273 283.517 331.064 284.188C329.855 284.858 329.868 285.927 331.077 286.597C332.286 287.268 334.257 287.256 335.466 286.597C336.675 285.939 336.662 284.858 335.453 284.2M369.67 265.271C368.448 264.613 366.49 264.6 365.282 265.271C364.073 265.942 364.086 267.01 365.295 267.681C366.504 268.351 368.475 268.339 369.684 267.681C370.892 267.022 370.879 265.942 369.67 265.283M89.8479 209.961C88.6259 209.303 86.668 209.291 85.4591 209.961C84.2502 210.632 84.2633 211.7 85.4722 212.371C86.6811 213.042 88.6522 213.029 89.8611 212.371C91.07 211.713 91.0569 210.632 89.8479 209.974M124.394 191.045C123.172 190.386 121.214 190.374 120.005 191.045C118.796 191.715 118.809 192.784 120.018 193.454C121.227 194.125 123.198 194.113 124.407 193.454C125.616 192.796 125.603 191.715 124.394 191.057M89.8479 172.128C88.6259 171.47 86.668 171.457 85.4591 172.128C84.2502 172.799 84.2633 173.867 85.4722 174.538C86.6811 175.208 88.6522 175.196 89.8611 174.538C91.07 173.879 91.0569 172.799 89.8479 172.14M55.289 191.045C54.0669 190.386 52.109 190.374 50.9001 191.045C49.6912 191.715 49.7044 192.784 50.9133 193.454C52.1222 194.125 54.0932 194.113 55.3021 193.454C56.511 192.796 56.4979 191.715 55.289 191.057M136.706 298.695C135.484 298.037 133.526 298.024 132.317 298.695C131.108 299.366 131.122 300.434 132.331 301.105C133.539 301.775 135.51 301.763 136.719 301.105C137.928 300.446 137.915 299.366 136.706 298.707M171.252 279.778C170.03 279.12 168.072 279.108 166.863 279.778C165.654 280.449 165.667 281.517 166.876 282.188C168.085 282.859 170.056 282.846 171.265 282.188C172.474 281.53 172.461 280.449 171.252 279.791M136.706 260.862C135.484 260.203 133.526 260.191 132.317 260.862C131.108 261.532 131.122 262.6 132.331 263.271C133.539 263.942 135.51 263.929 136.719 263.271C137.928 262.613 137.915 261.532 136.706 260.874M102.147 279.778C100.925 279.12 98.9673 279.108 97.7584 279.778C96.5495 280.449 96.5626 281.517 97.7715 282.188C98.9805 282.859 100.951 282.846 102.16 282.188C103.369 281.53 103.356 280.449 102.147 279.791M391.562 265.271C390.34 264.613 388.382 264.6 387.173 265.271C385.964 265.942 385.978 267.01 387.186 267.681C388.395 268.351 390.366 268.339 391.575 267.681C392.784 267.022 392.771 265.942 391.562 265.283M426.108 246.354C424.886 245.696 422.928 245.683 421.719 246.354C420.51 247.025 420.523 248.093 421.732 248.764C422.941 249.434 424.912 249.422 426.121 248.764C427.33 248.105 427.317 247.025 426.108 246.367M391.562 227.437C390.34 226.779 388.382 226.767 387.173 227.437C385.964 228.108 385.978 229.176 387.186 229.847C388.395 230.518 390.366 230.505 391.575 229.847C392.784 229.189 392.771 228.108 391.562 227.45M357.003 246.354C355.781 245.696 353.823 245.683 352.614 246.354C351.405 247.025 351.419 248.093 352.627 248.764C353.836 249.434 355.807 249.422 357.016 248.764C358.225 248.105 358.212 247.025 357.003 246.367M564.541 172.339C563.319 171.681 561.361 171.668 560.152 172.339C558.943 173.01 558.956 174.078 560.165 174.749C561.374 175.419 563.345 175.407 564.554 174.749C565.763 174.09 565.75 173.01 564.541 172.351M599.087 153.422C597.865 152.764 595.907 152.752 594.698 153.422C593.489 154.093 593.502 155.161 594.711 155.832C595.92 156.503 597.891 156.49 599.1 155.832C600.309 155.174 600.296 154.093 599.087 153.435M564.541 134.506C563.319 133.847 561.361 133.835 560.152 134.506C558.943 135.176 558.956 136.244 560.165 136.915C561.374 137.586 563.345 137.573 564.554 136.915C565.763 136.257 565.75 135.176 564.541 134.518M529.982 153.422C528.76 152.764 526.802 152.752 525.593 153.422C524.384 154.093 524.397 155.161 525.606 155.832C526.815 156.503 528.786 156.49 529.995 155.832C531.204 155.174 531.191 154.093 529.982 153.435" fill="url(#paint1_linear_52_502)"/>
</g>
<g clip-path="url(#clip0_52_502)">
<path d="M400.065 120.968L404.566 193.874C404.885 199.042 403.571 202.57 400.626 204.493C397.715 206.414 393.909 206.231 389.239 203.908C384.57 201.585 380.582 197.897 377.204 192.813C373.829 187.764 371.981 182.656 371.662 177.488L368.286 122.79L318.932 98.2276C314.297 95.9025 310.274 92.2165 306.898 87.1676C303.521 82.084 301.674 76.9755 301.355 71.8076C301.036 66.6396 302.35 63.1113 305.295 61.1887L306.204 60.6799C309.01 59.323 312.515 59.6985 316.681 61.774L382.488 94.548C387.158 96.8709 391.181 100.557 394.521 105.608C397.899 110.691 399.746 115.8 400.065 120.968Z" fill="#D1AE6C" stroke="#221891" stroke-width="3.47504"/>
<path d="M281.955 274.175C282.274 279.343 280.995 282.869 278.05 284.792C275.105 286.714 271.298 286.531 266.629 284.208L200.856 251.433C196.187 249.11 192.164 245.424 188.789 240.375C185.411 235.291 183.599 230.181 183.28 225.013L178.779 152.106C178.46 146.938 179.739 143.412 182.685 141.49L183.593 140.981C186.399 139.624 189.904 139.999 194.106 142.073C198.74 144.398 202.763 148.084 206.141 153.168C209.516 158.216 211.364 163.325 211.683 168.493L215.059 223.19L264.379 247.755C269.048 250.078 273.071 253.764 276.446 258.813C279.824 263.897 281.636 269.007 281.955 274.175Z" fill="#D1AE6C" stroke="#221891" stroke-width="3.47504"/>
<path d="M278.911 129.526L282.287 184.223L215.06 223.19L211.683 168.492C211.364 163.325 209.516 158.216 206.141 153.167C202.763 148.084 198.741 144.398 194.106 142.072C189.904 139.999 186.399 139.624 183.593 140.981L249.913 102.523C252.858 100.6 256.664 100.783 261.334 103.106C265.968 105.431 269.991 109.117 273.369 114.201C276.744 119.25 278.592 124.358 278.911 129.526Z" fill="#D1AE6C" stroke="#221891" stroke-width="3.47504"/>
<path d="M349.183 235.209C349.502 240.377 348.223 243.903 345.278 245.825L344.369 246.334L278.05 284.792C280.995 282.869 282.275 279.343 281.956 274.175C281.637 269.007 279.824 263.896 276.447 258.813C273.071 253.764 269.048 250.078 264.379 247.755L215.06 223.19L282.287 184.223L331.606 208.789C336.276 211.112 340.299 214.797 343.674 219.846C347.052 224.93 348.864 230.041 349.183 235.209Z" fill="#D1AE6C" stroke="#221891" stroke-width="3.47504"/>
<path d="M467.293 82.0011L471.793 154.908C472.112 160.076 470.798 163.604 467.853 165.526L466.944 166.035L400.625 204.493C403.57 202.57 404.885 199.042 404.566 193.874L400.065 120.968C399.746 115.8 397.899 110.691 394.521 105.608C391.18 100.556 387.158 96.8705 382.488 94.5475L316.681 61.7739C312.514 59.6984 309.009 59.3229 306.203 60.6799L372.522 22.222C375.467 20.2994 379.274 20.4822 383.908 22.8073L449.716 55.5811C454.385 57.904 458.408 61.59 461.749 66.6411C465.126 71.7247 466.974 76.8331 467.293 82.0011Z" fill="#D1AE6C" stroke="#221891" stroke-width="3.47504"/>
</g>
<defs>
<linearGradient id="paint0_linear_52_502" x1="53.1078" y1="152.963" x2="582.173" y2="168.348" gradientUnits="userSpaceOnUse">
<stop stop-color="#00D7E5"/>
<stop offset="0.52819" stop-color="#369AF3"/>
<stop offset="1" stop-color="#6764FF"/>
</linearGradient>
<linearGradient id="paint1_linear_52_502" x1="50" y1="153" x2="585.099" y2="168.567" gradientUnits="userSpaceOnUse">
<stop stop-color="#00D7E5"/>
<stop offset="0.52819" stop-color="#369AF3"/>
<stop offset="1" stop-color="#6764FF"/>
</linearGradient>
<clipPath id="clip0_52_502">
<rect width="309.278" height="274.528" fill="white" transform="translate(162 25.2605) rotate(-3.53238)"/>
</clipPath>
</defs>
</svg>
