<svg width="146" height="19" viewBox="0 0 146 19" fill="none" xmlns="http://www.w3.org/2000/svg">
<mask id="mask0_239_1223" style="mask-type:luminance" maskUnits="userSpaceOnUse" x="1" y="1" width="144" height="18">
<path d="M1.5 1.11194H144.633V18.4449H1.5V1.11194Z" fill="white"/>
</mask>
<g mask="url(#mask0_239_1223)">
<path d="M94.2002 17.7756H90.2854V1.80372L102.874 1.81251C102.874 1.81251 105.179 1.72714 106.645 3.17605C106.645 3.17605 108.142 4.42532 108.142 7.48009V17.7744H104.237V7.21391C104.237 7.21391 104.286 6.13665 103.918 5.75747C103.918 5.75747 103.594 5.34816 102.977 5.34816H94.1901L94.1989 17.7706V17.7769L94.2002 17.7756ZM110.861 17.7744V1.81377H126.57V5.36448H114.752V8.07648H122.962V11.5054H114.751V14.2287H126.644V17.7794H110.853L110.861 17.7744ZM83.4652 17.7744V1.81377H87.3624V17.7794H83.4652V17.7744ZM132.181 17.7744V5.3582H128.501V1.81H143.135V5.35946H136.081V17.7744H132.181ZM70.592 17.7744V5.3582H66.9132V1.81H81.5467V5.35946H74.4917V17.7744H70.592ZM58.8387 8.06644C59.7904 8.0589 60.3604 8.06644 60.5902 7.92832C60.5902 7.92832 60.9907 7.70609 60.9945 7.23149L60.9958 6.18687C60.9958 5.70976 60.5902 5.49129 60.5902 5.49129C60.2864 5.32556 59.7716 5.35695 58.5499 5.35569H50.9563V8.06644H59.0132H58.8387ZM60.938 17.7744V12.3253C60.938 11.8356 60.5287 11.631 60.5287 11.631C60.3441 11.5154 59.7917 11.4954 58.9781 11.4954H59.1664H50.9551V17.7731H47.0578V1.81251H59.2242C61.326 1.82005 62.7774 2.12891 63.7756 3.09946C64.7574 4.09888 64.888 5.40717 64.893 6.76945V7.90572C64.9056 9.06335 64.2979 10.118 63.5722 10.7332L63.7191 10.8048C64.0141 10.9479 64.1761 11.1513 64.1761 11.1513C64.7285 11.8557 64.721 12.4621 64.7197 13.2067V17.7769H60.9393L60.938 17.7744ZM1.9972 1.80875V17.7694H5.89445V11.4966H17.7029V8.06769H5.89445V5.35569H19.6202V1.80498H1.99469L1.9972 1.80875ZM141.82 14.9506V15.6839H142.501C142.686 15.6839 142.866 15.6337 142.893 15.3587C142.932 14.9946 142.668 14.9506 142.501 14.9506H141.82ZM141.545 14.7096H142.495C142.825 14.7096 143.144 14.7724 143.172 15.252C143.183 15.5282 143.1 15.6274 142.892 15.7843C143.112 15.925 143.117 15.9576 143.151 16.3267C143.172 16.6067 143.133 16.6519 143.251 16.8365H142.927L142.882 16.5678C142.837 16.3154 142.96 15.925 142.519 15.925H141.818V16.8365H141.545V14.7096ZM142.26 14.1232C141.321 14.1232 140.555 14.8891 140.562 15.8346C140.563 16.1724 140.664 16.5023 140.852 16.7826C141.041 17.0629 141.308 17.281 141.621 17.4093C141.933 17.5375 142.277 17.5702 142.608 17.5031C142.939 17.436 143.243 17.2723 143.481 17.0325C143.719 16.7927 143.881 16.4878 143.945 16.1562C144.01 15.8246 143.975 15.4813 143.844 15.1697C143.714 14.8581 143.493 14.5922 143.212 14.4057C142.93 14.2192 142.599 14.1205 142.262 14.122L142.26 14.1232ZM142.267 17.7581C141.199 17.7581 140.337 16.8968 140.337 15.8295C140.336 15.5759 140.386 15.3247 140.483 15.0903C140.579 14.8558 140.722 14.6428 140.901 14.4634C141.08 14.284 141.293 14.1418 141.527 14.0448C141.762 13.9479 142.013 13.8982 142.267 13.8985C143.33 13.8985 144.198 14.7648 144.198 15.8295C144.198 16.8968 143.33 17.7543 142.267 17.7581ZM41.6991 17.9326C42.9647 17.5032 43.9503 16.0442 44.1876 14.2111V13.6813H37.6964V17.9326H41.6991ZM44.1889 5.88554V5.40591C43.9378 3.4937 42.8806 1.98578 41.5309 1.63171H37.6977V5.88554H44.1889ZM21.3415 13.6825V14.2074C21.5776 16.0417 22.5619 17.5032 23.8326 17.9326H27.8139V13.6825H21.3415ZM23.9996 1.63297C22.6523 1.98829 21.5901 3.49621 21.3428 5.41219V5.88805H27.8152V1.63548H23.9996V1.63297ZM44.1939 7.65838H37.7027V11.9122H44.1939V7.65964V7.65838ZM29.5868 17.9351H35.9374V13.6838H29.5868V17.9351ZM35.9361 1.63171H29.5868V5.88428H35.9374L35.9361 1.63171ZM21.3466 11.9072H27.8202V7.65336H21.3478V11.9072H21.3466Z" fill="#D6D7DA"/>
</g>
</svg>
