<svg width="210" height="243" viewBox="0 0 210 243" fill="none" xmlns="http://www.w3.org/2000/svg">
<g clip-path="url(#clip0_233_484)">
<path opacity="0.18" d="M75.4919 45.7178C71.6895 54.9103 70.886 65.3462 65.6349 73.7845C57.6689 86.5888 41.7573 91.5377 30.131 101.097C18.5737 110.608 11.2327 125.605 12.3852 140.57C13.5377 155.535 23.8776 169.786 38.1984 174.058C43.1614 175.542 48.5464 175.913 53.0144 178.542C62.9769 184.404 64.4824 198.815 73.402 206.177C81.3801 212.76 93.1079 211.945 102.977 208.912C112.846 205.879 122.33 200.955 132.633 200.331C138.777 199.96 144.958 201.146 151.077 200.507C158.877 199.691 166.043 195.965 172.901 192.142C184.828 185.489 197.655 176.594 199.64 163.035C201.912 147.414 188.553 133.248 188.764 117.46C188.862 110.122 191.93 103.058 192.214 95.7079C192.619 85.5697 187.214 75.407 178.619 70.083C171.587 65.7212 163.016 64.5961 155.667 60.8009C145.704 55.6563 138.85 46.1255 130.397 38.7552C115.103 25.4209 84.3547 24.2754 75.4919 45.7178Z" fill="#221891"/>
<path d="M140.352 92.4346C141.634 90.5961 144.333 90.2904 146.439 91.0527C148.545 91.815 150.233 93.3885 151.982 94.7868C153.731 96.185 155.744 97.4813 157.98 97.518C158.873 97.518 159.778 97.3386 160.658 97.4935C161.468 97.6651 162.194 98.1136 162.712 98.7625C163.23 99.4114 163.508 100.221 163.499 101.052C157.078 100.683 150.644 101.512 144.523 103.498C141.508 104.477 138.031 105.687 135.364 103.951C134.37 103.298 133.603 102.279 132.491 101.868C130.198 101.02 127.622 103.091 125.296 102.312C124.294 101.97 123.547 101.146 122.663 100.555C119.737 98.6024 115.675 99.4299 112.582 97.7544C112.32 97.6415 112.084 97.4742 111.891 97.2635C111.697 97.0527 111.55 96.8033 111.458 96.5315C111.296 95.757 111.978 95.015 112.737 94.7908C113.496 94.5666 114.303 94.6971 115.09 94.7541C117.111 94.8895 119.132 94.4844 120.946 93.5801C121.709 93.1969 122.5 92.7118 123.344 92.8341C125.02 93.0746 126.254 95.5735 127.76 94.8071C126.66 95.3656 127.07 91.6478 127.265 91.2891C127.898 90.1436 129.959 89.3365 131.148 89.0307C134.516 88.1543 138.44 89.4628 140.352 92.4346Z" fill="#221891"/>
<path d="M140.352 92.4346C141.634 90.5961 144.333 90.2904 146.439 91.0527C148.545 91.815 150.233 93.3885 151.982 94.7868C153.731 96.185 155.744 97.4813 157.98 97.518C158.873 97.518 159.778 97.3386 160.658 97.4935C161.468 97.6651 162.194 98.1136 162.712 98.7625C163.23 99.4114 163.508 100.221 163.499 101.052C157.078 100.683 150.644 101.512 144.523 103.498C141.508 104.477 138.031 105.687 135.364 103.951C134.37 103.298 133.603 102.279 132.491 101.868C130.198 101.02 127.622 103.091 125.296 102.312C124.294 101.97 123.547 101.146 122.663 100.555C119.737 98.6024 115.675 99.4299 112.582 97.7544C112.32 97.6415 112.084 97.4742 111.891 97.2635C111.697 97.0527 111.55 96.8033 111.458 96.5315C111.296 95.757 111.978 95.015 112.737 94.7908C113.496 94.5666 114.303 94.6971 115.09 94.7541C117.111 94.8895 119.132 94.4844 120.946 93.5801C121.709 93.1969 122.5 92.7118 123.344 92.8341C125.02 93.0746 126.254 95.5735 127.76 94.8071C126.66 95.3656 127.07 91.6478 127.265 91.2891C127.898 90.1436 129.959 89.3365 131.148 89.0307C134.516 88.1543 138.44 89.4628 140.352 92.4346Z" fill="url(#paint0_linear_233_484)"/>
<path d="M116.973 0L73.4994 46.5251H93.5421V92.3001H137.677V46.15H156.693L116.973 0ZM21.1708 88.9696L47.9986 59.3905L75.711 88.3907H58.6916V125.735H35.0656V88.9696H21.1708ZM155.46 73.9314L182.288 44.3523L210 73.3525H192.981V110.697H169.355V73.9314H155.46Z" fill="#221891"/>
<path d="M110.57 129.429C110.57 129.429 110.602 165.918 108.987 169.334C107.717 172.02 96.6059 175.974 91.9189 177.544C90.6487 177.972 89.8452 178.22 89.8452 178.22L90.7461 160.806C90.3773 163.163 89.7988 165.482 89.0174 167.736C87.9258 170.716 86.2822 173.365 83.9773 172.628C79.136 171.083 77.7725 170.182 77.7725 170.182L75.711 162.844C75.711 162.844 83.4619 159.33 83.608 155.062C83.7541 150.794 86.2335 138.018 92.9659 135.197L94.3537 134.614L99.6982 132.376C99.6982 132.376 104.162 118.545 103.196 106.935C102.23 95.3249 103.196 93.5842 103.196 93.5842H109.997C109.997 93.5842 110.452 105.475 110.57 108.794C110.687 112.112 110.57 129.429 110.57 129.429Z" fill="#3F3D56"/>
<path d="M105.542 123.074C104.791 126.094 103.606 128.985 102.425 131.863C101.816 133.086 101.451 135.76 100.209 136.551C98.8865 137.394 96.4477 135.601 95.2018 135.038C94.9218 134.908 94.6337 134.773 94.3537 134.631L99.6981 132.393C99.6981 132.393 104.162 118.561 103.196 106.951C102.23 95.3412 103.196 93.6006 103.196 93.6006H103.886C103.996 93.6546 104.098 93.7231 104.19 93.8044C104.86 94.3792 104.957 95.3657 105.002 96.2503C105.156 98.794 105.306 101.37 104.815 103.869C104.513 105.038 104.273 106.222 104.097 107.416C103.992 108.618 104.203 109.915 104.998 110.82C105.371 111.227 105.866 111.57 106.134 112.067C106.341 112.508 106.446 112.99 106.439 113.478C106.618 116.703 106.315 119.938 105.542 123.074ZM94.0169 173.867C93.6822 174.409 93.4099 174.987 93.2053 175.591C93.1501 175.872 93.0644 176.145 92.9496 176.406C92.8286 176.615 92.6767 176.803 92.4992 176.965L91.9148 177.56C90.6446 177.988 89.8411 178.237 89.8411 178.237L90.742 160.822C90.3733 163.179 89.7947 165.499 89.0133 167.752C89.3177 164.719 90.3443 160.321 90.3849 158.539C90.4541 155.984 90.8958 153.453 91.6957 151.026C92.349 151.487 92.5641 152.343 92.6858 153.13C93.1647 156.187 93.0024 159.359 93.9033 162.318C94.4917 164.254 95.5265 166.089 95.6604 168.115C95.7943 170.141 94.9908 172.094 94.0169 173.867Z" fill="#25233A"/>
<path d="M93.4082 164.148L90.109 167.332C89.9385 167.497 89.719 167.601 89.4841 167.63L69.628 170.075C69.3738 170.109 69.116 170.051 68.9005 169.911C68.6851 169.771 68.5258 169.56 68.4512 169.313L63.894 154.414C63.8479 154.259 63.8359 154.097 63.8588 153.937C63.8818 153.778 63.9392 153.626 64.0269 153.491C64.1147 153.356 64.2307 153.242 64.3669 153.157C64.503 153.072 64.656 153.018 64.8152 152.999L83.2387 150.891C83.4914 150.862 83.7463 150.923 83.9591 151.063C84.1719 151.203 84.3291 151.413 84.4034 151.658L87.4104 161.486C87.5484 161.947 87.662 162.261 87.662 162.261H92.6615C92.8785 162.263 93.0899 162.329 93.2689 162.453C93.4479 162.576 93.5863 162.75 93.6665 162.952C93.7466 163.155 93.7648 163.377 93.7188 163.59C93.6728 163.803 93.5647 163.997 93.4082 164.148Z" fill="#221891"/>
<path d="M102.953 90.3924C102.927 90.2611 102.934 90.1256 102.971 89.9973C103.009 89.8689 103.076 89.7514 103.168 89.6545C103.273 89.5885 103.397 89.5576 103.521 89.5664C103.645 89.5752 103.763 89.6232 103.858 89.7034C104.049 89.8639 104.202 90.066 104.304 90.2945L104.836 91.2606C104.959 91.5296 105.141 91.7677 105.367 91.9577C105.753 92.1698 106.198 92.2499 106.633 92.186L108.8 92.0923C108.893 92.0817 108.987 92.0972 109.072 92.1371C109.13 92.1864 109.174 92.2499 109.199 92.3214C109.225 92.3929 109.231 92.4699 109.218 92.5447C109.21 92.899 109.125 93.247 108.967 93.5639L106.532 93.6536C105.862 93.678 104.815 93.9226 104.178 93.7188C103.212 93.3967 102.997 91.2566 102.953 90.3924Z" fill="url(#paint1_linear_233_484)"/>
<path d="M109.77 209.878C109.543 211.252 107.335 217.599 107.335 217.599L105.672 216.515L103.492 215.096C103.492 215.096 107.457 196.874 107.104 195.011C106.751 193.148 103.992 188.334 103.992 188.334L102.101 232.185L97.2309 234.072C97.2309 234.072 89.3907 186.761 89.833 178.224L108.975 169.338C108.975 169.338 114.656 186.137 115.338 189.688C116.02 193.238 110.002 208.505 109.77 209.878Z" fill="#221891"/>
<path d="M102.624 219.972L111.146 225.377C111.146 225.377 112.148 223.722 110.566 221.635C108.983 219.548 107.319 217.599 107.319 217.599L103.468 215.096L102.624 219.972ZM97.243 234.073C97.243 234.073 94.512 239.221 95.5346 241.965C96.5572 244.708 98.8663 241.353 100.205 239.335C101.342 237.615 102.616 234.073 102.616 234.073L102.101 232.185L97.243 234.073Z" fill="#3F3D56"/>
<path d="M111.45 192.549L105.672 216.515L103.492 215.096C103.492 215.096 107.457 196.875 107.104 195.012C106.751 193.149 103.992 188.334 103.992 188.334C103.992 188.334 106.24 184.331 107.039 185.187C107.839 186.043 111.45 192.549 111.45 192.549Z" fill="url(#paint2_linear_233_484)"/>
<path d="M93.1282 176.696L98.2494 233.681L97.2431 234.089C97.2431 234.089 89.4151 186.561 89.8452 178.241L93.1282 176.696Z" fill="url(#paint3_linear_233_484)"/>
<path d="M92.6534 162.245L88.8104 165.807L87.4104 161.486C87.5483 161.947 87.662 162.261 87.662 162.261L92.6534 162.245Z" fill="url(#paint4_linear_233_484)"/>
<path d="M63.894 154.43L82.1999 152.42C82.51 152.386 82.8226 152.459 83.0864 152.626C83.3503 152.793 83.5499 153.046 83.6526 153.342L88.6887 167.728L69.6158 170.092L63.894 154.43Z" fill="url(#paint5_linear_233_484)"/>
<path d="M99.0773 128.781C98.6066 129.832 99.6982 132.392 99.6982 132.392C99.6982 132.392 100.879 134.663 100.481 136.954C100.481 137.064 100.437 137.178 100.412 137.288C99.8199 139.689 92.2314 137.15 92.4627 133.795C92.694 130.44 89.0012 121.887 89.0012 121.887C91.1682 112.279 98.2697 115.324 98.9028 115.838C99.5359 116.351 101.898 123.946 101.252 125.67C101.069 126.17 100.804 126.636 100.469 127.048C99.9417 127.717 99.3857 128.092 99.0773 128.781Z" fill="url(#paint6_linear_233_484)"/>
<path d="M98.9028 115.846C98.9028 115.846 99.966 113.188 98.9028 112.242C97.8396 111.296 96.0621 111.044 94.0534 110.958C92.0447 110.872 91.4157 110.526 89.8452 112.242C88.2747 113.958 87.7472 116.645 86.7733 117.105C85.7993 117.566 84.9471 119.115 85.4584 120.644C85.9698 122.173 87.2521 124.606 87.5078 124.688C87.7634 124.769 89.5165 126.657 89.6017 127.774C89.6869 128.891 91.9473 129.429 91.9473 129.429L91.8215 125.026C91.8215 125.026 91.5658 126.184 90.4985 125.197C89.4313 124.211 91.0099 123.053 91.1357 123.098C91.2615 123.143 89.9182 120.84 90.3443 119.714C90.7704 118.589 93.2174 112.511 98.9028 115.846Z" fill="#3F3D56"/>
<path d="M100.481 136.97C100.414 137.142 100.312 137.297 100.181 137.427C99.9782 137.598 99.7332 137.711 99.4719 137.754C99.2105 137.797 98.9424 137.769 98.6958 137.671C98.2071 137.466 97.7784 137.139 97.45 136.722C96.7062 135.857 96.1681 134.833 95.8764 133.729C95.5846 132.624 95.5468 131.467 95.7659 130.346C95.8349 129.937 95.9839 129.547 96.2042 129.196C96.7398 128.414 97.7422 128.132 98.6187 127.77C99.4952 127.407 100.136 126.816 100.469 127.064C99.9416 127.725 99.3857 128.1 99.0773 128.789C98.6065 129.841 99.6981 132.401 99.6981 132.401C99.6981 132.401 100.879 134.663 100.481 136.97Z" fill="url(#paint7_linear_233_484)"/>
<path d="M140.441 117.199C139.629 120.868 141.837 124.945 145.335 126.229C148.277 127.309 151.532 126.522 154.669 126.526C160.155 126.526 165.37 129.021 170.844 129.38C174.468 129.613 178.092 128.911 181.37 127.342C183.266 126.433 185.088 125.226 187.169 124.961C188.914 124.737 190.736 125.201 192.425 124.696C195.294 123.84 196.726 120.175 195.691 117.358C194.657 114.541 191.698 112.736 188.716 112.466C185.818 112.222 182.823 113.217 180.039 112.377C176.927 111.439 174.792 108.414 171.7 107.403C167.171 105.928 162.59 109.181 158.925 112.238C158.534 111.135 157.822 110.174 156.881 109.481C155.941 108.788 154.815 108.394 153.65 108.349C151.256 108.3 148.89 110.298 146.715 111.203C143.817 112.45 141.212 113.787 140.441 117.199Z" fill="#221891"/>
<path d="M140.441 117.199C139.629 120.868 141.837 124.945 145.335 126.229C148.277 127.309 151.532 126.522 154.669 126.526C160.155 126.526 165.37 129.021 170.844 129.38C174.468 129.613 178.092 128.911 181.37 127.342C183.266 126.433 185.088 125.226 187.169 124.961C188.914 124.737 190.736 125.201 192.425 124.696C195.294 123.84 196.726 120.175 195.691 117.358C194.657 114.541 191.698 112.736 188.716 112.466C185.818 112.222 182.823 113.217 180.039 112.377C176.927 111.439 174.792 108.414 171.7 107.403C167.171 105.928 162.59 109.181 158.925 112.238C158.534 111.135 157.822 110.174 156.881 109.481C155.941 108.788 154.815 108.394 153.65 108.349C151.256 108.3 148.89 110.298 146.715 111.203C143.817 112.45 141.212 113.787 140.441 117.199Z" fill="url(#paint8_linear_233_484)"/>
<path d="M0.162313 123.241C-0.649297 126.909 1.55828 130.986 5.06038 132.27C8.00246 133.35 11.253 132.559 14.3939 132.568C19.8763 132.568 25.0909 135.058 30.5652 135.421C34.191 135.654 37.8159 134.953 41.0959 133.383C42.991 132.478 44.809 131.267 46.8948 131.002C48.6398 130.782 50.4618 131.247 52.15 130.741C55.015 129.885 56.4515 126.216 55.4167 123.404C54.3819 120.591 51.4195 118.777 48.4409 118.512C45.5435 118.263 42.5486 119.258 39.7648 118.422C36.6482 117.485 34.5137 114.456 31.4255 113.449C26.8967 111.969 22.3152 115.226 18.6508 118.28C18.2584 117.177 17.5461 116.217 16.6059 115.525C15.6656 114.832 14.5404 114.439 13.3753 114.395C10.9811 114.346 8.61523 116.339 6.44011 117.248C3.53861 118.491 0.941458 119.849 0.162313 123.241Z" fill="#221891"/>
<path d="M0.162312 123.241C-0.649297 126.909 1.55828 130.986 5.06038 132.27C8.00247 133.35 11.253 132.559 14.3939 132.568C19.8763 132.568 25.0909 135.058 30.5652 135.421C34.191 135.654 37.8159 134.953 41.0959 133.383C42.991 132.478 44.809 131.267 46.8948 131.002C48.6398 130.782 50.4618 131.247 52.15 130.741C55.015 129.885 56.4515 126.216 55.4167 123.404C54.3819 120.591 51.4195 118.777 48.4409 118.512C45.5435 118.263 42.5486 119.258 39.7648 118.422C36.6482 117.485 34.5137 114.456 31.4255 113.449C26.8967 111.969 22.3152 115.226 18.6508 118.28C18.2584 117.177 17.5461 116.217 16.6059 115.525C15.6656 114.832 14.5404 114.439 13.3753 114.395C10.9811 114.346 8.61523 116.339 6.44011 117.248C3.53861 118.491 0.941458 119.849 0.162312 123.241Z" fill="url(#paint9_linear_233_484)"/>
<path d="M76.2994 170.051C76.7121 170.135 77.1358 170.15 77.5534 170.096L79.8137 169.937C80.1053 169.926 80.3944 169.878 80.674 169.794C80.9222 169.703 81.1444 169.551 81.3212 169.354C81.498 169.156 81.6241 168.919 81.6885 168.661C81.711 168.585 81.711 168.504 81.6885 168.429C81.6114 168.196 81.2827 168.212 81.0676 168.351C80.8526 168.49 80.7065 168.706 80.4671 168.759C80.3382 168.77 80.2084 168.755 80.0856 168.714L78.8073 168.388C78.7355 168.364 78.6594 168.355 78.5841 168.363C78.3041 168.408 78.2798 168.799 78.3244 169.081C78.2381 168.966 78.1275 168.871 78.0004 168.804C77.8734 168.737 77.7332 168.699 77.5899 168.694C77.446 168.695 77.3083 168.752 77.2066 168.855C77.1048 168.957 77.0472 169.095 77.0461 169.24L76.5429 168.832C76.4739 168.779 76.3806 168.722 76.3035 168.767C76.2666 168.797 76.2409 168.839 76.2305 168.885L76.06 169.321C76.1047 169.207 75.4188 168.914 75.3742 169.321C75.3499 169.672 76.0681 169.99 76.2994 170.051Z" fill="url(#paint10_linear_233_484)"/>
</g>
<defs>
<linearGradient id="paint0_linear_233_484" x1="140.441" y1="87.3675" x2="135.231" y2="106.964" gradientUnits="userSpaceOnUse">
<stop stop-color="white" stop-opacity="0"/>
<stop offset="0.06" stop-color="white" stop-opacity="0.13"/>
<stop offset="0.16" stop-color="white" stop-opacity="0.33"/>
<stop offset="0.26" stop-color="white" stop-opacity="0.51"/>
<stop offset="0.37" stop-color="white" stop-opacity="0.66"/>
<stop offset="0.48" stop-color="white" stop-opacity="0.79"/>
<stop offset="0.59" stop-color="white" stop-opacity="0.88"/>
<stop offset="0.71" stop-color="white" stop-opacity="0.95"/>
<stop offset="0.84" stop-color="white" stop-opacity="0.99"/>
<stop offset="1" stop-color="white"/>
</linearGradient>
<linearGradient id="paint1_linear_233_484" x1="102.949" y1="91.6765" x2="109.218" y2="91.6765" gradientUnits="userSpaceOnUse">
<stop stop-color="#ECC4D7"/>
<stop offset="0.42" stop-color="#EFD4D1"/>
<stop offset="1" stop-color="#F2EAC9"/>
</linearGradient>
<linearGradient id="paint2_linear_233_484" x1="120.897" y1="194.001" x2="42.7755" y2="229.597" gradientUnits="userSpaceOnUse">
<stop stop-opacity="0.07"/>
<stop offset="0.08" stop-opacity="0.25"/>
<stop offset="1"/>
</linearGradient>
<linearGradient id="paint3_linear_233_484" x1="84.4277" y1="206.947" x2="163.128" y2="195.626" gradientUnits="userSpaceOnUse">
<stop stop-opacity="0.07"/>
<stop offset="0.08" stop-opacity="0.25"/>
<stop offset="1"/>
</linearGradient>
<linearGradient id="paint4_linear_233_484" x1="91.9879" y1="160.288" x2="72.7842" y2="176.789" gradientUnits="userSpaceOnUse">
<stop stop-opacity="0.07"/>
<stop offset="0.08" stop-opacity="0.25"/>
<stop offset="1"/>
</linearGradient>
<linearGradient id="paint5_linear_233_484" x1="77.7603" y1="167.744" x2="84.3751" y2="197.502" gradientUnits="userSpaceOnUse">
<stop stop-opacity="0.07"/>
<stop offset="0.52" stop-opacity="0.83"/>
<stop offset="0.56" stop-opacity="0.87"/>
<stop offset="1"/>
</linearGradient>
<linearGradient id="paint6_linear_233_484" x1="89.0012" y1="126.612" x2="101.362" y2="126.612" gradientUnits="userSpaceOnUse">
<stop stop-color="#ECC4D7"/>
<stop offset="0.42" stop-color="#EFD4D1"/>
<stop offset="1" stop-color="#F2EAC9"/>
</linearGradient>
<linearGradient id="paint7_linear_233_484" x1="95.214" y1="126.131" x2="113.801" y2="154.769" gradientUnits="userSpaceOnUse">
<stop stop-color="#ECC4D7"/>
<stop offset="0.42" stop-color="#EFD4D1"/>
<stop offset="1" stop-color="#F2EAC9"/>
</linearGradient>
<linearGradient id="paint8_linear_233_484" x1="170.576" y1="106.013" x2="164.399" y2="138.684" gradientUnits="userSpaceOnUse">
<stop offset="0.02" stop-color="white" stop-opacity="0"/>
<stop offset="0.06" stop-color="white" stop-opacity="0.13"/>
<stop offset="0.13" stop-color="white" stop-opacity="0.33"/>
<stop offset="0.2" stop-color="white" stop-opacity="0.51"/>
<stop offset="0.27" stop-color="white" stop-opacity="0.66"/>
<stop offset="0.35" stop-color="white" stop-opacity="0.79"/>
<stop offset="0.43" stop-color="white" stop-opacity="0.88"/>
<stop offset="0.51" stop-color="white" stop-opacity="0.95"/>
<stop offset="0.6" stop-color="white" stop-opacity="0.99"/>
<stop offset="0.71" stop-color="white"/>
</linearGradient>
<linearGradient id="paint9_linear_233_484" x1="27.6921" y1="110.799" x2="28.0934" y2="141.096" gradientUnits="userSpaceOnUse">
<stop stop-color="white" stop-opacity="0"/>
<stop offset="0.06" stop-color="white" stop-opacity="0.13"/>
<stop offset="0.16" stop-color="white" stop-opacity="0.33"/>
<stop offset="0.26" stop-color="white" stop-opacity="0.51"/>
<stop offset="0.37" stop-color="white" stop-opacity="0.66"/>
<stop offset="0.48" stop-color="white" stop-opacity="0.79"/>
<stop offset="0.59" stop-color="white" stop-opacity="0.88"/>
<stop offset="0.71" stop-color="white" stop-opacity="0.95"/>
<stop offset="0.84" stop-color="white" stop-opacity="0.99"/>
<stop offset="1" stop-color="white"/>
</linearGradient>
<linearGradient id="paint10_linear_233_484" x1="75.3823" y1="169.187" x2="81.7088" y2="169.187" gradientUnits="userSpaceOnUse">
<stop stop-color="#ECC4D7"/>
<stop offset="0.42" stop-color="#EFD4D1"/>
<stop offset="1" stop-color="#F2EAC9"/>
</linearGradient>
<clipPath id="clip0_233_484">
<rect width="210" height="243" fill="white"/>
</clipPath>
</defs>
</svg>
