<svg width="80" height="32" viewBox="0 0 80 32" fill="none" xmlns="http://www.w3.org/2000/svg">
<g clip-path="url(#clip0_239_1182)">
<path d="M0.783325 29.2865H16.163V31.4644H0.783325V29.2865Z" fill="#D6D7DA"/>
<path d="M0.783325 25.1092H16.163V27.2947H0.783325V25.1092Z" fill="#D6D7DA"/>
<path d="M5.17084 20.9395H11.7677V23.1251H5.17084V20.9395Z" fill="#D6D7DA"/>
<path d="M5.17084 16.7698H11.7677V18.9554H5.17084V16.7698Z" fill="#D6D7DA"/>
<path d="M5.17084 12.6001H11.7677V14.7857H5.17084V12.6001Z" fill="#D6D7DA"/>
<path d="M5.17084 8.42273H11.7677V10.6083H5.17084V8.42273Z" fill="#D6D7DA"/>
<path d="M16.163 4.25287H0.783325V6.43848H16.163V4.25287Z" fill="#D6D7DA"/>
<path d="M16.163 0.083313H0.783325V2.26892H16.163V0.083313Z" fill="#D6D7DA"/>
<path d="M18.3567 27.2947H42.0099C42.4095 26.6205 42.7072 25.8841 42.8875 25.1092H18.3567V27.2947Z" fill="#D6D7DA"/>
<path d="M40.1689 16.7698H22.752V18.9554H42.01C41.5085 18.1184 40.8895 17.3821 40.1689 16.7698Z" fill="#D6D7DA"/>
<path d="M22.752 12.6001V14.7857H40.1689C40.9052 14.1734 41.5242 13.4372 42.01 12.6001H22.752Z" fill="#D6D7DA"/>
<path d="M42.01 4.25287H18.3567V6.43848H42.8875C42.6837 5.66343 42.386 4.92721 42.01 4.25287Z" fill="#D6D7DA"/>
<path d="M34.7393 0.083313H18.3567V2.26892H40.3882C38.9152 0.920325 36.9173 0.083313 34.7393 0.083313Z" fill="#D6D7DA"/>
<path d="M29.3411 8.42273H22.752V10.6083H29.3411V8.42273Z" fill="#D6D7DA"/>
<path d="M35.938 10.6083H42.8327C43.0284 9.91084 43.1303 9.17453 43.1303 8.42273H35.938V10.6083Z" fill="#D6D7DA"/>
<path d="M22.752 20.9395H29.3411V23.1251H22.752V20.9395Z" fill="#D6D7DA"/>
<path d="M35.938 20.9395V23.1251H43.1303C43.1303 22.3733 43.0284 21.637 42.8327 20.9395H35.938Z" fill="#D6D7DA"/>
<path d="M18.3567 31.4489L34.7393 31.4722C36.933 31.4722 38.9152 30.6351 40.396 29.2865H18.3567V31.4489Z" fill="#D6D7DA"/>
<path d="M44.7287 29.2865H55.713V31.4644H44.7287V29.2865Z" fill="#D6D7DA"/>
<path d="M44.7287 25.1092H55.713V27.2947H44.7287V25.1092Z" fill="#D6D7DA"/>
<path d="M49.1161 20.9395H55.713V23.1251H49.1161V20.9395Z" fill="#D6D7DA"/>
<path d="M49.1161 16.7698H55.713V18.9554H49.1161V16.7698Z" fill="#D6D7DA"/>
<path d="M58.7687 4.25287H44.7287V6.43848H59.5285L58.7687 4.25287Z" fill="#D6D7DA"/>
<path d="M57.3113 0.083313H44.7287V2.26892H58.0713L57.3113 0.083313Z" fill="#D6D7DA"/>
<path d="M68.8911 29.2865H79.8833V31.4644H68.8911V29.2865Z" fill="#D6D7DA"/>
<path d="M68.8911 25.1092H79.8833V27.2947H68.8911V25.1092Z" fill="#D6D7DA"/>
<path d="M68.8911 20.9395H75.488V23.1251H68.8911V20.9395Z" fill="#D6D7DA"/>
<path d="M68.8911 16.7698H75.488V18.9554H68.8911V16.7698Z" fill="#D6D7DA"/>
<path d="M68.8911 14.7857H75.488V12.6001H68.8911H62.921L62.302 14.3673L61.6832 12.6001H55.713H49.1161V14.7857H55.713V12.7784L56.4103 14.7857H68.1939L68.8911 12.7784V14.7857Z" fill="#D6D7DA"/>
<path d="M75.488 8.42273H64.3783L63.6183 10.6083H75.488V8.42273Z" fill="#D6D7DA"/>
<path d="M67.3007 0.083313L66.5407 2.26892H79.8833V0.083313H67.3007Z" fill="#D6D7DA"/>
<path d="M62.302 31.4489L63.062 29.2865H61.5421L62.302 31.4489Z" fill="#D6D7DA"/>
<path d="M60.8449 27.2947H63.7594L64.5429 25.1092H60.0692L60.8449 27.2947Z" fill="#D6D7DA"/>
<path d="M59.364 23.1251H65.24L66.0157 20.9395H58.5883L59.364 23.1251Z" fill="#D6D7DA"/>
<path d="M57.891 18.9554H66.7208L67.473 16.7698H57.131L57.891 18.9554Z" fill="#D6D7DA"/>
<path d="M49.1161 10.6083H60.9857L60.2258 8.42273H49.1161V10.6083Z" fill="#D6D7DA"/>
<path d="M65.0833 6.43848H79.8833V4.25287H65.8355L65.0833 6.43848Z" fill="#D6D7DA"/>
</g>
<defs>
<clipPath id="clip0_239_1182">
<rect width="79.1" height="31.3889" fill="white" transform="translate(0.783325 0.083313)"/>
</clipPath>
</defs>
</svg>
