<svg width="40" height="48" viewBox="0 0 40 48" fill="none" xmlns="http://www.w3.org/2000/svg">
<path d="M40 39.7188C40 41.9896 39.349 43.9375 38.0469 45.5625C36.7448 47.1875 35.1771 48 33.3438 48H6.65625C4.82292 48 3.25521 47.1875 1.95312 45.5625C0.651042 43.9375 0 41.9896 0 39.7188C0 37.9479 0.0885417 36.276 0.265625 34.7031C0.442708 33.1302 0.770833 31.5469 1.25 29.9531C1.72917 28.3594 2.33854 26.9948 3.07812 25.8594C3.81771 24.724 4.79688 23.7969 6.01562 23.0781C7.23438 22.3594 8.63542 22 10.2188 22C12.9479 24.6667 16.2083 26 20 26C23.7917 26 27.0521 24.6667 29.7812 22C31.3646 22 32.7656 22.3594 33.9844 23.0781C35.2031 23.7969 36.1823 24.724 36.9219 25.8594C37.6615 26.9948 38.2708 28.3594 38.75 29.9531C39.2292 31.5469 39.5573 33.1302 39.7344 34.7031C39.9115 36.276 40 37.9479 40 39.7188ZM32 12C32 15.3125 30.8281 18.1406 28.4844 20.4844C26.1406 22.8281 23.3125 24 20 24C16.6875 24 13.8594 22.8281 11.5156 20.4844C9.17188 18.1406 8 15.3125 8 12C8 8.6875 9.17188 5.85938 11.5156 3.51562C13.8594 1.17188 16.6875 0 20 0C23.3125 0 26.1406 1.17188 28.4844 3.51562C30.8281 5.85938 32 8.6875 32 12Z" fill="url(#paint0_linear_280_5)"/>
<defs>
<linearGradient id="paint0_linear_280_5" x1="20" y1="0" x2="20" y2="48" gradientUnits="userSpaceOnUse">
<stop stop-color="#7037DA"/>
<stop offset="1" stop-color="#221891"/>
</linearGradient>
</defs>
</svg>
