<svg width="24" height="25" viewBox="0 0 24 25" fill="none" xmlns="http://www.w3.org/2000/svg">
<path d="M16 3.10034C17.3261 3.10034 18.5979 3.62713 19.5355 4.56481C20.4732 5.50249 21 6.77426 21 8.10034V16.1003C21 17.4264 20.4732 18.6982 19.5355 19.6359C18.5979 20.5736 17.3261 21.1003 16 21.1003H8C6.67392 21.1003 5.40215 20.5736 4.46447 19.6359C3.52678 18.6982 3 17.4264 3 16.1003V8.10034C3 6.77426 3.52678 5.50249 4.46447 4.56481C5.40215 3.62713 6.67392 3.10034 8 3.10034H16ZM12 8.10034C10.9391 8.10034 9.92172 8.52177 9.17157 9.27191C8.42143 10.0221 8 11.0395 8 12.1003C8 13.1612 8.42143 14.1786 9.17157 14.9288C9.92172 15.6789 10.9391 16.1003 12 16.1003C13.0609 16.1003 14.0783 15.6789 14.8284 14.9288C15.5786 14.1786 16 13.1612 16 12.1003C16 11.0395 15.5786 10.0221 14.8284 9.27191C14.0783 8.52177 13.0609 8.10034 12 8.10034ZM12 10.1003C12.5304 10.1003 13.0391 10.3111 13.4142 10.6861C13.7893 11.0612 14 11.5699 14 12.1003C14 12.6308 13.7893 13.1395 13.4142 13.5146C13.0391 13.8896 12.5304 14.1003 12 14.1003C11.4696 14.1003 10.9609 13.8896 10.5858 13.5146C10.2107 13.1395 10 12.6308 10 12.1003C10 11.5699 10.2107 11.0612 10.5858 10.6861C10.9609 10.3111 11.4696 10.1003 12 10.1003ZM16.5 6.60034C16.2348 6.60034 15.9804 6.7057 15.7929 6.89324C15.6054 7.08077 15.5 7.33513 15.5 7.60034C15.5 7.86556 15.6054 8.11991 15.7929 8.30745C15.9804 8.49498 16.2348 8.60034 16.5 8.60034C16.7652 8.60034 17.0196 8.49498 17.2071 8.30745C17.3946 8.11991 17.5 7.86556 17.5 7.60034C17.5 7.33513 17.3946 7.08077 17.2071 6.89324C17.0196 6.7057 16.7652 6.60034 16.5 6.60034Z" fill="#D1AE6C"/>
</svg>
