<svg width="24" height="25" viewBox="0 0 24 25" fill="none" xmlns="http://www.w3.org/2000/svg">
<path d="M19 3.10034C19.5304 3.10034 20.0391 3.31106 20.4142 3.68613C20.7893 4.0612 21 4.56991 21 5.10034V19.1003C21 19.6308 20.7893 20.1395 20.4142 20.5146C20.0391 20.8896 19.5304 21.1003 19 21.1003H5C4.46957 21.1003 3.96086 20.8896 3.58579 20.5146C3.21071 20.1395 3 19.6308 3 19.1003V5.10034C3 4.56991 3.21071 4.0612 3.58579 3.68613C3.96086 3.31106 4.46957 3.10034 5 3.10034H19ZM18.5 18.6003V13.3003C18.5 12.4357 18.1565 11.6065 17.5452 10.9952C16.9338 10.3838 16.1046 10.0403 15.24 10.0403C14.39 10.0403 13.4 10.5603 12.92 11.3403V10.2303H10.13V18.6003H12.92V13.6703C12.92 12.9003 13.54 12.2703 14.31 12.2703C14.6813 12.2703 15.0374 12.4178 15.2999 12.6804C15.5625 12.9429 15.71 13.299 15.71 13.6703V18.6003H18.5ZM6.88 8.66034C7.32556 8.66034 7.75288 8.48334 8.06794 8.16828C8.383 7.85322 8.56 7.42591 8.56 6.98034C8.56 6.05034 7.81 5.29034 6.88 5.29034C6.43178 5.29034 6.00193 5.46839 5.68499 5.78533C5.36805 6.10227 5.19 6.53213 5.19 6.98034C5.19 7.91034 5.95 8.66034 6.88 8.66034ZM8.27 18.6003V10.2303H5.5V18.6003H8.27Z" fill="#D1AE6C"/>
</svg>
