<svg width="360" height="203" viewBox="0 0 360 203" fill="none" xmlns="http://www.w3.org/2000/svg">
<g clip-path="url(#clip0_233_413)">
<path opacity="0.1" d="M180 146.757C270.578 146.757 344.006 143.684 344.006 139.892C344.006 136.101 270.578 133.028 180 133.028C89.4219 133.028 15.9938 136.101 15.9938 139.892C15.9938 143.684 89.4219 146.757 180 146.757Z" fill="#2A94F4"/>
<path opacity="0.1" d="M280.2 172.902C286.072 172.902 290.831 171.76 290.831 170.352C290.831 168.943 286.072 167.801 280.2 167.801C274.329 167.801 269.569 168.943 269.569 170.352C269.569 171.76 274.329 172.902 280.2 172.902Z" fill="#2A94F4"/>
<path opacity="0.1" d="M309.956 172.396C313.053 172.396 315.563 171.791 315.563 171.045C315.563 170.299 313.053 169.695 309.956 169.695C306.86 169.695 304.35 170.299 304.35 171.045C304.35 171.791 306.86 172.396 309.956 172.396Z" fill="#2A94F4"/>
<path d="M310.388 138.223H47.175C28.7438 138.223 13.8 123.275 13.8 104.838C13.8 86.4015 28.7438 71.4534 47.175 71.4534H310.388C328.819 71.4534 343.763 86.4015 343.763 104.838C343.763 123.275 328.819 138.223 310.388 138.223Z" fill="#CCE9FF"/>
<path opacity="0.15" d="M309.6 130.965H47.9625C33.5438 130.965 21.8438 119.261 21.8438 104.838C21.8438 90.4151 33.5438 78.7117 47.9625 78.7117H309.619C324.038 78.7117 335.738 90.4151 335.738 104.838C335.738 119.261 324.038 130.965 309.6 130.965Z" fill="#0E538C"/>
<g filter="url(#filter0_dii_233_413)">
<path d="M231.154 130.506H47.4776C33.0589 130.506 21.3589 118.802 21.3589 104.379C21.3589 89.9564 33.0589 78.2529 47.4776 78.2529H231.154C236.404 78.2529 240.641 82.5104 240.641 87.7432V120.997C240.641 126.248 236.404 130.506 231.154 130.506Z" fill="url(#paint0_linear_233_413)"/>
</g>
<path d="M338.437 57.0864C346.069 56.8239 345.9 60.9126 345.787 66.2579C345.225 94.7663 321 82.7065 328.162 73.2162C331.631 68.6211 331.031 73.3663 330.581 63.332C330.412 59.7497 336.037 57.1615 338.437 57.0864Z" fill="#0B4870"/>
<path d="M337.988 78.4305C336.394 78.1679 328.05 86.3266 325.856 88.5398C323.663 90.7717 321.413 93.8288 323.738 93.8288C326.063 93.8288 328.481 91.6532 330.319 90.1902C332.156 88.7273 334.631 86.5892 336 85.6139C337.35 84.6574 339.563 78.6931 337.988 78.4305Z" fill="#B97A59"/>
<path d="M325.913 95.8917C325.913 95.8917 324.9 89.2335 321.581 84.3007C318.263 79.3493 316.594 75.5044 316.594 75.5044L315.169 76.1608C315.169 76.1608 320.156 89.3272 321.319 91.4841C322.481 93.6035 322.556 93.3222 325.913 95.8917Z" fill="#B97A59"/>
<path d="M316.575 77.305C316.575 77.305 314.212 76.4422 311.906 74.5667C309.6 72.6911 309.619 72.6348 309.225 71.7533C308.831 70.8718 309.525 69.2213 310.369 69.9153C311.194 70.6092 311.906 72.1472 312.562 72.5973C314.231 73.7602 313.8 72.7099 313.687 72.4098C313.575 72.1097 313.387 71.6783 313.669 71.472C313.95 71.2657 314.175 71.9409 314.344 72.166C314.512 72.391 315.75 73.4413 315.994 73.6852C316.237 73.9102 316.181 74.698 316.537 75.3544C316.912 76.0296 317.887 78.8617 317.419 79.2556C317.4 79.2556 317.287 77.6426 316.575 77.305ZM282.675 149.476C282.675 149.476 281.156 153.621 280.125 155.534C279.094 157.429 278.212 158.704 277.781 160.411C277.35 162.118 283.519 160.017 284.212 158.91C284.906 157.804 285.056 154.034 287.512 151.202C290.006 148.37 282.675 149.476 282.675 149.476Z" fill="#B97A59"/>
<path d="M309.094 112.19C309.094 112.19 290.569 120.499 288.712 122.956C286.875 125.413 283.706 144.394 282.375 149.495C282.094 150.564 286.556 152.046 287.812 151.277C289.069 150.508 294.544 139.33 295.462 136.441C296.456 133.234 296.1 129.408 296.887 129.052C298.537 128.283 315.037 123.744 317.381 122C319.744 120.255 326.569 114.103 325.856 112.059C325.144 110.033 309.094 112.19 309.094 112.19ZM285.675 154.203C285.675 154.203 286.894 155.872 287.194 156.604C287.494 157.335 288.244 158.048 287.662 158.817C287.081 159.567 284.85 161.161 283.125 163.787C281.419 166.413 278.4 169.432 276.412 170.426C274.425 171.42 271.5 171.12 271.481 170.014C271.462 168.907 273.075 167.369 273.881 166.788C274.687 166.188 277.95 158.985 278.381 157.86C278.812 156.735 279.431 156.191 280.256 156.716C281.081 157.241 282.112 157.579 283.481 156.491C284.85 155.422 285.675 154.203 285.675 154.203Z" fill="#0B4870"/>
<path d="M338.869 95.6668C338.869 95.6668 335.888 99.024 334.969 102.25C334.031 105.476 336.206 114.122 330.956 120.387C328.294 123.575 312.788 121.887 312.788 121.887C325.369 99.5117 326.119 95.9106 325.369 93.3036C324.619 90.6965 325.313 89.4399 327.75 87.4143C330.169 85.3887 331.95 83.5694 332.475 81.2062C333 78.8805 352.106 74.623 338.869 95.6668Z" fill="#FFBE55"/>
<path d="M344.025 80.5687C344.025 80.5687 343.05 79.7247 342.863 76.1049C342.675 72.4851 342.619 70.6095 343.294 69.3154C343.969 68.04 336.994 67.7774 336.825 70.4219C336.675 73.0665 336.263 73.4416 336.975 76.2362C337.706 79.0307 335.194 79.7997 334.65 80.0248C333.563 80.4937 330.413 84.6011 344.025 80.5687Z" fill="#AA6B4F"/>
<path d="M338.513 65.5827C339.769 65.8828 341.006 66.0141 342.15 65.714C341.213 71.9221 336.056 72.7473 335.869 72.766C335.681 72.7848 335.494 72.8036 335.25 72.541C335.006 72.2784 331.875 68.2835 333.488 62.0379C333.6 61.5877 334.35 64.5699 338.513 65.5827ZM341.25 82.3689C339.019 82.8378 332.138 96.4731 330.15 100.187C328.163 103.9 326.456 108.664 329.55 107.501C332.644 106.338 334.95 102.569 336.806 99.9429C338.644 97.2983 341.044 93.5285 342.469 91.7092C343.894 89.8899 343.481 81.9 341.25 82.3689ZM306.131 143.625C306.131 143.625 308.494 147.619 308.625 149.082C308.756 150.545 308.925 151.539 310.069 151.239C311.213 150.939 312.975 147.563 312.713 146.494C312.45 145.425 309.769 142.893 309.356 141.186C308.963 139.48 306.113 144.3 306.113 144.3L306.131 143.625Z" fill="#B97A59"/>
<path d="M310.875 143.55C310.875 143.55 312.45 144.356 313.406 144.45C314.363 144.562 315.694 145.519 315.563 147.544C315.431 149.57 315.019 153.621 315.056 156.172C315.094 158.723 312.919 162.943 312.338 163.787C311.4 165.156 309.263 165.156 308.775 163.956C308.288 162.755 308.869 159.379 308.906 157.654C308.944 155.928 308.25 150.264 308.194 149.57C308.138 148.876 309.956 147.376 310.594 148.201C311.231 149.026 311.831 148.07 311.85 147.451C311.85 146.832 310.875 143.55 310.875 143.55Z" fill="#0B4870"/>
<path d="M319.387 111.609C315.469 111.646 297.431 110.165 294.881 112.547C292.331 114.947 296.531 121.774 309.694 124.982C322.856 128.189 325.369 127.289 329.569 122.693C333.769 118.098 322.312 111.571 319.387 111.609Z" fill="#0E538C"/>
<path d="M300.469 118.136C300.469 118.136 307.463 124.494 308.006 131.527C308.531 138.561 309.919 141.843 309.919 141.843L306.113 144.281C306.113 144.281 294.431 124.588 293.588 120.631C292.744 116.673 293.025 112.397 295.594 113.035C298.163 113.672 300.469 118.136 300.469 118.136Z" fill="#0E538C"/>
<path d="M306.094 144.244C306.113 144.262 306.112 144.281 306.112 144.281L309.431 142.162L306.094 144.244Z" fill="#89D5DA"/>
<path d="M328.631 107.708C324.469 108.027 317.85 108.177 317.85 108.177C317.85 108.177 308.663 109.565 317.325 106.095C319.2 105.345 324.094 102.888 330.994 101.988C331.744 101.894 331.369 102.1 332.156 102.419C333.525 102.963 332.006 107.445 328.631 107.708Z" fill="#B97A59"/>
<path d="M310.069 109.827L310.05 109.34L311.119 108.195C311.119 108.195 313.65 107.183 314.719 107.183C315.787 107.183 319.631 105.513 320.137 105.457C320.644 105.401 321.956 107.577 321.956 107.577C321.956 107.577 317.737 108.195 316.069 108.608C314.419 109.021 312.244 110.484 311.587 110.671C310.481 110.99 309.956 111.215 309.956 111.215C309.956 111.215 309.881 110.54 311.587 109.94C312.037 109.771 311.625 109.321 311.625 109.321L310.069 109.827Z" fill="#B97A59"/>
<path d="M319.762 111.609C319.762 111.609 319.762 111.59 319.781 111.59L319.762 110.934H295.387V111.609L295.444 111.721C295.762 112.284 296.325 112.378 296.962 112.378H318.187C318.825 112.378 319.387 112.284 319.706 111.721L319.762 111.609Z" fill="#D3D3D3"/>
<path d="M313.894 111.722L313.95 111.834C314.044 111.984 314.175 112.078 314.306 112.172H318.019C318.638 112.172 319.181 112.097 319.481 111.628L319.538 111.534C319.538 111.534 319.538 111.515 319.556 111.515V111.196H313.913V111.722H313.894ZM313.744 110.915L310.575 97.7112C310.5 97.3548 310.163 97.0735 309.844 97.0735H292.744C292.425 97.0735 292.238 97.3548 292.331 97.7112L295.5 110.915H313.744Z" fill="#F7F7F7"/>
<path d="M304.088 103.994C304.256 104.669 303.881 105.213 303.281 105.213C302.663 105.213 302.044 104.669 301.875 103.994C301.706 103.319 302.081 102.775 302.681 102.775C303.3 102.775 303.919 103.319 304.088 103.994Z" fill="#D3D3D3"/>
<path d="M336.637 57.818C337.275 57.5367 343.687 56.3738 346.744 59.506C349.8 62.6382 350.625 67.3083 349.162 71.6408C347.7 75.9734 349.594 75.5607 351.356 79.2181C355.012 86.7391 345.412 91.5405 340.106 87.3205C337.256 85.0511 337.162 77.999 337.894 73.16C338.625 68.3211 343.087 66.8019 340.444 65.8079C337.35 64.645 331.069 60.3312 336.637 57.818Z" fill="#0B4870"/>
</g>
<defs>
<filter id="filter0_dii_233_413" x="-3.95154" y="56.5054" width="291.692" height="124.662" filterUnits="userSpaceOnUse" color-interpolation-filters="sRGB">
<feFlood flood-opacity="0" result="BackgroundImageFix"/>
<feColorMatrix in="SourceAlpha" type="matrix" values="0 0 0 0 0 0 0 0 0 0 0 0 0 0 0 0 0 0 127 0" result="hardAlpha"/>
<feOffset dx="10.8943" dy="14.4572"/>
<feGaussianBlur stdDeviation="18.1023"/>
<feColorMatrix type="matrix" values="0 0 0 0 0.2 0 0 0 0 0.14902 0 0 0 0 0.0666667 0 0 0 0.24 0"/>
<feBlend mode="normal" in2="BackgroundImageFix" result="effect1_dropShadow_233_413"/>
<feBlend mode="normal" in="SourceGraphic" in2="effect1_dropShadow_233_413" result="shape"/>
<feColorMatrix in="SourceAlpha" type="matrix" values="0 0 0 0 0 0 0 0 0 0 0 0 0 0 0 0 0 0 127 0" result="hardAlpha"/>
<feOffset dx="3.38933" dy="4.49779"/>
<feGaussianBlur stdDeviation="2.81592"/>
<feComposite in2="hardAlpha" operator="arithmetic" k2="-1" k3="1"/>
<feColorMatrix type="matrix" values="0 0 0 0 1 0 0 0 0 0.864314 0 0 0 0 0.386667 0 0 0 1 0"/>
<feBlend mode="normal" in2="shape" result="effect2_innerShadow_233_413"/>
<feColorMatrix in="SourceAlpha" type="matrix" values="0 0 0 0 0 0 0 0 0 0 0 0 0 0 0 0 0 0 127 0" result="hardAlpha"/>
<feOffset dx="-3.38933" dy="-4.49779"/>
<feGaussianBlur stdDeviation="2.81592"/>
<feComposite in2="hardAlpha" operator="arithmetic" k2="-1" k3="1"/>
<feColorMatrix type="matrix" values="0 0 0 0 0.8 0 0 0 0 0.596078 0 0 0 0 0.266667 0 0 0 1 0"/>
<feBlend mode="normal" in2="effect2_innerShadow_233_413" result="effect3_innerShadow_233_413"/>
</filter>
<linearGradient id="paint0_linear_233_413" x1="73.6579" y1="68.8619" x2="85.0395" y2="132.246" gradientUnits="userSpaceOnUse">
<stop offset="1" stop-color="#FFD55F"/>
<stop stop-color="#D6A047"/>
</linearGradient>
<clipPath id="clip0_233_413">
<rect width="360" height="202.56" fill="white" transform="translate(0 0.219971)"/>
</clipPath>
</defs>
</svg>
