<svg width="95" height="31" viewBox="0 0 95 31" fill="none" xmlns="http://www.w3.org/2000/svg">
<g clip-path="url(#clip0_239_1220)">
<path d="M0.764038 21.6162V2.08835H4.19411V21.6162H0.764038ZM12.9761 7.45015C8.57766 7.45015 5.53394 10.8307 5.53394 14.7016C5.53394 19.0232 8.84513 21.9988 13.0095 21.9988C16.9621 21.9988 20.3922 19.0765 20.3922 14.6929C20.3922 11.0065 17.5503 7.44891 12.9748 7.44891L12.9761 7.45015ZM12.9352 10.7589C15.2372 10.7589 16.9312 12.5507 16.9312 14.714C16.9355 15.7618 16.5235 16.7685 15.7857 17.5128C15.048 18.257 14.045 18.6778 12.9971 18.6827C10.5564 18.6827 9.01973 16.7472 9.01973 14.7202C9.01973 12.4987 10.7533 10.7589 12.9352 10.7589ZM29.0119 7.45015C24.6135 7.45015 21.5698 10.8307 21.5698 14.7016C21.5698 19.0232 24.881 21.9988 29.0466 21.9988C32.9992 21.9988 36.4293 19.0765 36.4293 14.6929C36.4293 12.1111 35.3111 10.9657 35.3111 10.9657L36.2621 10.64V7.85507H31.3895C31.3895 7.85507 30.3332 7.45015 29.0119 7.45015ZM28.9711 10.7589C31.2743 10.7589 32.9671 12.5507 32.9671 14.714C32.9713 15.7616 32.5595 16.7681 31.8221 17.5123C31.0846 18.2565 30.0819 18.6775 29.0342 18.6827C26.5923 18.6827 25.0568 16.7472 25.0568 14.7202C25.0568 12.4987 26.7905 10.7589 28.9711 10.7589ZM32.9435 22.5722C32.9478 23.6211 32.5362 24.6289 31.7988 25.3749C31.0614 26.1209 30.0584 26.5442 29.0095 26.552C26.5688 26.552 25.0259 24.5993 25.0259 22.5722H21.5463C21.5463 26.8913 24.8562 29.8682 29.0219 29.8682C32.9745 29.8682 36.4045 26.9557 36.4045 22.5722H32.9435ZM37.8026 21.6162V7.85631H41.2326V21.6187H37.8026V21.6162ZM44.5649 21.6162V10.9397H42.7248V7.85631H44.5649V3.63002H47.995V7.85507H49.8846V10.9384H47.995V21.6174H44.5649V21.6162ZM41.7824 3.94579C41.7824 4.54827 41.5431 5.12607 41.1171 5.55208C40.6911 5.9781 40.1133 6.21743 39.5108 6.21743C38.9083 6.21743 38.3305 5.9781 37.9045 5.55208C37.4785 5.12607 37.2392 4.54827 37.2392 3.94579C37.2392 3.34315 37.4786 2.76519 37.9047 2.33905C38.3308 1.91292 38.9088 1.67352 39.5114 1.67352C40.1141 1.67352 40.692 1.91292 41.1182 2.33905C41.5443 2.76519 41.7824 3.34315 41.7824 3.94579ZM57.5967 7.44025C53.1772 7.44025 50.3279 10.8245 50.3279 14.8267C50.3279 18.9626 53.1871 22.0075 57.6685 22.0075C61.849 22.0075 63.9045 19.3972 63.9045 19.3972L61.6112 17.1014C61.6112 17.1014 59.8801 18.9687 57.7106 18.9687C55.9039 18.9687 54.4588 17.9595 53.9549 16.1095H64.6438V15.1647C64.6438 11.3966 62.4607 7.44025 57.5967 7.44025ZM57.4877 10.4617C59.0678 10.4617 60.685 11.3062 61.0453 13.3258H53.862C54.1468 11.9055 55.3876 10.4604 57.4877 10.4604V10.4617ZM73.2251 22.0087C68.7933 22.0087 65.7731 18.6344 65.7731 14.6533C65.7731 10.5471 69.1858 7.43777 73.2103 7.43777C77.101 7.43777 79.0922 10.1843 79.0922 10.1843L76.6998 12.5668C76.6998 12.5668 75.3129 10.775 73.1954 10.775C70.8464 10.775 69.2403 12.5705 69.2403 14.7065C69.2403 16.9615 70.9492 18.6914 73.1682 18.6914C75.3216 18.6914 76.6961 16.9033 76.6961 16.9033L79.1132 19.2845C79.1132 19.2845 77.1406 22.0087 73.2251 22.0087ZM80.3614 21.6274V2.03758H83.7915V9.23577C83.7915 9.23577 85.1041 7.43777 87.9621 7.43777C91.5543 7.43777 93.6359 10.1075 93.6359 13.5227V21.6274H90.2058V14.0416C90.2058 11.747 88.7768 10.796 87.1943 10.796C85.3914 10.796 83.7915 11.8213 83.7915 14.2187V21.6274H80.3614Z" fill="#D6D7DA"/>
</g>
<defs>
<clipPath id="clip0_239_1220">
<rect width="94.1102" height="29.719" fill="white" transform="translate(0.144714 0.911926)"/>
</clipPath>
</defs>
</svg>
