<svg width="99" height="29" viewBox="0 0 99 29" fill="none" xmlns="http://www.w3.org/2000/svg">
<path d="M14.4883 26.158C13.0343 26.4129 11.554 26.4895 10.0235 26.6929L5.35286 13.0174V27.2805C3.89892 27.4337 2.57306 27.6371 1.19446 27.8417V1.71362H5.07412L10.3801 16.538V1.71362H14.4883V26.158ZM22.5263 11.2822C24.1083 11.2822 26.5316 11.2056 27.9855 11.2056V15.2874C26.1737 15.2874 24.0556 15.2874 22.5251 15.364V21.4371C24.9232 21.284 27.3226 21.0793 29.747 21.004V24.9326L18.4433 25.8253V1.71362H29.747V5.79669H22.5251L22.5263 11.2822ZM44.928 5.79543H40.6942V24.576C39.3156 24.576 37.9383 24.576 36.6112 24.6263V5.79669H32.3762V1.71362H44.9292V5.79669L44.928 5.79543ZM51.5623 11.001H57.1496V15.084H51.5623V24.3463H47.5558V1.71362H58.9613V5.79669H51.5623V11.001ZM65.5957 20.7742C67.9184 20.8244 70.2651 21.004 72.5364 21.1308V25.1624C68.8865 24.9326 65.2378 24.7028 61.5126 24.6263V1.71362H65.5957V20.773V20.7742ZM75.9791 25.4436C77.2811 25.519 78.6597 25.5968 79.9856 25.7487V1.71362H75.9804L75.9791 25.4436ZM97.8722 1.71362L92.6931 14.1399L97.8722 27.8417C96.3405 27.6371 94.8112 27.3571 93.2794 27.101L90.3452 19.5488L87.3607 26.4895C85.8792 26.2346 84.4516 26.158 82.9713 25.9534L88.2283 13.9867L83.4823 1.71362H87.8705L90.5498 8.57774L93.4075 1.71362H97.8722Z" fill="#D6D7DA"/>
</svg>
