<svg width="256" height="203" viewBox="0 0 256 203" fill="none" xmlns="http://www.w3.org/2000/svg">
<g clip-path="url(#clip0_52_447)">
<path opacity="0.18" d="M196.62 200.241C193.484 200.877 190.528 202.183 187.601 203.497L175.861 208.696C182.409 212.219 190.358 210.765 197.796 210.664C198.447 210.664 199.149 210.664 199.667 211.069C200.39 211.637 200.455 212.711 200.907 213.522C201.758 215.056 203.802 215.363 205.549 215.479C221.373 216.51 237.26 216.004 252.986 213.967C253.739 213.869 254.528 213.753 255.135 213.301C256.944 211.952 255.671 208.837 253.623 207.874C251.575 206.912 249.17 207.151 246.995 206.529C244.821 205.906 242.723 203.605 243.739 201.576C234.774 201.752 225.809 201.655 216.844 201.286C210.075 200.997 203.375 198.866 196.62 200.241Z" fill="#1D2741"/>
<path opacity="0.18" d="M239.846 122.04C241.315 106.719 248.771 90.5109 241.148 76.6582C239.148 73.0403 236.279 69.9398 233.07 67.0564C228.83 63.2541 224 59.8207 219.778 55.9894C212.307 49.2168 208.034 41.0875 202.278 33.6492C199.894 30.5077 197.18 27.6297 194.185 25.0641C192.994 24.0583 191.788 23.0682 190.567 22.0938C180.56 14.1671 169.298 7.36192 156.491 3.41123C138.329 -2.17834 116.734 -1.2775 101.402 8.92483C95.8808 12.5969 91.4091 17.264 87.0966 22.0938C83.6162 25.9902 80.2553 29.9916 76.5361 33.6384C73.2113 36.9234 69.6079 39.9334 65.4004 42.3465C59.4092 45.7871 52.5136 47.8095 46.157 50.7001C42.0792 52.5538 38.2002 54.8169 34.5799 57.4547C29.7206 60.9827 25.375 65.1688 21.6678 69.8928C13.6253 80.1458 9.08127 92.5007 9.38879 104.939C9.43582 106.885 9.59501 108.843 9.65651 110.796C9.77544 112.942 9.65043 115.093 9.28387 117.211C8.61095 120.684 6.9576 123.947 5.24997 127.181C2.92731 131.592 0.492496 135.947 0.260953 140.727C-0.144246 148.954 5.94821 156.001 12.7064 162.025C13.8351 163.031 14.9856 164.011 16.1216 164.963C17.9305 166.482 19.7937 168.002 21.6714 169.503L22.0332 169.792C23.0389 170.592 24.0483 171.388 25.0722 172.177C27.6408 174.156 30.271 176.084 32.9663 177.922C34.1723 178.739 35.3782 179.534 36.5842 180.306C39.4025 182.115 42.2931 183.768 45.267 185.277C52.6149 189.01 60.462 191.738 68.9061 192.824C92.035 195.718 115.041 185.432 138.369 186.793C153.676 187.683 167.952 193.522 182.785 196.923C197.618 200.324 214.843 200.866 226.804 192.462C237.827 184.731 241.441 171.373 241.47 159.022C241.499 146.671 238.674 134.352 239.846 122.04Z" fill="#EBEFFF"/>
<path d="M223.059 22.0942H31.6751C30.3633 22.0923 29.0641 22.3488 27.8514 22.8491C26.6388 23.3493 25.5366 24.0835 24.6077 25.0097C23.6788 25.9359 22.9414 27.036 22.4376 28.2472C21.9339 29.4584 21.6737 30.7569 21.6718 32.0687V169.797H233.052V32.0831C233.052 29.4339 232 26.8932 230.126 25.0199C228.253 23.1466 225.712 22.0942 223.063 22.0942H223.059Z" fill="#EBEFFF"/>
<path d="M233.052 32.0831V33.6388H21.6718V32.0831C21.6718 29.4339 22.7241 26.8932 24.5974 25.0199C26.4707 23.1466 29.0114 22.0942 31.6606 22.0942H223.045C224.357 22.0938 225.656 22.3517 226.868 22.8532C228.08 23.3548 229.181 24.0901 230.109 25.0174C231.037 25.9446 231.773 27.0455 232.276 28.2572C232.778 29.4689 233.037 30.7677 233.037 32.0795L233.052 32.0831Z" fill="url(#paint0_linear_52_447)"/>
<path d="M32.3553 29.67C33.5881 29.67 34.5875 28.6706 34.5875 27.4378C34.5875 26.205 33.5881 25.2056 32.3553 25.2056C31.1224 25.2056 30.123 26.205 30.123 27.4378C30.123 28.6706 31.1224 29.67 32.3553 29.67Z" fill="url(#paint1_linear_52_447)"/>
<path d="M39.8478 29.67C41.0806 29.67 42.08 28.6706 42.08 27.4378C42.08 26.205 41.0806 25.2056 39.8478 25.2056C38.615 25.2056 37.6156 26.205 37.6156 27.4378C37.6156 28.6706 38.615 29.67 39.8478 29.67Z" fill="url(#paint2_linear_52_447)"/>
<path d="M47.3368 29.67C48.5696 29.67 49.569 28.6706 49.569 27.4378C49.569 26.205 48.5696 25.2056 47.3368 25.2056C46.104 25.2056 45.1046 26.205 45.1046 27.4378C45.1046 28.6706 46.104 29.67 47.3368 29.67Z" fill="url(#paint3_linear_52_447)"/>
<g filter="url(#filter0_dii_52_447)">
<path fill-rule="evenodd" clip-rule="evenodd" d="M151.257 123.459V82.1361V82.118C151.252 80.7196 150.693 79.3802 149.702 78.3934C148.711 77.4066 147.369 76.853 145.971 76.854H104.648C103.247 76.854 101.903 77.4105 100.913 78.4011C99.9222 79.3917 99.3657 80.7352 99.3657 82.1361V123.459C99.3676 124.86 99.9253 126.203 100.916 127.193C101.907 128.184 103.25 128.74 104.651 128.741H145.971C147.372 128.74 148.715 128.184 149.706 127.193C150.697 126.203 151.255 124.86 151.257 123.459ZM128.998 100.054C129.37 99.3875 129.556 98.633 129.535 97.87C129.514 97.1336 129.301 96.4154 128.917 95.7867C128.532 95.158 127.991 94.6407 127.345 94.2861C126.699 93.9315 125.972 93.7519 125.235 93.7651C124.498 93.7783 123.778 93.9839 123.145 94.3615C122.513 94.7391 121.99 95.2755 121.628 95.9175C121.267 96.5596 121.08 97.285 121.085 98.0217C121.091 98.7585 121.289 99.481 121.66 100.118C122.031 100.754 122.562 101.283 123.2 101.651C123.367 101.75 123.505 101.89 123.6 102.059C123.695 102.228 123.744 102.419 123.743 102.613V111.658C123.743 111.992 123.875 112.312 124.111 112.548C124.347 112.784 124.668 112.917 125.002 112.917H125.617C125.951 112.917 126.271 112.784 126.507 112.548C126.743 112.312 126.876 111.992 126.876 111.658V102.613C126.872 102.419 126.921 102.228 127.016 102.06C127.112 101.891 127.251 101.751 127.418 101.654C128.08 101.273 128.625 100.72 128.998 100.054Z" fill="url(#paint4_linear_52_447)"/>
</g>
<path d="M129.455 97.87C129.476 98.633 129.29 99.3875 128.918 100.054C128.545 100.72 127.999 101.273 127.338 101.654C127.17 101.751 127.032 101.891 126.936 102.06C126.841 102.228 126.792 102.419 126.796 102.613V111.658C126.796 111.992 126.663 112.312 126.427 112.548C126.191 112.784 125.87 112.917 125.537 112.917H124.922C124.588 112.917 124.267 112.784 124.031 112.548C123.795 112.312 123.663 111.992 123.663 111.658V102.613C123.664 102.419 123.615 102.228 123.52 102.059C123.425 101.89 123.287 101.75 123.12 101.651C122.482 101.283 121.951 100.754 121.58 100.118C121.209 99.481 121.011 98.7585 121.005 98.0217C121 97.285 121.187 96.5596 121.548 95.9175C121.91 95.2755 122.433 94.7391 123.065 94.3615C123.698 93.9839 124.418 93.7783 125.155 93.7651C125.892 93.7519 126.619 93.9315 127.265 94.2861C127.91 94.6407 128.452 95.158 128.837 95.7867C129.221 96.4154 129.434 97.1336 129.455 97.87Z" fill="#EBEFFF"/>
<path opacity="0.18" d="M179.041 110.666C177.344 108.289 174.779 106.636 172.048 105.601C171.426 105.366 170.724 105.163 170.116 105.428C169.689 105.663 169.331 106.006 169.078 106.423C167.761 108.231 166.389 110.185 166.263 112.421C166.075 115.822 168.77 119.443 167.041 122.377C166.559 123.195 165.792 123.803 165.232 124.57C164.175 126.017 163.933 127.913 164.074 129.7C164.244 131.845 164.519 134.714 162.493 135.445C161.885 135.623 161.239 135.632 160.626 135.47C158.85 135.108 157.207 134.258 155.467 133.752C153.727 133.245 151.719 133.126 150.207 134.114C150.073 136.045 151.734 137.655 153.481 138.491C155.228 139.327 157.196 139.707 158.799 140.796C161.223 142.438 162.417 145.499 162.341 148.44C162.265 151.382 161.115 154.167 159.646 156.703C158.962 157.883 158.199 159.059 157.916 160.394C157.363 163.056 158.853 165.672 160.283 167.991C160.702 168.668 161.162 169.384 161.892 169.702C162.511 169.913 163.173 169.966 163.817 169.858L189.193 167.687C189.916 167.626 190.759 167.481 191.07 166.826C191.208 166.424 191.208 165.987 191.07 165.585C190.242 162.032 187.633 159.109 186.707 155.578C186.28 153.932 186.233 152.214 186.186 150.513C185.998 143.502 185.763 136.422 184.269 129.53C183.52 126.096 181.675 122.887 180.944 119.541C180.264 116.419 181.197 113.684 179.041 110.666Z" fill="#1D2741"/>
<path d="M139.219 76.8539H134.73V70.8229C134.723 68.3042 133.717 65.8911 131.931 64.1145C130.146 62.3379 127.728 61.3433 125.209 61.3496C122.69 61.3558 120.277 62.3623 118.501 64.1478C116.724 65.9332 115.73 68.3512 115.736 70.8699V76.8539H111.242V70.7035C111.336 67.0489 112.856 63.576 115.477 61.028C118.099 58.4801 121.614 57.0595 125.27 57.0704C128.926 57.0812 132.432 58.5227 135.038 61.0862C137.645 63.6497 139.144 67.1316 139.216 70.7867L139.219 76.8539Z" fill="url(#paint5_linear_52_447)"/>
<path d="M233.019 197.527L236.807 201.145L231.355 206.594L224.506 207.183C224.305 206.604 224.321 205.97 224.551 205.401C224.781 204.832 225.21 204.366 225.758 204.09C227.017 203.41 228.389 202.961 229.807 202.766L229.658 199.966L233.019 197.527ZM190.918 197.249L191.475 201.815L178.647 207.56C178.647 207.56 177.044 205.081 178.686 202.929C180.329 200.776 184.858 199.264 184.858 199.264L185.658 197.278L190.918 197.249Z" fill="#3F3D56"/>
<path d="M194.185 126.827C194.185 126.827 189.54 130.261 189.052 135.59C188.563 140.919 188.328 142.789 188.328 142.789L180.188 142.131L180.079 146.631C180.079 146.631 190.879 150.579 192.536 149.906C194.193 149.233 196.266 146.262 196.266 146.262L194.185 126.827Z" fill="#EBEFFF"/>
<path d="M194.185 126.827C194.185 126.827 189.54 130.261 189.052 135.59C188.563 140.919 188.328 142.789 188.328 142.789L180.188 142.131L180.079 146.632C180.079 146.632 190.879 150.579 192.536 149.906C194.193 149.233 196.266 146.262 196.266 146.262L194.185 126.827Z" fill="url(#paint6_linear_52_447)"/>
<path d="M197.311 155.231C197.311 155.231 180.307 169.261 180.17 174.044C180.032 178.827 184.348 197.527 184.348 197.527L190.94 197.491L191.132 177.832C191.132 177.832 205.039 172.977 206.551 170.043C208.063 167.108 211.269 152.796 197.311 155.231Z" fill="#EBEFFF"/>
<path d="M197.311 155.231C197.311 155.231 180.307 169.261 180.17 174.044C180.032 178.827 184.348 197.527 184.348 197.527L190.94 197.491L191.132 177.832C191.132 177.832 205.039 172.977 206.551 170.043C208.063 167.108 211.269 152.796 197.311 155.231Z" fill="url(#paint7_linear_52_447)"/>
<path d="M197.311 155.231C197.311 155.231 198.349 176.627 205.039 183.544C211.728 190.462 228.848 200.841 228.848 200.841L233.707 197.828L217.271 180.672C217.271 180.672 219.648 161.414 216.837 158.039C214.026 154.663 197.311 155.231 197.311 155.231Z" fill="#EBEFFF"/>
<path d="M197.311 155.231C197.311 155.231 198.349 176.627 205.039 183.544C211.728 190.462 228.848 200.841 228.848 200.841L233.707 197.828L217.271 180.672C217.271 180.672 219.648 161.414 216.837 158.039C214.026 154.663 197.311 155.231 197.311 155.231Z" fill="url(#paint8_linear_52_447)"/>
<path d="M197.311 155.231L191.501 130.648C191.501 130.648 194.757 121.274 207.662 124.291C220.567 127.309 216.826 158.039 216.826 158.039C216.826 158.039 202.34 162.843 197.311 155.231Z" fill="#EBEFFF"/>
<path d="M197.311 155.231L191.501 130.648C191.501 130.648 194.757 121.274 207.662 124.291C220.567 127.309 216.826 158.039 216.826 158.039C216.826 158.039 202.34 162.843 197.311 155.231Z" fill="url(#paint9_linear_52_447)"/>
<path d="M207.224 128.065C207.224 128.065 206.45 123.973 210.603 125.065C214.756 126.158 221.222 140.26 220.983 142.221C220.744 144.182 200.538 144.989 200.538 144.989L200.057 140.286L210.679 138.509C210.679 138.509 206.779 131.831 207.224 128.065Z" fill="#EBEFFF"/>
<path d="M207.224 128.065C207.224 128.065 206.45 123.973 210.603 125.065C214.756 126.158 221.222 140.26 220.983 142.221C220.744 144.182 200.538 144.989 200.538 144.989L200.057 140.286L210.679 138.509C210.679 138.509 206.779 131.831 207.224 128.065Z" fill="url(#paint10_linear_52_447)"/>
<path d="M205.241 119.338C204.743 120.368 203.896 121.187 202.85 121.65C202.675 121.71 202.504 121.784 202.34 121.871C202.267 121.917 202.2 121.973 202.141 122.037C201.779 122.442 202.032 123.043 202.141 123.564C202.344 124.751 201.656 125.966 200.665 126.646C200.108 127.004 199.497 127.269 198.856 127.431C197.955 127.667 196.986 127.721 196.302 127.399C195.216 126.889 195.325 125.228 195.086 124.211C194.297 120.912 193.606 117.529 193.965 114.118C194.156 112.309 194.663 110.464 195.752 108.995C196.841 107.526 198.574 106.462 200.404 106.495C202.235 106.527 203.972 107.682 205.278 109.027C205.734 109.477 206.12 109.993 206.421 110.558C207.267 112.254 206.819 114.284 206.349 116.122C206.109 117.234 205.737 118.314 205.241 119.338Z" fill="url(#paint11_linear_52_447)"/>
<path d="M206.696 111.336C206.696 111.336 201.269 111.336 197.988 113.246C195.061 114.943 194.254 118.568 194.008 118.506C193.455 118.38 191.649 114.888 192.409 114.118C193.169 113.347 192.568 113.344 192.568 113.344C192.568 113.344 191.696 111.896 192.134 109.299C192.493 107.401 192.984 105.531 193.603 103.702C193.603 103.702 193.831 102.841 197.116 103.702C200.401 104.563 205.94 107.193 206.247 108.261C206.555 109.328 206.302 109.816 206.302 109.816C206.302 109.816 207.202 110.478 206.696 111.336Z" fill="#EBEFFF"/>
<path d="M206.696 111.336C206.696 111.336 201.269 111.336 197.988 113.246C195.061 114.943 194.254 118.568 194.008 118.506C193.454 118.38 191.649 114.888 192.409 114.118C193.169 113.347 192.568 113.344 192.568 113.344C192.568 113.344 191.696 111.896 192.134 109.299C192.493 107.401 192.983 105.531 193.603 103.702C193.603 103.702 193.831 102.841 197.116 103.702C200.401 104.563 205.94 107.193 206.247 108.261C206.555 109.328 206.301 109.816 206.301 109.816C206.301 109.816 207.202 110.478 206.696 111.336Z" fill="url(#paint12_linear_52_447)"/>
<path d="M197.988 113.231C199.892 113.692 201.826 114.016 203.776 114.201C205.527 114.313 206.79 113.839 206.801 113.756C206.823 113.572 206.233 116.694 206.233 116.694L204.905 117.16C204.393 117.342 203.846 117.406 203.306 117.349L195.025 116.488C195.025 116.488 196.436 113.955 197.988 113.231Z" fill="#EBEFFF"/>
<path d="M197.988 113.231C199.892 113.692 201.826 114.016 203.776 114.201C205.527 114.313 206.79 113.839 206.801 113.756C206.823 113.572 206.233 116.694 206.233 116.694L204.905 117.16C204.393 117.342 203.846 117.406 203.306 117.349L195.025 116.488C195.025 116.488 196.436 113.955 197.988 113.231Z" fill="url(#paint13_linear_52_447)"/>
<path d="M201.392 114.838C201.63 114.772 201.882 114.78 202.116 114.859C202.275 114.888 202.419 114.971 202.524 115.095C202.585 115.188 202.627 115.293 202.648 115.402C202.669 115.464 202.669 115.532 202.648 115.594C202.617 115.63 202.577 115.656 202.533 115.671C202.488 115.685 202.44 115.688 202.394 115.677C201.963 115.68 201.535 115.598 201.135 115.435C200.81 115.265 201.117 114.935 201.392 114.838ZM205.213 115.015C205.28 114.954 205.36 114.907 205.447 114.878C205.533 114.849 205.624 114.838 205.715 114.845C205.774 114.841 205.834 114.85 205.889 114.871C205.944 114.891 205.995 114.923 206.037 114.964C206.098 115.044 206.146 115.133 206.179 115.228C206.207 115.287 206.22 115.352 206.215 115.417C206.206 115.454 206.187 115.487 206.159 115.513C206.132 115.539 206.097 115.556 206.059 115.561C205.771 115.676 205.456 115.707 205.151 115.652C204.891 115.576 205.039 115.178 205.213 115.015Z" fill="white"/>
<path d="M200.647 126.646C200.09 127.004 199.479 127.269 198.838 127.432C198.3 126.822 197.955 126.067 197.847 125.261C197.741 124.702 197.677 124.136 197.655 123.568C197.588 123.074 197.71 122.573 197.995 122.164C198.183 121.989 198.41 121.86 198.657 121.787C198.903 121.714 199.163 121.7 199.417 121.744C199.927 121.802 200.419 121.979 200.929 122.034C201.363 122.081 201.884 121.882 202.34 121.856C202.267 121.903 202.2 121.959 202.141 122.023C201.779 122.428 202.032 123.029 202.141 123.55C202.326 124.751 201.638 125.966 200.647 126.646Z" fill="url(#paint14_linear_52_447)"/>
<path d="M177.377 139.866C177.167 139.7 176.918 139.591 176.653 139.551C176.522 139.535 176.388 139.568 176.279 139.643C176.17 139.718 176.092 139.831 176.06 139.96C176.06 140.144 176.122 140.323 176.237 140.466L176.726 141.23C176.787 141.309 176.824 141.405 176.831 141.505C176.831 141.758 176.469 141.809 176.212 141.776C174.62 141.573 173.032 141.081 171.444 141.291C171.321 141.295 171.204 141.342 171.114 141.425C171.068 141.494 171.047 141.576 171.055 141.658C171.062 141.741 171.097 141.818 171.154 141.877C171.274 141.993 171.421 142.076 171.581 142.12C172.47 142.446 173.384 142.702 174.313 142.887C174.208 143.147 173.864 143.194 173.589 143.205C172.82 143.234 172.055 143.321 171.299 143.466C170.868 143.545 170.34 143.762 170.337 144.189C170.349 144.332 170.405 144.467 170.498 144.576C170.591 144.685 170.715 144.762 170.854 144.797C171.134 144.863 171.424 144.872 171.708 144.826C172.704 144.743 173.706 144.768 174.696 144.902C173.625 145.025 172.608 145.438 171.755 146.096C171.677 146.15 171.612 146.222 171.567 146.306C171.469 146.515 171.653 146.769 171.874 146.841C172.103 146.888 172.34 146.874 172.562 146.801C173.551 146.572 174.56 146.441 175.575 146.411C174.963 146.692 174.394 147.058 173.882 147.496C173.727 147.616 173.603 147.771 173.52 147.948C173.478 148.038 173.465 148.138 173.482 148.236C173.498 148.334 173.545 148.424 173.614 148.494C173.707 148.551 173.811 148.586 173.919 148.594C174.028 148.603 174.136 148.586 174.237 148.545C175.441 148.219 176.505 147.438 177.739 147.257C178.383 147.159 179.128 147.199 179.577 146.725C179.768 146.491 179.902 146.214 179.967 145.919C180.235 144.989 180.789 143.024 180.228 142.12C180.007 141.758 179.472 141.461 179.142 141.194C178.578 140.72 177.988 140.277 177.377 139.866ZM197.539 138.383C197.33 138.216 197.08 138.108 196.816 138.068C196.684 138.052 196.551 138.084 196.441 138.16C196.332 138.235 196.254 138.348 196.222 138.477C196.222 138.661 196.284 138.839 196.4 138.983L196.888 139.746C196.949 139.826 196.986 139.921 196.993 140.021C196.975 140.275 196.631 140.325 196.374 140.293C194.782 140.09 193.194 139.595 191.606 139.808C191.484 139.81 191.367 139.856 191.277 139.938C191.23 140.007 191.208 140.09 191.215 140.173C191.223 140.256 191.258 140.334 191.316 140.394C191.436 140.51 191.583 140.593 191.743 140.636C192.633 140.962 193.546 141.219 194.475 141.403C194.37 141.664 194.026 141.707 193.751 141.718C192.982 141.75 192.217 141.838 191.461 141.982C191.031 142.062 190.502 142.275 190.499 142.706C190.511 142.848 190.568 142.984 190.66 143.093C190.753 143.202 190.877 143.279 191.016 143.314C191.296 143.379 191.586 143.389 191.87 143.343C192.866 143.259 193.868 143.285 194.858 143.419C193.789 143.541 192.773 143.954 191.921 144.612C191.842 144.665 191.776 144.736 191.729 144.819C191.714 144.874 191.709 144.931 191.716 144.988C191.723 145.045 191.741 145.1 191.77 145.15C191.798 145.199 191.836 145.243 191.881 145.278C191.926 145.313 191.978 145.339 192.033 145.354C192.261 145.404 192.498 145.391 192.72 145.318C193.709 145.087 194.719 144.956 195.734 144.927C195.122 145.209 194.552 145.574 194.041 146.013C193.886 146.132 193.762 146.287 193.679 146.465C193.638 146.555 193.625 146.655 193.642 146.752C193.658 146.85 193.704 146.94 193.773 147.011C193.866 147.068 193.971 147.102 194.08 147.111C194.189 147.12 194.298 147.103 194.399 147.062C195.6 146.736 196.664 145.955 197.897 145.774C198.541 145.676 199.287 145.716 199.735 145.242C199.927 145.007 200.061 144.731 200.126 144.435C200.397 143.505 200.947 141.541 200.386 140.633C200.166 140.271 199.63 139.978 199.301 139.71C198.737 139.237 198.149 138.794 197.539 138.383Z" fill="#EBEFFF"/>
<path d="M177.377 139.866C177.167 139.7 176.918 139.591 176.653 139.551C176.522 139.535 176.388 139.568 176.279 139.643C176.17 139.718 176.092 139.831 176.06 139.96C176.06 140.144 176.122 140.323 176.237 140.467L176.726 141.23C176.787 141.309 176.824 141.405 176.831 141.505C176.831 141.758 176.469 141.809 176.212 141.776C174.62 141.574 173.032 141.082 171.444 141.291C171.321 141.295 171.204 141.342 171.114 141.425C171.068 141.494 171.047 141.576 171.055 141.658C171.062 141.741 171.097 141.818 171.154 141.877C171.274 141.993 171.421 142.076 171.581 142.12C172.47 142.446 173.384 142.702 174.313 142.887C174.208 143.147 173.864 143.194 173.589 143.205C172.82 143.234 172.055 143.321 171.299 143.466C170.868 143.545 170.34 143.762 170.337 144.189C170.349 144.332 170.405 144.467 170.498 144.576C170.591 144.685 170.715 144.762 170.854 144.797C171.134 144.863 171.424 144.873 171.708 144.826C172.704 144.743 173.706 144.768 174.696 144.902C173.625 145.025 172.608 145.438 171.755 146.096C171.677 146.15 171.612 146.222 171.567 146.306C171.469 146.516 171.653 146.769 171.874 146.841C172.103 146.888 172.34 146.874 172.562 146.801C173.551 146.572 174.56 146.441 175.575 146.411C174.963 146.693 174.394 147.058 173.882 147.496C173.727 147.616 173.603 147.771 173.52 147.948C173.478 148.038 173.465 148.138 173.481 148.236C173.498 148.334 173.545 148.424 173.614 148.495C173.707 148.551 173.811 148.586 173.919 148.595C174.028 148.603 174.136 148.586 174.237 148.545C175.441 148.22 176.505 147.438 177.739 147.257C178.383 147.16 179.128 147.199 179.577 146.725C179.768 146.491 179.902 146.214 179.967 145.919C180.235 144.989 180.789 143.024 180.228 142.12C180.007 141.758 179.472 141.461 179.142 141.194C178.578 140.72 177.988 140.277 177.377 139.866Z" fill="url(#paint15_linear_52_447)"/>
<path d="M197.539 138.383C197.329 138.216 197.08 138.108 196.816 138.068C196.684 138.052 196.551 138.084 196.441 138.16C196.332 138.235 196.254 138.348 196.222 138.477C196.222 138.661 196.284 138.839 196.399 138.983L196.888 139.746C196.949 139.826 196.986 139.921 196.993 140.021C196.975 140.275 196.631 140.325 196.374 140.293C194.782 140.09 193.194 139.595 191.606 139.808C191.484 139.81 191.367 139.856 191.277 139.938C191.23 140.007 191.208 140.09 191.215 140.173C191.223 140.256 191.258 140.334 191.316 140.394C191.436 140.51 191.583 140.593 191.743 140.636C192.633 140.962 193.546 141.219 194.475 141.403C194.37 141.664 194.026 141.707 193.751 141.718C192.982 141.75 192.217 141.838 191.461 141.982C191.031 142.062 190.502 142.275 190.499 142.706C190.511 142.848 190.567 142.984 190.66 143.093C190.753 143.202 190.877 143.279 191.016 143.314C191.296 143.379 191.586 143.389 191.87 143.343C192.866 143.259 193.868 143.285 194.858 143.419C193.789 143.541 192.773 143.954 191.921 144.612C191.842 144.665 191.776 144.736 191.729 144.819C191.713 144.874 191.709 144.931 191.716 144.988C191.723 145.045 191.741 145.1 191.769 145.15C191.798 145.199 191.836 145.243 191.881 145.278C191.926 145.313 191.978 145.339 192.033 145.354C192.261 145.404 192.498 145.391 192.72 145.318C193.709 145.087 194.719 144.956 195.734 144.927C195.122 145.209 194.552 145.574 194.041 146.013C193.886 146.132 193.762 146.287 193.679 146.465C193.638 146.555 193.625 146.655 193.642 146.752C193.658 146.85 193.704 146.94 193.773 147.011C193.866 147.068 193.971 147.102 194.08 147.111C194.189 147.12 194.298 147.103 194.399 147.062C195.6 146.736 196.664 145.955 197.897 145.774C198.541 145.676 199.287 145.716 199.735 145.242C199.927 145.007 200.061 144.731 200.126 144.435C200.397 143.505 200.947 141.541 200.386 140.633C200.166 140.271 199.63 139.978 199.301 139.71C198.737 139.237 198.149 138.794 197.539 138.383Z" fill="url(#paint16_linear_52_447)"/>
</g>
<defs>
<filter id="filter0_dii_52_447" x="90.1581" y="68.1584" width="79.565" height="79.5614" filterUnits="userSpaceOnUse" color-interpolation-filters="sRGB">
<feFlood flood-opacity="0" result="BackgroundImageFix"/>
<feColorMatrix in="SourceAlpha" type="matrix" values="0 0 0 0 0 0 0 0 0 0 0 0 0 0 0 0 0 0 127 0" result="hardAlpha"/>
<feOffset dx="4.62941" dy="5.14148"/>
<feGaussianBlur stdDeviation="6.91854"/>
<feColorMatrix type="matrix" values="0 0 0 0 0.0266667 0 0 0 0 0.0188235 0 0 0 0 0.113725 0 0 0 0.4185 0"/>
<feBlend mode="normal" in2="BackgroundImageFix" result="effect1_dropShadow_52_447"/>
<feBlend mode="normal" in="SourceGraphic" in2="effect1_dropShadow_52_447" result="shape"/>
<feColorMatrix in="SourceAlpha" type="matrix" values="0 0 0 0 0 0 0 0 0 0 0 0 0 0 0 0 0 0 127 0" result="hardAlpha"/>
<feOffset dx="1.96493" dy="2.18227"/>
<feGaussianBlur stdDeviation="1.46827"/>
<feComposite in2="hardAlpha" operator="arithmetic" k2="-1" k3="1"/>
<feColorMatrix type="matrix" values="0 0 0 0 0.168267 0 0 0 0 0.118776 0 0 0 0 0.717608 0 0 0 1 0"/>
<feBlend mode="normal" in2="shape" result="effect2_innerShadow_52_447"/>
<feColorMatrix in="SourceAlpha" type="matrix" values="0 0 0 0 0 0 0 0 0 0 0 0 0 0 0 0 0 0 127 0" result="hardAlpha"/>
<feOffset dx="-1.96493" dy="-2.18227"/>
<feGaussianBlur stdDeviation="1.46827"/>
<feComposite in2="hardAlpha" operator="arithmetic" k2="-1" k3="1"/>
<feColorMatrix type="matrix" values="0 0 0 0 0.0896667 0 0 0 0 0.0632941 0 0 0 0 0.382402 0 0 0 1 0"/>
<feBlend mode="normal" in2="effect2_innerShadow_52_447" result="effect3_innerShadow_52_447"/>
</filter>
<linearGradient id="paint0_linear_52_447" x1="126.872" y1="-8.36443" x2="129.874" y2="243.944" gradientUnits="userSpaceOnUse">
<stop stop-color="#221891" stop-opacity="0"/>
<stop offset="0.5" stop-color="#221891" stop-opacity="0.38"/>
<stop offset="0.97" stop-color="#0C0C11"/>
<stop offset="0.98" stop-color="#312F43"/>
<stop offset="0.99" stop-color="#3F3D56"/>
</linearGradient>
<linearGradient id="paint1_linear_52_447" x1="33.2959" y1="21.4466" x2="31.7004" y2="31.5694" gradientUnits="userSpaceOnUse">
<stop stop-color="#183866"/>
<stop offset="1" stop-color="#1A7FC1"/>
</linearGradient>
<linearGradient id="paint2_linear_52_447" x1="40.7885" y1="21.4502" x2="39.193" y2="31.573" gradientUnits="userSpaceOnUse">
<stop stop-color="#183866"/>
<stop offset="1" stop-color="#1A7FC1"/>
</linearGradient>
<linearGradient id="paint3_linear_52_447" x1="48.2811" y1="21.4539" x2="46.6856" y2="31.5766" gradientUnits="userSpaceOnUse">
<stop stop-color="#183866"/>
<stop offset="1" stop-color="#1A7FC1"/>
</linearGradient>
<linearGradient id="paint4_linear_52_447" x1="108.742" y1="68.4122" x2="143.461" y2="106.974" gradientUnits="userSpaceOnUse">
<stop offset="1" stop-color="#291DAD"/>
<stop stop-color="#19126B"/>
</linearGradient>
<linearGradient id="paint5_linear_52_447" x1="125.529" y1="54.8067" x2="125.048" y2="85.5729" gradientUnits="userSpaceOnUse">
<stop offset="0.01" stop-color="#221891"/>
<stop offset="0.99" stop-color="#221891" stop-opacity="0"/>
</linearGradient>
<linearGradient id="paint6_linear_52_447" x1="184.037" y1="133.727" x2="227.972" y2="176.341" gradientUnits="userSpaceOnUse">
<stop offset="0.01"/>
<stop offset="0.15" stop-opacity="0.52"/>
<stop offset="0.99" stop-opacity="0"/>
</linearGradient>
<linearGradient id="paint7_linear_52_447" x1="197.083" y1="178.885" x2="146.303" y2="135.828" gradientUnits="userSpaceOnUse">
<stop offset="0.01"/>
<stop offset="0.16" stop-opacity="0.52"/>
<stop offset="1" stop-opacity="0"/>
</linearGradient>
<linearGradient id="paint8_linear_52_447" x1="199.174" y1="181.573" x2="275.565" y2="162.145" gradientUnits="userSpaceOnUse">
<stop offset="0.01"/>
<stop offset="0.15" stop-opacity="0.52"/>
<stop offset="0.99" stop-opacity="0"/>
</linearGradient>
<linearGradient id="paint9_linear_52_447" x1="193.328" y1="150.224" x2="252.281" y2="112.027" gradientUnits="userSpaceOnUse">
<stop offset="0.01"/>
<stop offset="0.15" stop-opacity="0.52"/>
<stop offset="0.99" stop-opacity="0"/>
</linearGradient>
<linearGradient id="paint10_linear_52_447" x1="200.593" y1="133.567" x2="253.359" y2="149.023" gradientUnits="userSpaceOnUse">
<stop offset="0.01"/>
<stop offset="0.15" stop-opacity="0.52"/>
<stop offset="0.99" stop-opacity="0"/>
</linearGradient>
<linearGradient id="paint11_linear_52_447" x1="193.737" y1="116.821" x2="206.023" y2="119.987" gradientUnits="userSpaceOnUse">
<stop stop-color="#ECC4D7"/>
<stop offset="0.42" stop-color="#EFD4D1"/>
<stop offset="1" stop-color="#F2EAC9"/>
</linearGradient>
<linearGradient id="paint12_linear_52_447" x1="192.76" y1="111.426" x2="233.254" y2="96.3071" gradientUnits="userSpaceOnUse">
<stop offset="0.01"/>
<stop offset="0.03" stop-opacity="0.93"/>
<stop offset="0.51" stop-opacity="0.05"/>
<stop offset="0.58" stop-opacity="0.03"/>
<stop offset="0.99" stop-opacity="0"/>
</linearGradient>
<linearGradient id="paint13_linear_52_447" x1="196.566" y1="115.59" x2="224.243" y2="113.734" gradientUnits="userSpaceOnUse">
<stop offset="0.01"/>
<stop offset="0.15" stop-opacity="0.52"/>
<stop offset="0.99" stop-opacity="0"/>
</linearGradient>
<linearGradient id="paint14_linear_52_447" x1="196.966" y1="122.72" x2="210.218" y2="133.044" gradientUnits="userSpaceOnUse">
<stop stop-color="#ECC4D7"/>
<stop offset="0.42" stop-color="#EFD4D1"/>
<stop offset="1" stop-color="#F2EAC9"/>
</linearGradient>
<linearGradient id="paint15_linear_52_447" x1="175.597" y1="137.627" x2="172.721" y2="228.543" gradientUnits="userSpaceOnUse">
<stop offset="0.01"/>
<stop offset="0.15" stop-opacity="0.52"/>
<stop offset="0.99" stop-opacity="0"/>
</linearGradient>
<linearGradient id="paint16_linear_52_447" x1="195.705" y1="137.836" x2="192.829" y2="228.753" gradientUnits="userSpaceOnUse">
<stop offset="0.01"/>
<stop offset="0.15" stop-opacity="0.52"/>
<stop offset="0.99" stop-opacity="0"/>
</linearGradient>
<clipPath id="clip0_52_447">
<rect width="255.76" height="216" fill="white" transform="translate(0.243164)"/>
</clipPath>
</defs>
</svg>
