<svg width="118" height="36" viewBox="0 0 118 36" fill="none" xmlns="http://www.w3.org/2000/svg">
<g clip-path="url(#clip0_239_1234)">
<mask id="mask0_239_1234" style="mask-type:luminance" maskUnits="userSpaceOnUse" x="1" y="0" width="116" height="36">
<path d="M1.04443 0.419678H116.556V35.1345H1.04443V0.419678Z" fill="white"/>
</mask>
<g mask="url(#mask0_239_1234)">
<path d="M18.4012 0.476074C8.8452 0.476074 1.09717 8.22536 1.09717 17.7827C1.09717 27.3399 8.84395 35.0867 18.4012 35.0867C27.9598 35.0867 35.7066 27.3399 35.7066 17.7827C35.7066 8.22662 27.9598 0.479841 18.4012 0.479841V0.476074ZM26.3363 25.4353C26.1872 25.679 25.9474 25.8536 25.6696 25.9207C25.3918 25.9878 25.0988 25.9419 24.8548 25.7931C20.7906 23.3109 15.6767 22.7484 9.65252 24.1245C9.37943 24.1731 9.09812 24.1147 8.8669 23.9615C8.63568 23.8082 8.4723 23.5719 8.41063 23.3015C8.34895 23.031 8.39371 22.7472 8.53563 22.5089C8.67756 22.2706 8.90575 22.096 9.1729 22.0214C15.7646 20.5147 21.4183 21.1639 25.9798 23.9512C26.1008 24.0251 26.2061 24.1221 26.2896 24.2367C26.3731 24.3513 26.4332 24.4812 26.4664 24.619C26.4997 24.7569 26.5054 24.8999 26.4833 25.04C26.4612 25.18 26.4117 25.3144 26.3376 25.4353H26.3363ZM28.4557 20.7232C28.2685 21.0281 27.9679 21.2462 27.6199 21.3296C27.2719 21.4129 26.9051 21.3547 26.6 21.1676C21.9482 18.3087 14.8581 17.4813 9.35621 19.1512C9.01373 19.2549 8.6441 19.2185 8.32844 19.0499C8.01278 18.8814 7.77688 18.5945 7.67251 18.2522C7.56926 17.9097 7.60605 17.5403 7.77481 17.2249C7.94357 16.9095 8.23053 16.6739 8.57275 16.5698C14.8568 14.6626 22.6701 15.5867 28.0113 18.8687C28.6453 19.2592 28.8462 20.0904 28.4557 20.7232ZM28.6378 15.8165C23.0606 12.5043 13.8586 12.2005 8.53382 13.8151C8.33044 13.8768 8.11689 13.8979 7.90536 13.8771C7.69383 13.8564 7.48846 13.7941 7.30099 13.694C6.92236 13.4917 6.6396 13.1473 6.51489 12.7366C6.39018 12.3258 6.43375 11.8824 6.63602 11.5037C6.83828 11.1251 7.18266 10.8423 7.59341 10.7176C13.7067 8.86318 23.8679 9.22102 30.2888 13.0329C30.4716 13.1413 30.6312 13.2846 30.7586 13.4547C30.886 13.6248 30.9786 13.8184 31.0312 14.0243C31.0838 14.2302 31.0953 14.4444 31.0651 14.6547C31.0349 14.8651 30.9635 15.0674 30.8551 15.2502C30.7467 15.433 30.6033 15.5926 30.4332 15.72C30.2631 15.8473 30.0696 15.94 29.8637 15.9925C29.6578 16.0451 29.4436 16.0566 29.2332 16.0264C29.0229 15.9962 28.8206 15.9249 28.6378 15.8165ZM48.1767 16.4518C45.1885 15.7386 44.6574 15.2389 44.6574 14.188C44.6574 13.1961 45.5915 12.5282 46.9827 12.5282C48.3299 12.5282 49.6646 13.0354 51.0658 14.0788C51.0866 14.0944 51.1103 14.1057 51.1355 14.1119C51.1608 14.1182 51.187 14.1193 51.2127 14.1152C51.2387 14.1115 51.2636 14.1027 51.2861 14.0891C51.3085 14.0755 51.328 14.0574 51.3433 14.0361L52.8009 11.9795C52.8298 11.9387 52.842 11.8884 52.835 11.8389C52.828 11.7894 52.8023 11.7445 52.7633 11.7133C51.0972 10.3749 49.2201 9.7245 47.0254 9.7245C43.7999 9.7245 41.5461 11.6606 41.5461 14.4303C41.5461 17.401 43.4897 18.4531 46.8509 19.2642C49.7085 19.9234 50.1907 20.4758 50.1907 21.4614C50.1907 22.5538 49.2163 23.2343 47.6456 23.2343C45.9017 23.2343 44.4779 22.6454 42.8871 21.2693C42.8473 21.2356 42.796 21.2185 42.7439 21.2216C42.7182 21.2234 42.693 21.2303 42.6699 21.2419C42.6468 21.2536 42.6263 21.2697 42.6096 21.2894L40.9736 23.2355C40.9406 23.2747 40.9241 23.3251 40.9276 23.3762C40.9311 23.4273 40.9544 23.475 40.9925 23.5092C42.7963 25.1436 45.1462 26.0442 47.5803 26.0342C51.0557 26.0342 53.3019 24.1358 53.3019 21.1953C53.3082 18.7143 51.8216 17.3407 48.183 16.4543L48.1767 16.4518ZM61.1667 13.505C59.66 13.505 58.4246 14.0989 57.4038 15.3142V13.9457C57.404 13.92 57.3991 13.8946 57.3894 13.8708C57.3797 13.8471 57.3653 13.8255 57.3473 13.8073C57.3292 13.789 57.3077 13.7746 57.284 13.7647C57.2603 13.7549 57.2349 13.7498 57.2092 13.7498H54.5336C54.508 13.7498 54.4825 13.7549 54.4589 13.7647C54.4352 13.7746 54.4136 13.789 54.3956 13.8073C54.3775 13.8255 54.3632 13.8471 54.3535 13.8708C54.3438 13.8946 54.3388 13.92 54.339 13.9457V29.1542C54.339 29.2622 54.4269 29.3513 54.5336 29.3513H57.2092C57.3172 29.3513 57.4038 29.2622 57.4038 29.1542V24.3542C58.4246 25.4968 59.66 26.0568 61.1667 26.0568C63.9666 26.0568 66.8017 23.9022 66.8017 19.7815C66.8054 15.6608 63.9704 13.5037 61.168 13.5037L61.1667 13.505ZM63.6904 19.7828C63.6904 21.8795 62.3972 23.3435 60.5465 23.3435C58.7171 23.3435 57.3373 21.8117 57.3373 19.7815C57.3373 17.75 58.7184 16.2195 60.5465 16.2195C62.367 16.2195 63.6891 17.7174 63.6891 19.7815L63.6904 19.7828ZM74.065 13.505C70.4591 13.505 67.6341 16.281 67.6341 19.8267C67.6341 23.3335 70.4403 26.0794 74.0211 26.0794C77.6396 26.0794 80.4721 23.3134 80.4721 19.7815C80.4721 16.2622 77.6584 13.505 74.065 13.505ZM74.065 23.3649C72.1466 23.3649 70.7001 21.823 70.7001 19.7802C70.7001 17.7287 72.0976 16.2396 74.0211 16.2396C75.9509 16.2396 77.4061 17.7814 77.4061 19.8254C77.4061 21.877 75.9999 23.3649 74.065 23.3649ZM88.1725 13.7498H85.2269V10.7402C85.2271 10.7147 85.2222 10.6893 85.2126 10.6657C85.203 10.642 85.1888 10.6205 85.1708 10.6023C85.1529 10.5841 85.1315 10.5696 85.1079 10.5597C85.0844 10.5497 85.0591 10.5445 85.0336 10.5444H82.3567C82.3049 10.5447 82.2552 10.5654 82.2186 10.6021C82.1819 10.6388 82.1612 10.6884 82.1609 10.7402V13.7498H80.8752C80.8496 13.75 80.8243 13.7552 80.8008 13.7651C80.7772 13.775 80.7559 13.7895 80.7379 13.8077C80.72 13.8259 80.7058 13.8474 80.6962 13.8711C80.6865 13.8948 80.6817 13.9201 80.6818 13.9457V16.2446C80.6818 16.3526 80.7684 16.4405 80.8752 16.4405H82.1609V22.3918C82.1609 24.7949 83.3574 26.0141 85.7191 26.0141C86.6784 26.0141 87.4731 25.8157 88.2239 25.3901C88.2543 25.3735 88.2795 25.3489 88.297 25.3191C88.3145 25.2892 88.3235 25.2552 88.3231 25.2206V23.0296C88.3229 22.9966 88.3142 22.9641 88.298 22.9354C88.2817 22.9066 88.2584 22.8824 88.2302 22.8651C88.2021 22.8468 88.1695 22.8363 88.136 22.8348C88.1024 22.8332 88.0691 22.8407 88.0394 22.8564C87.5545 23.1073 87.0159 23.237 86.4699 23.2343C85.6124 23.2343 85.2269 22.8438 85.2269 21.9712V16.4417H88.1725C88.2792 16.4417 88.3658 16.3538 88.3658 16.2459V13.9482C88.3667 13.9226 88.3623 13.897 88.353 13.8731C88.3437 13.8492 88.3297 13.8274 88.3117 13.8091C88.2937 13.7908 88.2722 13.7764 88.2485 13.7666C88.2248 13.7568 88.1994 13.752 88.1737 13.7523L88.1725 13.7511V13.7498ZM98.4304 13.7624V13.392C98.4304 12.3047 98.8472 11.8188 99.7813 11.8188C100.339 11.8188 100.787 11.9305 101.289 12.0975C101.319 12.1073 101.35 12.1099 101.38 12.1052C101.411 12.1005 101.44 12.0886 101.465 12.0704C101.49 12.0522 101.51 12.0283 101.524 12.0007C101.538 11.9731 101.546 11.9426 101.545 11.9117V9.65544C101.546 9.61329 101.533 9.57207 101.508 9.53807C101.483 9.50407 101.448 9.47915 101.407 9.46711C100.687 9.24717 99.9369 9.1396 99.1837 9.1482C96.714 9.1482 95.407 10.5394 95.407 13.171V13.736H94.1213C94.069 13.736 94.0189 13.7568 93.9819 13.7937C93.9449 13.8307 93.9242 13.8808 93.9242 13.9331V16.2433C93.9242 16.3513 94.0133 16.4392 94.1213 16.4392H95.4057V25.6161C95.4057 25.7253 95.4949 25.8119 95.6028 25.8119H98.2772C98.3864 25.8119 98.473 25.724 98.473 25.6161V16.4405H100.972L104.799 25.6161C104.364 26.5791 103.936 26.7712 103.355 26.7712C102.883 26.7712 102.384 26.6306 101.878 26.3518C101.83 26.3276 101.775 26.3222 101.724 26.3368C101.698 26.3454 101.675 26.3592 101.655 26.3774C101.635 26.3955 101.619 26.4176 101.608 26.4422L100.7 28.4323C100.679 28.4773 100.676 28.5287 100.692 28.5758C100.708 28.623 100.741 28.6623 100.785 28.6859C101.731 29.1994 102.585 29.4179 103.641 29.4179C105.616 29.4179 106.709 28.4963 107.671 26.0204L112.312 14.0285C112.324 13.9987 112.328 13.9662 112.325 13.9341C112.321 13.9021 112.309 13.8715 112.29 13.8452C112.273 13.8193 112.249 13.7981 112.222 13.7835C112.194 13.7688 112.163 13.7611 112.132 13.7611H109.346C109.305 13.7609 109.266 13.7733 109.232 13.7967C109.199 13.8201 109.174 13.8533 109.16 13.8917L106.306 22.0402L103.183 13.8867C103.169 13.8497 103.144 13.8179 103.111 13.7955C103.079 13.7731 103.04 13.7611 103.001 13.7611H98.4304V13.7624ZM92.4828 13.7498H89.8059C89.7541 13.7501 89.7045 13.7709 89.6678 13.8075C89.6311 13.8442 89.6104 13.8938 89.6101 13.9457V25.6173C89.6101 25.7266 89.698 25.8132 89.8059 25.8132H92.4828C92.5895 25.8132 92.6786 25.7253 92.6786 25.6173V13.9469C92.6786 13.9212 92.6736 13.8957 92.6637 13.872C92.6539 13.8482 92.6395 13.8266 92.6213 13.8084C92.6031 13.7902 92.5815 13.7758 92.5577 13.766C92.534 13.7561 92.5085 13.7511 92.4828 13.7511V13.7498ZM91.1594 8.43504C90.9075 8.43488 90.658 8.48434 90.4252 8.5806C90.1923 8.67686 89.9807 8.81803 89.8025 8.99607C89.6242 9.1741 89.4828 9.3855 89.3862 9.6182C89.2896 9.85089 89.2399 10.1003 89.2397 10.3523C89.2395 10.6042 89.289 10.8537 89.3852 11.0865C89.4815 11.3194 89.6227 11.531 89.8007 11.7092C89.9787 11.8875 90.1901 12.0289 90.4228 12.1255C90.6555 12.2221 90.905 12.2719 91.1569 12.272C91.6657 12.2724 92.1538 12.0705 92.5139 11.711C92.8739 11.3514 93.0763 10.8636 93.0767 10.3548C93.077 9.84597 92.8752 9.35786 92.5156 8.99784C92.1561 8.63782 91.6683 8.43537 91.1594 8.43504ZM114.597 17.5027C113.538 17.5027 112.714 16.6514 112.714 15.6193C112.714 14.5873 113.55 13.7272 114.607 13.7272C115.665 13.7272 116.49 14.5772 116.49 15.6093C116.49 16.6414 115.655 17.5027 114.597 17.5027ZM114.607 13.9143C113.643 13.9143 112.912 14.6802 112.912 15.6193C112.912 16.5572 113.638 17.3143 114.597 17.3143C115.562 17.3143 116.292 16.5484 116.292 15.6093C116.295 15.3866 116.254 15.1655 116.171 14.959C116.087 14.7525 115.963 14.5648 115.806 14.4068C115.649 14.2489 115.462 14.124 115.256 14.0394C115.05 13.9548 114.83 13.9123 114.607 13.9143ZM115.025 15.8026L115.557 16.5484H115.108L114.628 15.8642H114.216V16.5484H113.84V14.5722H114.721C115.182 14.5722 115.483 14.807 115.483 15.2025C115.486 15.5264 115.296 15.7235 115.025 15.8026ZM114.706 14.9112H114.216V15.5352H114.706C114.951 15.5352 115.097 15.4159 115.097 15.2226C115.097 15.0192 114.95 14.9112 114.706 14.9112Z" fill="#D6D7DA"/>
</g>
</g>
<defs>
<clipPath id="clip0_239_1234">
<rect width="116.767" height="35.1556" fill="white" transform="translate(0.416626 0.199951)"/>
</clipPath>
</defs>
</svg>
