<svg width="90" height="26" viewBox="0 0 90 26" fill="none" xmlns="http://www.w3.org/2000/svg">
<g clip-path="url(#clip0_239_1230)">
<path d="M10.8576 6.12329V23.8819H8.12045V6.12329H0.988892V3.51676H17.9941V6.12329H10.8576ZM21.2485 23.8819V3.51676H23.9856V23.8819H21.2485ZM43.3011 18.1126C43.3011 21.5666 40.9896 23.8781 35.7439 23.8781H28.8032V3.51676H35.5468C40.4648 3.51676 42.6495 5.72905 42.6495 8.92318C42.6495 11.0061 41.4441 12.5429 39.159 13.4093C41.8861 14.0697 43.3011 15.8287 43.3011 18.1126ZM35.7753 6.05675H31.5717V12.4412H35.3509C38.2801 12.4412 39.881 11.1392 39.881 9.15169C39.881 7.16415 38.4459 6.05675 35.7753 6.05675ZM35.5782 14.9536H31.5931V21.3381H36.0051C39.0335 21.3381 40.5351 20.2621 40.5351 18.144C40.5351 15.8011 38.4459 14.9536 35.5782 14.9536ZM61.3547 7.24827C59.726 6.10009 57.7791 5.48988 55.7864 5.50305C51.3542 5.50305 48.3635 8.56786 48.3635 13.6202C48.3635 18.6713 51.353 21.8943 55.8391 21.8943C57.9241 21.8586 59.9435 21.1598 61.6046 19.8992L62.0591 22.6715C60.1529 23.7897 57.9812 24.3751 55.7713 24.3665C49.7911 24.3665 45.5737 20.2295 45.5737 13.747C45.5737 7.26334 49.8551 3.03086 55.7813 3.03086C58.0433 3.01588 60.2688 3.60074 62.2311 4.72586L61.3547 7.24827ZM79.0104 4.46596C78.7059 4.28218 78.3915 4.11536 78.0687 3.96625C75.4044 9.07134 70.5919 15.1407 64.171 18.5935C64.5273 19.4021 64.9938 20.1576 65.5571 20.8384C71.0602 17.0429 76.154 10.7387 79.0104 4.46596Z" fill="#D6D7DA"/>
<path d="M77.8251 3.85073C76.4277 3.25477 74.9222 2.95385 73.403 2.96682C67.4228 2.96682 63.1903 7.58726 63.1903 13.6692C63.1866 14.6435 63.2933 15.6153 63.5042 16.5645C69.6251 14.0697 75.0704 8.56785 77.8251 3.85073ZM79.264 4.60657C76.1226 12.332 72.2881 17.7962 67.4052 22.4957C69.1817 23.6922 71.2829 24.3137 73.4244 24.2761C79.4046 24.2761 83.6371 19.6255 83.6371 13.5386C83.6157 9.51077 81.9483 6.37942 79.264 4.60657ZM83.6157 3.93485C83.6048 3.58258 83.6648 3.23172 83.7921 2.90308C83.9194 2.57443 84.1114 2.27471 84.3567 2.02168C84.6021 1.76865 84.8957 1.56748 85.2203 1.4301C85.5448 1.29271 85.8937 1.22192 86.2461 1.22192C86.5985 1.22192 86.9474 1.29271 87.2719 1.4301C87.5965 1.56748 87.8902 1.76865 88.1355 2.02168C88.3808 2.27471 88.5728 2.57443 88.7001 2.90308C88.8274 3.23172 88.8874 3.58258 88.8765 3.93485C88.8874 4.28712 88.8274 4.63798 88.7001 4.96662C88.5728 5.29527 88.3808 5.595 88.1355 5.84802C87.8902 6.10105 87.5965 6.30222 87.2719 6.4396C86.9474 6.57699 86.5985 6.64778 86.2461 6.64778C85.8937 6.64778 85.5448 6.57699 85.2203 6.4396C84.8957 6.30222 84.6021 6.10105 84.3567 5.84802C84.1114 5.595 83.9194 5.29527 83.7921 4.96662C83.6648 4.63798 83.6048 4.28712 83.6157 3.93485ZM88.5764 3.93485C88.5527 3.33382 88.2974 2.76527 87.864 2.34823C87.4305 1.9312 86.8526 1.69802 86.2511 1.69754C85.6496 1.69705 85.0712 1.92929 84.6371 2.34562C84.203 2.76195 83.9467 3.3301 83.9221 3.93108V3.93485C83.9239 4.55255 84.171 5.14423 84.6091 5.57972C85.0472 6.01521 85.6403 6.25883 86.258 6.257C86.8757 6.25517 87.4674 6.00803 87.9029 5.56995C88.3384 5.13188 88.582 4.53874 88.5802 3.92104V3.93485H88.5764ZM85.2241 2.54118H86.4344C87.022 2.54118 87.4615 2.82996 87.4615 3.38994C87.4689 3.57663 87.4112 3.76009 87.2983 3.90895C87.1854 4.05782 87.0243 4.16283 86.8425 4.20605L87.5557 5.20171H86.9367L86.2938 4.25502H85.7439V5.20171H85.2442V2.52737L85.2241 2.54118ZM86.388 3.87458C86.4533 3.8861 86.5203 3.88351 86.5845 3.86697C86.6488 3.85044 86.7087 3.82034 86.7603 3.77871C86.8119 3.73708 86.8541 3.68488 86.8838 3.62562C86.9136 3.56635 86.9303 3.50141 86.9329 3.43514C86.9326 3.36846 86.9175 3.30268 86.8887 3.24254C86.8599 3.18241 86.8181 3.12941 86.7663 3.08738C86.7145 3.04534 86.6541 3.01531 86.5893 2.99946C86.5246 2.98361 86.4571 2.98232 86.3918 2.99569H85.7477V3.85701H86.3955L86.388 3.87458Z" fill="#D6D7DA"/>
</g>
<defs>
<clipPath id="clip0_239_1230">
<rect width="89.1444" height="25.1111" fill="white" transform="translate(0.361084 0.222168)"/>
</clipPath>
</defs>
</svg>
