<svg width="153" height="39" viewBox="0 0 153 39" fill="none" xmlns="http://www.w3.org/2000/svg">
<path d="M111.79 10.3146C111.789 10.808 111.598 11.2822 111.256 11.638C111.089 11.8123 110.889 11.9511 110.668 12.0459C110.446 12.1407 110.208 12.1896 109.967 12.1896C109.725 12.1896 109.487 12.1407 109.265 12.0459C109.044 11.9511 108.844 11.8123 108.677 11.638C108.332 11.2843 108.14 10.8088 108.143 10.3146C108.144 9.8212 108.335 9.34709 108.677 8.99127C108.844 8.81692 109.044 8.67815 109.265 8.58333C109.487 8.48852 109.725 8.43964 109.967 8.43964C110.208 8.43964 110.446 8.48852 110.668 8.58333C110.889 8.67815 111.089 8.81692 111.256 8.99127C111.601 9.34494 111.793 9.82046 111.79 10.3146ZM144.207 18.5297H139.566V23.2657H144.207V18.5297ZM52.1796 18.5297H47.5378V23.2657H52.1783V18.5297H52.1796ZM38.2617 18.5297H33.6212V23.2657H38.2617V18.5297ZM24.5548 18.5297H19.9156V23.2657H24.5561L24.5548 18.5297ZM10.3608 18.5297H5.71899V23.2657H10.3583V18.5297H10.3608Z" fill="#D6D7DA"/>
<path d="M16.8645 9.07794H17.4145C20.9702 9.07794 22.6275 10.9801 23.3206 16.0538L24.4217 16.0048L24.2736 7.95673H6.18101L6.00146 16.0048L7.06115 16.0538C7.24446 14.1516 7.46544 13.1271 7.94255 12.1026C8.78754 10.2004 10.5491 9.07794 12.7149 9.07794H13.4858V26.5892C13.4858 28.4424 13.3753 29.0275 12.9359 29.4669C12.568 29.8084 11.8348 29.9553 10.9898 29.9553H10.1448V31.1255H20.2043V29.9553H19.3556C18.5156 29.9553 17.7761 29.8084 17.4145 29.4669C16.975 29.0275 16.8645 28.4424 16.8645 26.5892V9.07794ZM64.7263 31.1255L70.5898 10.67V26.7223C70.5898 28.4738 70.4893 29.0902 70.0926 29.5159C69.7937 29.8473 69.1019 29.9892 68.3348 29.9892H68.0372V31.1255H76.3239V29.9892H75.892C75.1298 29.9892 74.4343 29.8473 74.1354 29.5159C73.7374 29.089 73.6382 28.4738 73.6382 26.7223V13.0367C73.6382 11.2852 73.7387 10.6223 74.1354 10.1966C74.4669 9.91288 75.1298 9.72329 75.8932 9.72329H76.3239V8.63347H69.8929L65.054 25.1591L60.3181 8.63347H53.921V9.72329H54.5174C56.2752 9.72329 56.6066 10.1025 56.6066 12.375V25.3951C56.6066 27.4794 56.5062 28.3331 56.2086 28.9484C55.8772 29.5636 55.1766 29.9905 54.4508 29.9905H53.921V31.1255H60.7487V29.9892H60.3181C59.4567 29.9892 58.7612 29.6577 58.3581 28.9948C57.9651 28.3319 57.866 27.7167 57.866 25.3964V10.67L63.6942 31.1255H64.7263ZM83.4492 15.1209C79.3397 15.1209 76.6553 18.3402 76.6553 23.4076C76.6553 28.2854 79.3397 31.6001 83.3462 31.6001C87.3891 31.6001 90.0735 28.2854 90.0735 23.3599C90.0735 18.4833 87.3891 15.1209 83.4492 15.1209ZM83.3173 16.2095C84.5063 16.2095 85.5334 16.9678 86.0959 18.246C86.627 19.43 86.8592 21.0396 86.8592 23.3599C86.8592 28.1423 85.6991 30.509 83.3462 30.509C80.9971 30.509 79.8645 28.1423 79.8645 23.3122C79.8645 21.0396 80.1018 19.43 80.6317 18.246C81.159 17.0156 82.2237 16.2095 83.3173 16.2095ZM95.5803 8.39743L90.8745 8.63347V9.67558H91.1005C92.4942 9.67558 92.7955 10.1489 92.7955 12.375V27.7631C92.7955 29.7519 92.7302 30.2742 92.4653 31.1255H93.5589C94.3825 29.7519 94.5859 29.5159 94.9186 29.5159C95.0794 29.5159 95.2401 29.5636 95.4774 29.7996C97.1058 31.1255 97.8014 31.4092 99.2943 31.4092C102.868 31.4092 105.454 27.9527 105.454 23.0284C105.454 18.3879 103.062 15.2628 99.4876 15.2628C97.6319 15.2628 96.2772 16.163 95.5803 17.7727V8.39743ZM99.0193 16.4455C101.145 16.4455 102.239 18.7193 102.239 23.1703C102.239 27.8585 101.111 30.273 98.9565 30.273C96.571 30.273 95.3154 27.8108 95.3154 23.3122C95.3154 21.0396 95.6142 19.4777 96.3098 18.2937C96.9351 17.1574 98.001 16.4468 99.018 16.4468L99.0193 16.4455ZM111.586 15.3582L106.751 15.642V16.6841H107.115C108.503 16.6841 108.801 17.1574 108.801 19.3358V27.3375C108.801 29.5159 108.504 30.0369 107.115 30.0369H106.59V31.1255H113.807V30.0369H113.285C111.889 30.0369 111.586 29.5636 111.586 27.3375V15.3582ZM119.971 8.39743L115.137 8.63347V9.67558H115.497C116.888 9.67558 117.187 10.1489 117.187 12.375V27.3362C117.187 29.5623 116.888 30.0357 115.497 30.0357H114.971V31.1242H122.192V30.0357H121.662C120.265 30.0357 119.971 29.5611 119.971 27.3362V8.39743ZM135.38 23.2657C135.218 18.246 132.831 15.1209 129.224 15.1209C125.739 15.1209 123.224 18.5298 123.224 23.2657C123.224 28.3319 125.706 31.5988 129.551 31.5988C132.037 31.5988 133.761 30.273 135.186 27.3375L134.191 26.8164C133.031 29.2786 131.871 30.273 130.08 30.273C127.463 30.273 126.34 28.19 126.306 23.2657H135.38ZM126.34 22.0817C126.369 18.5298 127.524 16.3049 129.385 16.3049C131.241 16.3049 132.334 18.4833 132.302 22.0805L126.34 22.0817ZM145.947 14.7355C146.227 14.7355 146.501 14.807 146.767 14.9502C147.034 15.0946 147.241 15.3005 147.391 15.5666C147.54 15.8341 147.614 16.1128 147.614 16.4041C147.614 16.6916 147.54 16.9678 147.393 17.2328C147.248 17.4977 147.042 17.7036 146.777 17.8505C146.524 17.994 146.238 18.0694 145.947 18.0694C145.656 18.0694 145.37 17.994 145.117 17.8505C144.856 17.7081 144.642 17.4937 144.499 17.2328C144.355 16.9805 144.278 16.6949 144.277 16.4041C144.277 16.1128 144.352 15.8341 144.502 15.5666C144.651 15.2992 144.86 15.0933 145.126 14.9514C145.394 14.807 145.667 14.7355 145.947 14.7355ZM145.947 15.0117C145.713 15.0117 145.485 15.072 145.264 15.1925C145.044 15.31 144.864 15.4888 144.744 15.7073C144.619 15.9295 144.556 16.163 144.556 16.4041C144.557 16.7724 144.704 17.1252 144.965 17.3854C145.226 17.6457 145.579 17.7921 145.947 17.7927C146.187 17.7927 146.418 17.73 146.639 17.6082C146.858 17.4851 147.03 17.3131 147.152 17.0934C147.272 16.8818 147.334 16.6429 147.334 16.4C147.333 16.1571 147.27 15.9184 147.15 15.7073C147.03 15.4888 146.849 15.31 146.629 15.1925C146.42 15.0759 146.186 15.0129 145.947 15.0117ZM145.215 17.3244V15.529H145.834C145.988 15.5222 146.142 15.5392 146.291 15.5792C146.384 15.6101 146.463 15.6711 146.517 15.7525C146.58 15.8441 146.608 15.9547 146.598 16.0653C146.588 16.1758 146.539 16.2792 146.46 16.3576C146.361 16.4572 146.228 16.5155 146.088 16.5209C146.15 16.5485 146.202 16.5799 146.239 16.6163C146.312 16.6879 146.401 16.8059 146.506 16.9729L146.724 17.3244H146.369L146.209 17.0407C146.084 16.8197 145.983 16.6803 145.908 16.6238C145.855 16.5824 145.777 16.561 145.676 16.561H145.505V17.3244H145.215ZM145.505 16.315H145.859C146.027 16.315 146.142 16.2898 146.203 16.2396C146.233 16.2157 146.257 16.1851 146.273 16.1502C146.29 16.1153 146.297 16.0772 146.296 16.0387C146.296 15.9878 146.281 15.9382 146.251 15.8969C146.22 15.8533 146.177 15.82 146.128 15.8014C146.033 15.7758 145.935 15.7656 145.836 15.7713H145.505V16.315Z" fill="#D6D7DA"/>
</svg>
