<svg width="56" height="56" viewBox="0 0 56 56" fill="none" xmlns="http://www.w3.org/2000/svg">
<path d="M48 43.7188C48 45.9896 47.349 47.9375 46.0469 49.5625C44.7448 51.1875 43.1771 52 41.3438 52H14.6562C12.8229 52 11.2552 51.1875 9.95312 49.5625C8.65104 47.9375 8 45.9896 8 43.7188C8 41.9479 8.08854 40.276 8.26562 38.7031C8.44271 37.1302 8.77083 35.5469 9.25 33.9531C9.72917 32.3594 10.3385 30.9948 11.0781 29.8594C11.8177 28.724 12.7969 27.7969 14.0156 27.0781C15.2344 26.3594 16.6354 26 18.2188 26C20.9479 28.6667 24.2083 30 28 30C31.7917 30 35.0521 28.6667 37.7812 26C39.3646 26 40.7656 26.3594 41.9844 27.0781C43.2031 27.7969 44.1823 28.724 44.9219 29.8594C45.6615 30.9948 46.2708 32.3594 46.75 33.9531C47.2292 35.5469 47.5573 37.1302 47.7344 38.7031C47.9115 40.276 48 41.9479 48 43.7188ZM40 16C40 19.3125 38.8281 22.1406 36.4844 24.4844C34.1406 26.8281 31.3125 28 28 28C24.6875 28 21.8594 26.8281 19.5156 24.4844C17.1719 22.1406 16 19.3125 16 16C16 12.6875 17.1719 9.85938 19.5156 7.51562C21.8594 5.17188 24.6875 4 28 4C31.3125 4 34.1406 5.17188 36.4844 7.51562C38.8281 9.85938 40 12.6875 40 16Z" fill="url(#paint0_linear_280_4)"/>
<defs>
<linearGradient id="paint0_linear_280_4" x1="28" y1="4" x2="28" y2="52" gradientUnits="userSpaceOnUse">
<stop stop-color="#7037DA"/>
<stop offset="1" stop-color="#221891"/>
</linearGradient>
</defs>
</svg>
