<svg width="57" height="56" viewBox="0 0 57 56" fill="none" xmlns="http://www.w3.org/2000/svg">
<path fill-rule="evenodd" clip-rule="evenodd" d="M49.5667 18.676C49.4345 18.6682 49.2937 18.6651 49.1444 18.6666H43.2527C38.4274 18.6666 34.2997 22.4653 34.2997 27.4166C34.2997 32.368 38.4297 36.1666 43.2527 36.1666H49.1444C49.2937 36.1682 49.4353 36.1651 49.5691 36.1573C50.5608 36.0975 51.497 35.6792 52.2031 34.9803C52.9093 34.2815 53.3373 33.3497 53.4074 32.3586C53.4167 32.2186 53.4167 32.067 53.4167 31.927V22.9063C53.4167 22.7663 53.4167 22.6146 53.4074 22.4746C53.3373 21.4836 52.9093 20.5518 52.2031 19.853C51.497 19.1541 50.5585 18.7358 49.5667 18.676ZM42.7371 29.75C43.9784 29.75 44.9841 28.7046 44.9841 27.4166C44.9841 26.1286 43.9784 25.0833 42.7371 25.0833C41.4934 25.0833 40.4877 26.1286 40.4877 27.4166C40.4877 28.7046 41.4934 29.75 42.7371 29.75Z" fill="url(#paint0_linear_280_165)"/>
<path fill-rule="evenodd" clip-rule="evenodd" d="M49.1421 39.6667C49.2227 39.6634 49.303 39.6793 49.3764 39.7129C49.4498 39.7465 49.5143 39.7969 49.5645 39.8601C49.6147 39.9233 49.6494 39.9975 49.6656 40.0766C49.6818 40.1557 49.6791 40.2375 49.6577 40.3153C49.1911 41.9767 48.4467 43.3953 47.2544 44.5853C45.5067 46.3353 43.2924 47.1077 40.5577 47.4763C37.8977 47.8333 34.5027 47.8333 30.2141 47.8333H25.2861C20.9974 47.8333 17.6001 47.8333 14.9424 47.4763C12.2077 47.1077 9.99339 46.333 8.24573 44.5877C6.50039 42.84 5.72573 40.6257 5.35706 37.891C5.00006 35.231 5.00006 31.836 5.00006 27.5473V27.286C5.00006 22.9973 5.00006 19.6 5.35706 16.94C5.72573 14.2053 6.50039 11.991 8.24573 10.2433C9.99339 8.498 12.2077 7.72333 14.9424 7.35467C17.6024 7 20.9974 7 25.2861 7H30.2141C34.5027 7 37.9001 7 40.5577 7.357C43.2924 7.72567 45.5067 8.50033 47.2544 10.2457C48.4467 11.4403 49.1911 12.8567 49.6577 14.518C49.6791 14.5959 49.6818 14.6777 49.6656 14.7567C49.6494 14.8358 49.6147 14.91 49.5645 14.9732C49.5143 15.0364 49.4498 15.0868 49.3764 15.1205C49.303 15.1541 49.2227 15.1699 49.1421 15.1667H43.2527C36.6331 15.1667 30.7997 20.3933 30.7997 27.4167C30.7997 34.44 36.6331 39.6667 43.2527 39.6667H49.1421ZM13.7501 16.3333C13.2859 16.3333 12.8408 16.5177 12.5126 16.8459C12.1844 17.1741 12.0001 17.6192 12.0001 18.0833C12.0001 18.5475 12.1844 18.9926 12.5126 19.3208C12.8408 19.649 13.2859 19.8333 13.7501 19.8333H23.0834C23.5475 19.8333 23.9926 19.649 24.3208 19.3208C24.649 18.9926 24.8334 18.5475 24.8334 18.0833C24.8334 17.6192 24.649 17.1741 24.3208 16.8459C23.9926 16.5177 23.5475 16.3333 23.0834 16.3333H13.7501Z" fill="url(#paint1_linear_280_165)"/>
<defs>
<linearGradient id="paint0_linear_280_165" x1="43.8582" y1="18.6663" x2="43.8582" y2="36.167" gradientUnits="userSpaceOnUse">
<stop stop-color="#7037DA"/>
<stop offset="1" stop-color="#221891"/>
</linearGradient>
<linearGradient id="paint1_linear_280_165" x1="27.338" y1="7" x2="27.338" y2="47.8333" gradientUnits="userSpaceOnUse">
<stop stop-color="#7037DA"/>
<stop offset="1" stop-color="#221891"/>
</linearGradient>
</defs>
</svg>
