<svg width="24" height="25" viewBox="0 0 24 25" fill="none" xmlns="http://www.w3.org/2000/svg">
<path d="M12.001 2.10034C17.524 2.10034 22.001 6.57734 22.001 12.1003C22.001 17.6233 17.524 22.1003 12.001 22.1003C10.2337 22.1034 8.49757 21.6357 6.97099 20.7453L2.00499 22.1003L3.35699 17.1323C2.46595 15.6053 1.99789 13.8684 2.00099 12.1003C2.00099 6.57734 6.47799 2.10034 12.001 2.10034ZM8.59299 7.40034L8.39299 7.40834C8.26368 7.41725 8.13734 7.45121 8.02099 7.50834C7.91257 7.56985 7.81355 7.64664 7.72699 7.73634C7.60699 7.84934 7.53899 7.94734 7.46599 8.04234C7.09611 8.52324 6.89696 9.11366 6.89999 9.72034C6.90199 10.2103 7.02999 10.6873 7.22999 11.1333C7.63899 12.0353 8.31199 12.9903 9.19999 13.8753C9.41399 14.0883 9.62399 14.3023 9.84999 14.5013C10.9534 15.4727 12.2683 16.1733 13.69 16.5473L14.258 16.6343C14.443 16.6443 14.628 16.6303 14.814 16.6213C15.1052 16.606 15.3895 16.5271 15.647 16.3903C15.7778 16.3227 15.9056 16.2493 16.03 16.1703C16.03 16.1703 16.0723 16.1417 16.155 16.0803C16.29 15.9803 16.373 15.9093 16.485 15.7923C16.569 15.7057 16.639 15.605 16.695 15.4903C16.773 15.3273 16.851 15.0163 16.883 14.7573C16.907 14.5593 16.9 14.4513 16.897 14.3843C16.893 14.2773 16.804 14.1663 16.707 14.1193L16.125 13.8583C16.125 13.8583 15.255 13.4793 14.723 13.2373C14.6673 13.2131 14.6077 13.1992 14.547 13.1963C14.4786 13.1892 14.4094 13.1968 14.3442 13.2187C14.279 13.2406 14.2192 13.2763 14.169 13.3233C14.164 13.3213 14.097 13.3783 13.374 14.2543C13.3325 14.3101 13.2753 14.3522 13.2098 14.3754C13.1443 14.3986 13.0733 14.4017 13.006 14.3843C12.9408 14.367 12.877 14.3449 12.815 14.3183C12.691 14.2663 12.648 14.2463 12.563 14.2103C11.9889 13.9602 11.4574 13.6218 10.988 13.2073C10.862 13.0973 10.745 12.9773 10.625 12.8613C10.2316 12.4845 9.88874 12.0583 9.60499 11.5933L9.54599 11.4983C9.50425 11.4341 9.47003 11.3654 9.44399 11.2933C9.40599 11.1463 9.50499 11.0283 9.50499 11.0283C9.50499 11.0283 9.74799 10.7623 9.86099 10.6183C9.97099 10.4783 10.064 10.3423 10.124 10.2453C10.242 10.0553 10.279 9.86034 10.217 9.70934C9.93699 9.02534 9.64766 8.34501 9.34899 7.66834C9.28999 7.53434 9.11499 7.43834 8.95599 7.41934C8.90199 7.41267 8.84799 7.40734 8.79399 7.40334C8.65972 7.39564 8.52508 7.39698 8.39099 7.40734L8.59299 7.40034Z" fill="#D1AE6C"/>
</svg>
