<svg width="26" height="27" viewBox="0 0 26 27" fill="none" xmlns="http://www.w3.org/2000/svg">
<path d="M10.8333 16.3504L16.4558 13.1004L10.8333 9.85042V16.3504ZM23.3566 7.86792C23.4975 8.37709 23.595 9.05959 23.66 9.92626C23.7358 10.7929 23.7683 11.5404 23.7683 12.1904L23.8333 13.1004C23.8333 15.4729 23.66 17.2171 23.3566 18.3329C23.0858 19.3079 22.4575 19.9363 21.4825 20.2071C20.9733 20.3479 20.0416 20.4454 18.6116 20.5104C17.2033 20.5863 15.9141 20.6188 14.7225 20.6188L13 20.6838C8.46079 20.6838 5.63329 20.5104 4.51746 20.2071C3.54246 19.9363 2.91413 19.3079 2.64329 18.3329C2.50246 17.8238 2.40496 17.1413 2.33996 16.2746C2.26413 15.4079 2.23163 14.6604 2.23163 14.0104L2.16663 13.1004C2.16663 10.7279 2.33996 8.98376 2.64329 7.86792C2.91413 6.89292 3.54246 6.26459 4.51746 5.99376C5.02663 5.85292 5.95829 5.75542 7.38829 5.69042C8.79663 5.61459 10.0858 5.58209 11.2775 5.58209L13 5.51709C17.5391 5.51709 20.3666 5.69042 21.4825 5.99376C22.4575 6.26459 23.0858 6.89292 23.3566 7.86792Z" fill="#D1AE6C"/>
</svg>
